G04 EAGLE Gerber RS-274X export*
G75*
%MOMM*%
%FSLAX34Y34*%
%LPD*%
%INSoldermask Top*%
%IPPOS*%
%AMOC8*
5,1,8,0,0,1.08239X$1,22.5*%
G01*
%ADD10C,1.127000*%
%ADD11C,0.225588*%
%ADD12C,0.225369*%
%ADD13C,2.006600*%
%ADD14R,1.000000X0.450000*%
%ADD15R,0.450000X1.500000*%
%ADD16R,1.000000X1.000000*%
%ADD17C,3.429000*%
%ADD18C,0.225400*%
%ADD19C,0.428259*%
%ADD20C,1.270000*%
%ADD21C,1.627000*%


D10*
X12700Y63500D03*
X190500Y241300D03*
D11*
X249457Y104507D02*
X249457Y93493D01*
X230443Y93493D01*
X230443Y104507D01*
X249457Y104507D01*
X249457Y95636D02*
X230443Y95636D01*
X230443Y97779D02*
X249457Y97779D01*
X249457Y99922D02*
X230443Y99922D01*
X230443Y102065D02*
X249457Y102065D01*
X249457Y104208D02*
X230443Y104208D01*
X249457Y149493D02*
X249457Y160507D01*
X249457Y149493D02*
X230443Y149493D01*
X230443Y160507D01*
X249457Y160507D01*
X249457Y151636D02*
X230443Y151636D01*
X230443Y153779D02*
X249457Y153779D01*
X249457Y155922D02*
X230443Y155922D01*
X230443Y158065D02*
X249457Y158065D01*
X249457Y160208D02*
X230443Y160208D01*
D12*
X209458Y114508D02*
X209458Y109492D01*
X196942Y109492D01*
X196942Y114508D01*
X209458Y114508D01*
X209458Y111633D02*
X196942Y111633D01*
X196942Y113774D02*
X209458Y113774D01*
X209458Y119492D02*
X209458Y124508D01*
X209458Y119492D02*
X196942Y119492D01*
X196942Y124508D01*
X209458Y124508D01*
X209458Y121633D02*
X196942Y121633D01*
X196942Y123774D02*
X209458Y123774D01*
X209458Y129492D02*
X209458Y134508D01*
X209458Y129492D02*
X196942Y129492D01*
X196942Y134508D01*
X209458Y134508D01*
X209458Y131633D02*
X196942Y131633D01*
X196942Y133774D02*
X209458Y133774D01*
X209458Y139492D02*
X209458Y144508D01*
X209458Y139492D02*
X196942Y139492D01*
X196942Y144508D01*
X209458Y144508D01*
X209458Y141633D02*
X196942Y141633D01*
X196942Y143774D02*
X209458Y143774D01*
D11*
X4543Y149493D02*
X4543Y160507D01*
X23557Y160507D01*
X23557Y149493D01*
X4543Y149493D01*
X4543Y151636D02*
X23557Y151636D01*
X23557Y153779D02*
X4543Y153779D01*
X4543Y155922D02*
X23557Y155922D01*
X23557Y158065D02*
X4543Y158065D01*
X4543Y160208D02*
X23557Y160208D01*
X4543Y104507D02*
X4543Y93493D01*
X4543Y104507D02*
X23557Y104507D01*
X23557Y93493D01*
X4543Y93493D01*
X4543Y95636D02*
X23557Y95636D01*
X23557Y97779D02*
X4543Y97779D01*
X4543Y99922D02*
X23557Y99922D01*
X23557Y102065D02*
X4543Y102065D01*
X4543Y104208D02*
X23557Y104208D01*
D12*
X44542Y139492D02*
X44542Y144508D01*
X57058Y144508D01*
X57058Y139492D01*
X44542Y139492D01*
X44542Y141633D02*
X57058Y141633D01*
X57058Y143774D02*
X44542Y143774D01*
X44542Y134508D02*
X44542Y129492D01*
X44542Y134508D02*
X57058Y134508D01*
X57058Y129492D01*
X44542Y129492D01*
X44542Y131633D02*
X57058Y131633D01*
X57058Y133774D02*
X44542Y133774D01*
X44542Y124508D02*
X44542Y119492D01*
X44542Y124508D02*
X57058Y124508D01*
X57058Y119492D01*
X44542Y119492D01*
X44542Y121633D02*
X57058Y121633D01*
X57058Y123774D02*
X44542Y123774D01*
X44542Y114508D02*
X44542Y109492D01*
X44542Y114508D02*
X57058Y114508D01*
X57058Y109492D01*
X44542Y109492D01*
X44542Y111633D02*
X57058Y111633D01*
X57058Y113774D02*
X44542Y113774D01*
D13*
X63500Y12700D03*
X88900Y12700D03*
X114300Y12700D03*
X139700Y12700D03*
X165100Y12700D03*
X190500Y12700D03*
D14*
X121250Y115750D03*
X132750Y115750D03*
X121250Y138250D03*
X132750Y138250D03*
D15*
X115750Y127000D03*
X138250Y127000D03*
D16*
X127000Y127000D03*
D17*
X25400Y228600D03*
X228600Y228600D03*
X228600Y25400D03*
X25400Y25400D03*
D18*
X113492Y147892D02*
X123508Y147892D01*
X113492Y147892D02*
X113492Y156908D01*
X123508Y156908D01*
X123508Y147892D01*
X123508Y150033D02*
X113492Y150033D01*
X113492Y152174D02*
X123508Y152174D01*
X123508Y154315D02*
X113492Y154315D01*
X113492Y156456D02*
X123508Y156456D01*
X130492Y147892D02*
X140508Y147892D01*
X130492Y147892D02*
X130492Y156908D01*
X140508Y156908D01*
X140508Y147892D01*
X140508Y150033D02*
X130492Y150033D01*
X130492Y152174D02*
X140508Y152174D01*
X140508Y154315D02*
X130492Y154315D01*
X130492Y156456D02*
X140508Y156456D01*
X168592Y144208D02*
X178608Y144208D01*
X178608Y135192D01*
X168592Y135192D01*
X168592Y144208D01*
X168592Y137333D02*
X178608Y137333D01*
X178608Y139474D02*
X168592Y139474D01*
X168592Y141615D02*
X178608Y141615D01*
X178608Y143756D02*
X168592Y143756D01*
X161608Y144208D02*
X151592Y144208D01*
X161608Y144208D02*
X161608Y135192D01*
X151592Y135192D01*
X151592Y144208D01*
X151592Y137333D02*
X161608Y137333D01*
X161608Y139474D02*
X151592Y139474D01*
X151592Y141615D02*
X161608Y141615D01*
X161608Y143756D02*
X151592Y143756D01*
X102408Y144208D02*
X92392Y144208D01*
X102408Y144208D02*
X102408Y135192D01*
X92392Y135192D01*
X92392Y144208D01*
X92392Y137333D02*
X102408Y137333D01*
X102408Y139474D02*
X92392Y139474D01*
X92392Y141615D02*
X102408Y141615D01*
X102408Y143756D02*
X92392Y143756D01*
X85408Y144208D02*
X75392Y144208D01*
X85408Y144208D02*
X85408Y135192D01*
X75392Y135192D01*
X75392Y144208D01*
X75392Y137333D02*
X85408Y137333D01*
X85408Y139474D02*
X75392Y139474D01*
X75392Y141615D02*
X85408Y141615D01*
X85408Y143756D02*
X75392Y143756D01*
X92392Y118808D02*
X102408Y118808D01*
X102408Y109792D01*
X92392Y109792D01*
X92392Y118808D01*
X92392Y111933D02*
X102408Y111933D01*
X102408Y114074D02*
X92392Y114074D01*
X92392Y116215D02*
X102408Y116215D01*
X102408Y118356D02*
X92392Y118356D01*
X85408Y118808D02*
X75392Y118808D01*
X85408Y118808D02*
X85408Y109792D01*
X75392Y109792D01*
X75392Y118808D01*
X75392Y111933D02*
X85408Y111933D01*
X85408Y114074D02*
X75392Y114074D01*
X75392Y116215D02*
X85408Y116215D01*
X85408Y118356D02*
X75392Y118356D01*
X168592Y118808D02*
X178608Y118808D01*
X178608Y109792D01*
X168592Y109792D01*
X168592Y118808D01*
X168592Y111933D02*
X178608Y111933D01*
X178608Y114074D02*
X168592Y114074D01*
X168592Y116215D02*
X178608Y116215D01*
X178608Y118356D02*
X168592Y118356D01*
X161608Y118808D02*
X151592Y118808D01*
X161608Y118808D02*
X161608Y109792D01*
X151592Y109792D01*
X151592Y118808D01*
X151592Y111933D02*
X161608Y111933D01*
X161608Y114074D02*
X151592Y114074D01*
X151592Y116215D02*
X161608Y116215D01*
X161608Y118356D02*
X151592Y118356D01*
X215092Y166942D02*
X225108Y166942D01*
X215092Y166942D02*
X215092Y175958D01*
X225108Y175958D01*
X225108Y166942D01*
X225108Y169083D02*
X215092Y169083D01*
X215092Y171224D02*
X225108Y171224D01*
X225108Y173365D02*
X215092Y173365D01*
X215092Y175506D02*
X225108Y175506D01*
X232092Y166942D02*
X242108Y166942D01*
X232092Y166942D02*
X232092Y175958D01*
X242108Y175958D01*
X242108Y166942D01*
X242108Y169083D02*
X232092Y169083D01*
X232092Y171224D02*
X242108Y171224D01*
X242108Y173365D02*
X232092Y173365D01*
X232092Y175506D02*
X242108Y175506D01*
D19*
X233876Y187006D02*
X233876Y193994D01*
X240864Y193994D01*
X240864Y187006D01*
X233876Y187006D01*
X233876Y191075D02*
X240864Y191075D01*
X216336Y193994D02*
X216336Y187006D01*
X216336Y193994D02*
X223324Y193994D01*
X223324Y187006D01*
X216336Y187006D01*
X216336Y191075D02*
X223324Y191075D01*
D10*
X271780Y63500D03*
X449580Y241300D03*
D11*
X508537Y104507D02*
X508537Y93493D01*
X489523Y93493D01*
X489523Y104507D01*
X508537Y104507D01*
X508537Y95636D02*
X489523Y95636D01*
X489523Y97779D02*
X508537Y97779D01*
X508537Y99922D02*
X489523Y99922D01*
X489523Y102065D02*
X508537Y102065D01*
X508537Y104208D02*
X489523Y104208D01*
X508537Y149493D02*
X508537Y160507D01*
X508537Y149493D02*
X489523Y149493D01*
X489523Y160507D01*
X508537Y160507D01*
X508537Y151636D02*
X489523Y151636D01*
X489523Y153779D02*
X508537Y153779D01*
X508537Y155922D02*
X489523Y155922D01*
X489523Y158065D02*
X508537Y158065D01*
X508537Y160208D02*
X489523Y160208D01*
D12*
X468538Y114508D02*
X468538Y109492D01*
X456022Y109492D01*
X456022Y114508D01*
X468538Y114508D01*
X468538Y111633D02*
X456022Y111633D01*
X456022Y113774D02*
X468538Y113774D01*
X468538Y119492D02*
X468538Y124508D01*
X468538Y119492D02*
X456022Y119492D01*
X456022Y124508D01*
X468538Y124508D01*
X468538Y121633D02*
X456022Y121633D01*
X456022Y123774D02*
X468538Y123774D01*
X468538Y129492D02*
X468538Y134508D01*
X468538Y129492D02*
X456022Y129492D01*
X456022Y134508D01*
X468538Y134508D01*
X468538Y131633D02*
X456022Y131633D01*
X456022Y133774D02*
X468538Y133774D01*
X468538Y139492D02*
X468538Y144508D01*
X468538Y139492D02*
X456022Y139492D01*
X456022Y144508D01*
X468538Y144508D01*
X468538Y141633D02*
X456022Y141633D01*
X456022Y143774D02*
X468538Y143774D01*
D11*
X263623Y149493D02*
X263623Y160507D01*
X282637Y160507D01*
X282637Y149493D01*
X263623Y149493D01*
X263623Y151636D02*
X282637Y151636D01*
X282637Y153779D02*
X263623Y153779D01*
X263623Y155922D02*
X282637Y155922D01*
X282637Y158065D02*
X263623Y158065D01*
X263623Y160208D02*
X282637Y160208D01*
X263623Y104507D02*
X263623Y93493D01*
X263623Y104507D02*
X282637Y104507D01*
X282637Y93493D01*
X263623Y93493D01*
X263623Y95636D02*
X282637Y95636D01*
X282637Y97779D02*
X263623Y97779D01*
X263623Y99922D02*
X282637Y99922D01*
X282637Y102065D02*
X263623Y102065D01*
X263623Y104208D02*
X282637Y104208D01*
D12*
X303622Y139492D02*
X303622Y144508D01*
X316138Y144508D01*
X316138Y139492D01*
X303622Y139492D01*
X303622Y141633D02*
X316138Y141633D01*
X316138Y143774D02*
X303622Y143774D01*
X303622Y134508D02*
X303622Y129492D01*
X303622Y134508D02*
X316138Y134508D01*
X316138Y129492D01*
X303622Y129492D01*
X303622Y131633D02*
X316138Y131633D01*
X316138Y133774D02*
X303622Y133774D01*
X303622Y124508D02*
X303622Y119492D01*
X303622Y124508D02*
X316138Y124508D01*
X316138Y119492D01*
X303622Y119492D01*
X303622Y121633D02*
X316138Y121633D01*
X316138Y123774D02*
X303622Y123774D01*
X303622Y114508D02*
X303622Y109492D01*
X303622Y114508D02*
X316138Y114508D01*
X316138Y109492D01*
X303622Y109492D01*
X303622Y111633D02*
X316138Y111633D01*
X316138Y113774D02*
X303622Y113774D01*
D13*
X322580Y12700D03*
X347980Y12700D03*
X373380Y12700D03*
X398780Y12700D03*
X424180Y12700D03*
X449580Y12700D03*
D14*
X380330Y115750D03*
X391830Y115750D03*
X380330Y138250D03*
X391830Y138250D03*
D15*
X374830Y127000D03*
X397330Y127000D03*
D16*
X386080Y127000D03*
D17*
X284480Y228600D03*
X487680Y228600D03*
X487680Y25400D03*
X284480Y25400D03*
D18*
X372572Y147892D02*
X382588Y147892D01*
X372572Y147892D02*
X372572Y156908D01*
X382588Y156908D01*
X382588Y147892D01*
X382588Y150033D02*
X372572Y150033D01*
X372572Y152174D02*
X382588Y152174D01*
X382588Y154315D02*
X372572Y154315D01*
X372572Y156456D02*
X382588Y156456D01*
X389572Y147892D02*
X399588Y147892D01*
X389572Y147892D02*
X389572Y156908D01*
X399588Y156908D01*
X399588Y147892D01*
X399588Y150033D02*
X389572Y150033D01*
X389572Y152174D02*
X399588Y152174D01*
X399588Y154315D02*
X389572Y154315D01*
X389572Y156456D02*
X399588Y156456D01*
X427672Y144208D02*
X437688Y144208D01*
X437688Y135192D01*
X427672Y135192D01*
X427672Y144208D01*
X427672Y137333D02*
X437688Y137333D01*
X437688Y139474D02*
X427672Y139474D01*
X427672Y141615D02*
X437688Y141615D01*
X437688Y143756D02*
X427672Y143756D01*
X420688Y144208D02*
X410672Y144208D01*
X420688Y144208D02*
X420688Y135192D01*
X410672Y135192D01*
X410672Y144208D01*
X410672Y137333D02*
X420688Y137333D01*
X420688Y139474D02*
X410672Y139474D01*
X410672Y141615D02*
X420688Y141615D01*
X420688Y143756D02*
X410672Y143756D01*
X361488Y144208D02*
X351472Y144208D01*
X361488Y144208D02*
X361488Y135192D01*
X351472Y135192D01*
X351472Y144208D01*
X351472Y137333D02*
X361488Y137333D01*
X361488Y139474D02*
X351472Y139474D01*
X351472Y141615D02*
X361488Y141615D01*
X361488Y143756D02*
X351472Y143756D01*
X344488Y144208D02*
X334472Y144208D01*
X344488Y144208D02*
X344488Y135192D01*
X334472Y135192D01*
X334472Y144208D01*
X334472Y137333D02*
X344488Y137333D01*
X344488Y139474D02*
X334472Y139474D01*
X334472Y141615D02*
X344488Y141615D01*
X344488Y143756D02*
X334472Y143756D01*
X351472Y118808D02*
X361488Y118808D01*
X361488Y109792D01*
X351472Y109792D01*
X351472Y118808D01*
X351472Y111933D02*
X361488Y111933D01*
X361488Y114074D02*
X351472Y114074D01*
X351472Y116215D02*
X361488Y116215D01*
X361488Y118356D02*
X351472Y118356D01*
X344488Y118808D02*
X334472Y118808D01*
X344488Y118808D02*
X344488Y109792D01*
X334472Y109792D01*
X334472Y118808D01*
X334472Y111933D02*
X344488Y111933D01*
X344488Y114074D02*
X334472Y114074D01*
X334472Y116215D02*
X344488Y116215D01*
X344488Y118356D02*
X334472Y118356D01*
X427672Y118808D02*
X437688Y118808D01*
X437688Y109792D01*
X427672Y109792D01*
X427672Y118808D01*
X427672Y111933D02*
X437688Y111933D01*
X437688Y114074D02*
X427672Y114074D01*
X427672Y116215D02*
X437688Y116215D01*
X437688Y118356D02*
X427672Y118356D01*
X420688Y118808D02*
X410672Y118808D01*
X420688Y118808D02*
X420688Y109792D01*
X410672Y109792D01*
X410672Y118808D01*
X410672Y111933D02*
X420688Y111933D01*
X420688Y114074D02*
X410672Y114074D01*
X410672Y116215D02*
X420688Y116215D01*
X420688Y118356D02*
X410672Y118356D01*
X474172Y166942D02*
X484188Y166942D01*
X474172Y166942D02*
X474172Y175958D01*
X484188Y175958D01*
X484188Y166942D01*
X484188Y169083D02*
X474172Y169083D01*
X474172Y171224D02*
X484188Y171224D01*
X484188Y173365D02*
X474172Y173365D01*
X474172Y175506D02*
X484188Y175506D01*
X491172Y166942D02*
X501188Y166942D01*
X491172Y166942D02*
X491172Y175958D01*
X501188Y175958D01*
X501188Y166942D01*
X501188Y169083D02*
X491172Y169083D01*
X491172Y171224D02*
X501188Y171224D01*
X501188Y173365D02*
X491172Y173365D01*
X491172Y175506D02*
X501188Y175506D01*
D19*
X492956Y187006D02*
X492956Y193994D01*
X499944Y193994D01*
X499944Y187006D01*
X492956Y187006D01*
X492956Y191075D02*
X499944Y191075D01*
X475416Y193994D02*
X475416Y187006D01*
X475416Y193994D02*
X482404Y193994D01*
X482404Y187006D01*
X475416Y187006D01*
X475416Y191075D02*
X482404Y191075D01*
D10*
X530860Y63500D03*
X708660Y241300D03*
D11*
X767617Y104507D02*
X767617Y93493D01*
X748603Y93493D01*
X748603Y104507D01*
X767617Y104507D01*
X767617Y95636D02*
X748603Y95636D01*
X748603Y97779D02*
X767617Y97779D01*
X767617Y99922D02*
X748603Y99922D01*
X748603Y102065D02*
X767617Y102065D01*
X767617Y104208D02*
X748603Y104208D01*
X767617Y149493D02*
X767617Y160507D01*
X767617Y149493D02*
X748603Y149493D01*
X748603Y160507D01*
X767617Y160507D01*
X767617Y151636D02*
X748603Y151636D01*
X748603Y153779D02*
X767617Y153779D01*
X767617Y155922D02*
X748603Y155922D01*
X748603Y158065D02*
X767617Y158065D01*
X767617Y160208D02*
X748603Y160208D01*
D12*
X727618Y114508D02*
X727618Y109492D01*
X715102Y109492D01*
X715102Y114508D01*
X727618Y114508D01*
X727618Y111633D02*
X715102Y111633D01*
X715102Y113774D02*
X727618Y113774D01*
X727618Y119492D02*
X727618Y124508D01*
X727618Y119492D02*
X715102Y119492D01*
X715102Y124508D01*
X727618Y124508D01*
X727618Y121633D02*
X715102Y121633D01*
X715102Y123774D02*
X727618Y123774D01*
X727618Y129492D02*
X727618Y134508D01*
X727618Y129492D02*
X715102Y129492D01*
X715102Y134508D01*
X727618Y134508D01*
X727618Y131633D02*
X715102Y131633D01*
X715102Y133774D02*
X727618Y133774D01*
X727618Y139492D02*
X727618Y144508D01*
X727618Y139492D02*
X715102Y139492D01*
X715102Y144508D01*
X727618Y144508D01*
X727618Y141633D02*
X715102Y141633D01*
X715102Y143774D02*
X727618Y143774D01*
D11*
X522703Y149493D02*
X522703Y160507D01*
X541717Y160507D01*
X541717Y149493D01*
X522703Y149493D01*
X522703Y151636D02*
X541717Y151636D01*
X541717Y153779D02*
X522703Y153779D01*
X522703Y155922D02*
X541717Y155922D01*
X541717Y158065D02*
X522703Y158065D01*
X522703Y160208D02*
X541717Y160208D01*
X522703Y104507D02*
X522703Y93493D01*
X522703Y104507D02*
X541717Y104507D01*
X541717Y93493D01*
X522703Y93493D01*
X522703Y95636D02*
X541717Y95636D01*
X541717Y97779D02*
X522703Y97779D01*
X522703Y99922D02*
X541717Y99922D01*
X541717Y102065D02*
X522703Y102065D01*
X522703Y104208D02*
X541717Y104208D01*
D12*
X562702Y139492D02*
X562702Y144508D01*
X575218Y144508D01*
X575218Y139492D01*
X562702Y139492D01*
X562702Y141633D02*
X575218Y141633D01*
X575218Y143774D02*
X562702Y143774D01*
X562702Y134508D02*
X562702Y129492D01*
X562702Y134508D02*
X575218Y134508D01*
X575218Y129492D01*
X562702Y129492D01*
X562702Y131633D02*
X575218Y131633D01*
X575218Y133774D02*
X562702Y133774D01*
X562702Y124508D02*
X562702Y119492D01*
X562702Y124508D02*
X575218Y124508D01*
X575218Y119492D01*
X562702Y119492D01*
X562702Y121633D02*
X575218Y121633D01*
X575218Y123774D02*
X562702Y123774D01*
X562702Y114508D02*
X562702Y109492D01*
X562702Y114508D02*
X575218Y114508D01*
X575218Y109492D01*
X562702Y109492D01*
X562702Y111633D02*
X575218Y111633D01*
X575218Y113774D02*
X562702Y113774D01*
D13*
X581660Y12700D03*
X607060Y12700D03*
X632460Y12700D03*
X657860Y12700D03*
X683260Y12700D03*
X708660Y12700D03*
D14*
X639410Y115750D03*
X650910Y115750D03*
X639410Y138250D03*
X650910Y138250D03*
D15*
X633910Y127000D03*
X656410Y127000D03*
D16*
X645160Y127000D03*
D17*
X543560Y228600D03*
X746760Y228600D03*
X746760Y25400D03*
X543560Y25400D03*
D18*
X631652Y147892D02*
X641668Y147892D01*
X631652Y147892D02*
X631652Y156908D01*
X641668Y156908D01*
X641668Y147892D01*
X641668Y150033D02*
X631652Y150033D01*
X631652Y152174D02*
X641668Y152174D01*
X641668Y154315D02*
X631652Y154315D01*
X631652Y156456D02*
X641668Y156456D01*
X648652Y147892D02*
X658668Y147892D01*
X648652Y147892D02*
X648652Y156908D01*
X658668Y156908D01*
X658668Y147892D01*
X658668Y150033D02*
X648652Y150033D01*
X648652Y152174D02*
X658668Y152174D01*
X658668Y154315D02*
X648652Y154315D01*
X648652Y156456D02*
X658668Y156456D01*
X686752Y144208D02*
X696768Y144208D01*
X696768Y135192D01*
X686752Y135192D01*
X686752Y144208D01*
X686752Y137333D02*
X696768Y137333D01*
X696768Y139474D02*
X686752Y139474D01*
X686752Y141615D02*
X696768Y141615D01*
X696768Y143756D02*
X686752Y143756D01*
X679768Y144208D02*
X669752Y144208D01*
X679768Y144208D02*
X679768Y135192D01*
X669752Y135192D01*
X669752Y144208D01*
X669752Y137333D02*
X679768Y137333D01*
X679768Y139474D02*
X669752Y139474D01*
X669752Y141615D02*
X679768Y141615D01*
X679768Y143756D02*
X669752Y143756D01*
X620568Y144208D02*
X610552Y144208D01*
X620568Y144208D02*
X620568Y135192D01*
X610552Y135192D01*
X610552Y144208D01*
X610552Y137333D02*
X620568Y137333D01*
X620568Y139474D02*
X610552Y139474D01*
X610552Y141615D02*
X620568Y141615D01*
X620568Y143756D02*
X610552Y143756D01*
X603568Y144208D02*
X593552Y144208D01*
X603568Y144208D02*
X603568Y135192D01*
X593552Y135192D01*
X593552Y144208D01*
X593552Y137333D02*
X603568Y137333D01*
X603568Y139474D02*
X593552Y139474D01*
X593552Y141615D02*
X603568Y141615D01*
X603568Y143756D02*
X593552Y143756D01*
X610552Y118808D02*
X620568Y118808D01*
X620568Y109792D01*
X610552Y109792D01*
X610552Y118808D01*
X610552Y111933D02*
X620568Y111933D01*
X620568Y114074D02*
X610552Y114074D01*
X610552Y116215D02*
X620568Y116215D01*
X620568Y118356D02*
X610552Y118356D01*
X603568Y118808D02*
X593552Y118808D01*
X603568Y118808D02*
X603568Y109792D01*
X593552Y109792D01*
X593552Y118808D01*
X593552Y111933D02*
X603568Y111933D01*
X603568Y114074D02*
X593552Y114074D01*
X593552Y116215D02*
X603568Y116215D01*
X603568Y118356D02*
X593552Y118356D01*
X686752Y118808D02*
X696768Y118808D01*
X696768Y109792D01*
X686752Y109792D01*
X686752Y118808D01*
X686752Y111933D02*
X696768Y111933D01*
X696768Y114074D02*
X686752Y114074D01*
X686752Y116215D02*
X696768Y116215D01*
X696768Y118356D02*
X686752Y118356D01*
X679768Y118808D02*
X669752Y118808D01*
X679768Y118808D02*
X679768Y109792D01*
X669752Y109792D01*
X669752Y118808D01*
X669752Y111933D02*
X679768Y111933D01*
X679768Y114074D02*
X669752Y114074D01*
X669752Y116215D02*
X679768Y116215D01*
X679768Y118356D02*
X669752Y118356D01*
X733252Y166942D02*
X743268Y166942D01*
X733252Y166942D02*
X733252Y175958D01*
X743268Y175958D01*
X743268Y166942D01*
X743268Y169083D02*
X733252Y169083D01*
X733252Y171224D02*
X743268Y171224D01*
X743268Y173365D02*
X733252Y173365D01*
X733252Y175506D02*
X743268Y175506D01*
X750252Y166942D02*
X760268Y166942D01*
X750252Y166942D02*
X750252Y175958D01*
X760268Y175958D01*
X760268Y166942D01*
X760268Y169083D02*
X750252Y169083D01*
X750252Y171224D02*
X760268Y171224D01*
X760268Y173365D02*
X750252Y173365D01*
X750252Y175506D02*
X760268Y175506D01*
D19*
X752036Y187006D02*
X752036Y193994D01*
X759024Y193994D01*
X759024Y187006D01*
X752036Y187006D01*
X752036Y191075D02*
X759024Y191075D01*
X734496Y193994D02*
X734496Y187006D01*
X734496Y193994D02*
X741484Y193994D01*
X741484Y187006D01*
X734496Y187006D01*
X734496Y191075D02*
X741484Y191075D01*
D10*
X789940Y63500D03*
X967740Y241300D03*
D11*
X1026697Y104507D02*
X1026697Y93493D01*
X1007683Y93493D01*
X1007683Y104507D01*
X1026697Y104507D01*
X1026697Y95636D02*
X1007683Y95636D01*
X1007683Y97779D02*
X1026697Y97779D01*
X1026697Y99922D02*
X1007683Y99922D01*
X1007683Y102065D02*
X1026697Y102065D01*
X1026697Y104208D02*
X1007683Y104208D01*
X1026697Y149493D02*
X1026697Y160507D01*
X1026697Y149493D02*
X1007683Y149493D01*
X1007683Y160507D01*
X1026697Y160507D01*
X1026697Y151636D02*
X1007683Y151636D01*
X1007683Y153779D02*
X1026697Y153779D01*
X1026697Y155922D02*
X1007683Y155922D01*
X1007683Y158065D02*
X1026697Y158065D01*
X1026697Y160208D02*
X1007683Y160208D01*
D12*
X986698Y114508D02*
X986698Y109492D01*
X974182Y109492D01*
X974182Y114508D01*
X986698Y114508D01*
X986698Y111633D02*
X974182Y111633D01*
X974182Y113774D02*
X986698Y113774D01*
X986698Y119492D02*
X986698Y124508D01*
X986698Y119492D02*
X974182Y119492D01*
X974182Y124508D01*
X986698Y124508D01*
X986698Y121633D02*
X974182Y121633D01*
X974182Y123774D02*
X986698Y123774D01*
X986698Y129492D02*
X986698Y134508D01*
X986698Y129492D02*
X974182Y129492D01*
X974182Y134508D01*
X986698Y134508D01*
X986698Y131633D02*
X974182Y131633D01*
X974182Y133774D02*
X986698Y133774D01*
X986698Y139492D02*
X986698Y144508D01*
X986698Y139492D02*
X974182Y139492D01*
X974182Y144508D01*
X986698Y144508D01*
X986698Y141633D02*
X974182Y141633D01*
X974182Y143774D02*
X986698Y143774D01*
D11*
X781783Y149493D02*
X781783Y160507D01*
X800797Y160507D01*
X800797Y149493D01*
X781783Y149493D01*
X781783Y151636D02*
X800797Y151636D01*
X800797Y153779D02*
X781783Y153779D01*
X781783Y155922D02*
X800797Y155922D01*
X800797Y158065D02*
X781783Y158065D01*
X781783Y160208D02*
X800797Y160208D01*
X781783Y104507D02*
X781783Y93493D01*
X781783Y104507D02*
X800797Y104507D01*
X800797Y93493D01*
X781783Y93493D01*
X781783Y95636D02*
X800797Y95636D01*
X800797Y97779D02*
X781783Y97779D01*
X781783Y99922D02*
X800797Y99922D01*
X800797Y102065D02*
X781783Y102065D01*
X781783Y104208D02*
X800797Y104208D01*
D12*
X821782Y139492D02*
X821782Y144508D01*
X834298Y144508D01*
X834298Y139492D01*
X821782Y139492D01*
X821782Y141633D02*
X834298Y141633D01*
X834298Y143774D02*
X821782Y143774D01*
X821782Y134508D02*
X821782Y129492D01*
X821782Y134508D02*
X834298Y134508D01*
X834298Y129492D01*
X821782Y129492D01*
X821782Y131633D02*
X834298Y131633D01*
X834298Y133774D02*
X821782Y133774D01*
X821782Y124508D02*
X821782Y119492D01*
X821782Y124508D02*
X834298Y124508D01*
X834298Y119492D01*
X821782Y119492D01*
X821782Y121633D02*
X834298Y121633D01*
X834298Y123774D02*
X821782Y123774D01*
X821782Y114508D02*
X821782Y109492D01*
X821782Y114508D02*
X834298Y114508D01*
X834298Y109492D01*
X821782Y109492D01*
X821782Y111633D02*
X834298Y111633D01*
X834298Y113774D02*
X821782Y113774D01*
D13*
X840740Y12700D03*
X866140Y12700D03*
X891540Y12700D03*
X916940Y12700D03*
X942340Y12700D03*
X967740Y12700D03*
D14*
X898490Y115750D03*
X909990Y115750D03*
X898490Y138250D03*
X909990Y138250D03*
D15*
X892990Y127000D03*
X915490Y127000D03*
D16*
X904240Y127000D03*
D17*
X802640Y228600D03*
X1005840Y228600D03*
X1005840Y25400D03*
X802640Y25400D03*
D18*
X890732Y147892D02*
X900748Y147892D01*
X890732Y147892D02*
X890732Y156908D01*
X900748Y156908D01*
X900748Y147892D01*
X900748Y150033D02*
X890732Y150033D01*
X890732Y152174D02*
X900748Y152174D01*
X900748Y154315D02*
X890732Y154315D01*
X890732Y156456D02*
X900748Y156456D01*
X907732Y147892D02*
X917748Y147892D01*
X907732Y147892D02*
X907732Y156908D01*
X917748Y156908D01*
X917748Y147892D01*
X917748Y150033D02*
X907732Y150033D01*
X907732Y152174D02*
X917748Y152174D01*
X917748Y154315D02*
X907732Y154315D01*
X907732Y156456D02*
X917748Y156456D01*
X945832Y144208D02*
X955848Y144208D01*
X955848Y135192D01*
X945832Y135192D01*
X945832Y144208D01*
X945832Y137333D02*
X955848Y137333D01*
X955848Y139474D02*
X945832Y139474D01*
X945832Y141615D02*
X955848Y141615D01*
X955848Y143756D02*
X945832Y143756D01*
X938848Y144208D02*
X928832Y144208D01*
X938848Y144208D02*
X938848Y135192D01*
X928832Y135192D01*
X928832Y144208D01*
X928832Y137333D02*
X938848Y137333D01*
X938848Y139474D02*
X928832Y139474D01*
X928832Y141615D02*
X938848Y141615D01*
X938848Y143756D02*
X928832Y143756D01*
X879648Y144208D02*
X869632Y144208D01*
X879648Y144208D02*
X879648Y135192D01*
X869632Y135192D01*
X869632Y144208D01*
X869632Y137333D02*
X879648Y137333D01*
X879648Y139474D02*
X869632Y139474D01*
X869632Y141615D02*
X879648Y141615D01*
X879648Y143756D02*
X869632Y143756D01*
X862648Y144208D02*
X852632Y144208D01*
X862648Y144208D02*
X862648Y135192D01*
X852632Y135192D01*
X852632Y144208D01*
X852632Y137333D02*
X862648Y137333D01*
X862648Y139474D02*
X852632Y139474D01*
X852632Y141615D02*
X862648Y141615D01*
X862648Y143756D02*
X852632Y143756D01*
X869632Y118808D02*
X879648Y118808D01*
X879648Y109792D01*
X869632Y109792D01*
X869632Y118808D01*
X869632Y111933D02*
X879648Y111933D01*
X879648Y114074D02*
X869632Y114074D01*
X869632Y116215D02*
X879648Y116215D01*
X879648Y118356D02*
X869632Y118356D01*
X862648Y118808D02*
X852632Y118808D01*
X862648Y118808D02*
X862648Y109792D01*
X852632Y109792D01*
X852632Y118808D01*
X852632Y111933D02*
X862648Y111933D01*
X862648Y114074D02*
X852632Y114074D01*
X852632Y116215D02*
X862648Y116215D01*
X862648Y118356D02*
X852632Y118356D01*
X945832Y118808D02*
X955848Y118808D01*
X955848Y109792D01*
X945832Y109792D01*
X945832Y118808D01*
X945832Y111933D02*
X955848Y111933D01*
X955848Y114074D02*
X945832Y114074D01*
X945832Y116215D02*
X955848Y116215D01*
X955848Y118356D02*
X945832Y118356D01*
X938848Y118808D02*
X928832Y118808D01*
X938848Y118808D02*
X938848Y109792D01*
X928832Y109792D01*
X928832Y118808D01*
X928832Y111933D02*
X938848Y111933D01*
X938848Y114074D02*
X928832Y114074D01*
X928832Y116215D02*
X938848Y116215D01*
X938848Y118356D02*
X928832Y118356D01*
X992332Y166942D02*
X1002348Y166942D01*
X992332Y166942D02*
X992332Y175958D01*
X1002348Y175958D01*
X1002348Y166942D01*
X1002348Y169083D02*
X992332Y169083D01*
X992332Y171224D02*
X1002348Y171224D01*
X1002348Y173365D02*
X992332Y173365D01*
X992332Y175506D02*
X1002348Y175506D01*
X1009332Y166942D02*
X1019348Y166942D01*
X1009332Y166942D02*
X1009332Y175958D01*
X1019348Y175958D01*
X1019348Y166942D01*
X1019348Y169083D02*
X1009332Y169083D01*
X1009332Y171224D02*
X1019348Y171224D01*
X1019348Y173365D02*
X1009332Y173365D01*
X1009332Y175506D02*
X1019348Y175506D01*
D19*
X1011116Y187006D02*
X1011116Y193994D01*
X1018104Y193994D01*
X1018104Y187006D01*
X1011116Y187006D01*
X1011116Y191075D02*
X1018104Y191075D01*
X993576Y193994D02*
X993576Y187006D01*
X993576Y193994D02*
X1000564Y193994D01*
X1000564Y187006D01*
X993576Y187006D01*
X993576Y191075D02*
X1000564Y191075D01*
D10*
X1049020Y63500D03*
X1226820Y241300D03*
D11*
X1285777Y104507D02*
X1285777Y93493D01*
X1266763Y93493D01*
X1266763Y104507D01*
X1285777Y104507D01*
X1285777Y95636D02*
X1266763Y95636D01*
X1266763Y97779D02*
X1285777Y97779D01*
X1285777Y99922D02*
X1266763Y99922D01*
X1266763Y102065D02*
X1285777Y102065D01*
X1285777Y104208D02*
X1266763Y104208D01*
X1285777Y149493D02*
X1285777Y160507D01*
X1285777Y149493D02*
X1266763Y149493D01*
X1266763Y160507D01*
X1285777Y160507D01*
X1285777Y151636D02*
X1266763Y151636D01*
X1266763Y153779D02*
X1285777Y153779D01*
X1285777Y155922D02*
X1266763Y155922D01*
X1266763Y158065D02*
X1285777Y158065D01*
X1285777Y160208D02*
X1266763Y160208D01*
D12*
X1245778Y114508D02*
X1245778Y109492D01*
X1233262Y109492D01*
X1233262Y114508D01*
X1245778Y114508D01*
X1245778Y111633D02*
X1233262Y111633D01*
X1233262Y113774D02*
X1245778Y113774D01*
X1245778Y119492D02*
X1245778Y124508D01*
X1245778Y119492D02*
X1233262Y119492D01*
X1233262Y124508D01*
X1245778Y124508D01*
X1245778Y121633D02*
X1233262Y121633D01*
X1233262Y123774D02*
X1245778Y123774D01*
X1245778Y129492D02*
X1245778Y134508D01*
X1245778Y129492D02*
X1233262Y129492D01*
X1233262Y134508D01*
X1245778Y134508D01*
X1245778Y131633D02*
X1233262Y131633D01*
X1233262Y133774D02*
X1245778Y133774D01*
X1245778Y139492D02*
X1245778Y144508D01*
X1245778Y139492D02*
X1233262Y139492D01*
X1233262Y144508D01*
X1245778Y144508D01*
X1245778Y141633D02*
X1233262Y141633D01*
X1233262Y143774D02*
X1245778Y143774D01*
D11*
X1040863Y149493D02*
X1040863Y160507D01*
X1059877Y160507D01*
X1059877Y149493D01*
X1040863Y149493D01*
X1040863Y151636D02*
X1059877Y151636D01*
X1059877Y153779D02*
X1040863Y153779D01*
X1040863Y155922D02*
X1059877Y155922D01*
X1059877Y158065D02*
X1040863Y158065D01*
X1040863Y160208D02*
X1059877Y160208D01*
X1040863Y104507D02*
X1040863Y93493D01*
X1040863Y104507D02*
X1059877Y104507D01*
X1059877Y93493D01*
X1040863Y93493D01*
X1040863Y95636D02*
X1059877Y95636D01*
X1059877Y97779D02*
X1040863Y97779D01*
X1040863Y99922D02*
X1059877Y99922D01*
X1059877Y102065D02*
X1040863Y102065D01*
X1040863Y104208D02*
X1059877Y104208D01*
D12*
X1080862Y139492D02*
X1080862Y144508D01*
X1093378Y144508D01*
X1093378Y139492D01*
X1080862Y139492D01*
X1080862Y141633D02*
X1093378Y141633D01*
X1093378Y143774D02*
X1080862Y143774D01*
X1080862Y134508D02*
X1080862Y129492D01*
X1080862Y134508D02*
X1093378Y134508D01*
X1093378Y129492D01*
X1080862Y129492D01*
X1080862Y131633D02*
X1093378Y131633D01*
X1093378Y133774D02*
X1080862Y133774D01*
X1080862Y124508D02*
X1080862Y119492D01*
X1080862Y124508D02*
X1093378Y124508D01*
X1093378Y119492D01*
X1080862Y119492D01*
X1080862Y121633D02*
X1093378Y121633D01*
X1093378Y123774D02*
X1080862Y123774D01*
X1080862Y114508D02*
X1080862Y109492D01*
X1080862Y114508D02*
X1093378Y114508D01*
X1093378Y109492D01*
X1080862Y109492D01*
X1080862Y111633D02*
X1093378Y111633D01*
X1093378Y113774D02*
X1080862Y113774D01*
D13*
X1099820Y12700D03*
X1125220Y12700D03*
X1150620Y12700D03*
X1176020Y12700D03*
X1201420Y12700D03*
X1226820Y12700D03*
D14*
X1157570Y115750D03*
X1169070Y115750D03*
X1157570Y138250D03*
X1169070Y138250D03*
D15*
X1152070Y127000D03*
X1174570Y127000D03*
D16*
X1163320Y127000D03*
D17*
X1061720Y228600D03*
X1264920Y228600D03*
X1264920Y25400D03*
X1061720Y25400D03*
D18*
X1149812Y147892D02*
X1159828Y147892D01*
X1149812Y147892D02*
X1149812Y156908D01*
X1159828Y156908D01*
X1159828Y147892D01*
X1159828Y150033D02*
X1149812Y150033D01*
X1149812Y152174D02*
X1159828Y152174D01*
X1159828Y154315D02*
X1149812Y154315D01*
X1149812Y156456D02*
X1159828Y156456D01*
X1166812Y147892D02*
X1176828Y147892D01*
X1166812Y147892D02*
X1166812Y156908D01*
X1176828Y156908D01*
X1176828Y147892D01*
X1176828Y150033D02*
X1166812Y150033D01*
X1166812Y152174D02*
X1176828Y152174D01*
X1176828Y154315D02*
X1166812Y154315D01*
X1166812Y156456D02*
X1176828Y156456D01*
X1204912Y144208D02*
X1214928Y144208D01*
X1214928Y135192D01*
X1204912Y135192D01*
X1204912Y144208D01*
X1204912Y137333D02*
X1214928Y137333D01*
X1214928Y139474D02*
X1204912Y139474D01*
X1204912Y141615D02*
X1214928Y141615D01*
X1214928Y143756D02*
X1204912Y143756D01*
X1197928Y144208D02*
X1187912Y144208D01*
X1197928Y144208D02*
X1197928Y135192D01*
X1187912Y135192D01*
X1187912Y144208D01*
X1187912Y137333D02*
X1197928Y137333D01*
X1197928Y139474D02*
X1187912Y139474D01*
X1187912Y141615D02*
X1197928Y141615D01*
X1197928Y143756D02*
X1187912Y143756D01*
X1138728Y144208D02*
X1128712Y144208D01*
X1138728Y144208D02*
X1138728Y135192D01*
X1128712Y135192D01*
X1128712Y144208D01*
X1128712Y137333D02*
X1138728Y137333D01*
X1138728Y139474D02*
X1128712Y139474D01*
X1128712Y141615D02*
X1138728Y141615D01*
X1138728Y143756D02*
X1128712Y143756D01*
X1121728Y144208D02*
X1111712Y144208D01*
X1121728Y144208D02*
X1121728Y135192D01*
X1111712Y135192D01*
X1111712Y144208D01*
X1111712Y137333D02*
X1121728Y137333D01*
X1121728Y139474D02*
X1111712Y139474D01*
X1111712Y141615D02*
X1121728Y141615D01*
X1121728Y143756D02*
X1111712Y143756D01*
X1128712Y118808D02*
X1138728Y118808D01*
X1138728Y109792D01*
X1128712Y109792D01*
X1128712Y118808D01*
X1128712Y111933D02*
X1138728Y111933D01*
X1138728Y114074D02*
X1128712Y114074D01*
X1128712Y116215D02*
X1138728Y116215D01*
X1138728Y118356D02*
X1128712Y118356D01*
X1121728Y118808D02*
X1111712Y118808D01*
X1121728Y118808D02*
X1121728Y109792D01*
X1111712Y109792D01*
X1111712Y118808D01*
X1111712Y111933D02*
X1121728Y111933D01*
X1121728Y114074D02*
X1111712Y114074D01*
X1111712Y116215D02*
X1121728Y116215D01*
X1121728Y118356D02*
X1111712Y118356D01*
X1204912Y118808D02*
X1214928Y118808D01*
X1214928Y109792D01*
X1204912Y109792D01*
X1204912Y118808D01*
X1204912Y111933D02*
X1214928Y111933D01*
X1214928Y114074D02*
X1204912Y114074D01*
X1204912Y116215D02*
X1214928Y116215D01*
X1214928Y118356D02*
X1204912Y118356D01*
X1197928Y118808D02*
X1187912Y118808D01*
X1197928Y118808D02*
X1197928Y109792D01*
X1187912Y109792D01*
X1187912Y118808D01*
X1187912Y111933D02*
X1197928Y111933D01*
X1197928Y114074D02*
X1187912Y114074D01*
X1187912Y116215D02*
X1197928Y116215D01*
X1197928Y118356D02*
X1187912Y118356D01*
X1251412Y166942D02*
X1261428Y166942D01*
X1251412Y166942D02*
X1251412Y175958D01*
X1261428Y175958D01*
X1261428Y166942D01*
X1261428Y169083D02*
X1251412Y169083D01*
X1251412Y171224D02*
X1261428Y171224D01*
X1261428Y173365D02*
X1251412Y173365D01*
X1251412Y175506D02*
X1261428Y175506D01*
X1268412Y166942D02*
X1278428Y166942D01*
X1268412Y166942D02*
X1268412Y175958D01*
X1278428Y175958D01*
X1278428Y166942D01*
X1278428Y169083D02*
X1268412Y169083D01*
X1268412Y171224D02*
X1278428Y171224D01*
X1278428Y173365D02*
X1268412Y173365D01*
X1268412Y175506D02*
X1278428Y175506D01*
D19*
X1270196Y187006D02*
X1270196Y193994D01*
X1277184Y193994D01*
X1277184Y187006D01*
X1270196Y187006D01*
X1270196Y191075D02*
X1277184Y191075D01*
X1252656Y193994D02*
X1252656Y187006D01*
X1252656Y193994D02*
X1259644Y193994D01*
X1259644Y187006D01*
X1252656Y187006D01*
X1252656Y191075D02*
X1259644Y191075D01*
D10*
X1308100Y63500D03*
X1485900Y241300D03*
D11*
X1544857Y104507D02*
X1544857Y93493D01*
X1525843Y93493D01*
X1525843Y104507D01*
X1544857Y104507D01*
X1544857Y95636D02*
X1525843Y95636D01*
X1525843Y97779D02*
X1544857Y97779D01*
X1544857Y99922D02*
X1525843Y99922D01*
X1525843Y102065D02*
X1544857Y102065D01*
X1544857Y104208D02*
X1525843Y104208D01*
X1544857Y149493D02*
X1544857Y160507D01*
X1544857Y149493D02*
X1525843Y149493D01*
X1525843Y160507D01*
X1544857Y160507D01*
X1544857Y151636D02*
X1525843Y151636D01*
X1525843Y153779D02*
X1544857Y153779D01*
X1544857Y155922D02*
X1525843Y155922D01*
X1525843Y158065D02*
X1544857Y158065D01*
X1544857Y160208D02*
X1525843Y160208D01*
D12*
X1504858Y114508D02*
X1504858Y109492D01*
X1492342Y109492D01*
X1492342Y114508D01*
X1504858Y114508D01*
X1504858Y111633D02*
X1492342Y111633D01*
X1492342Y113774D02*
X1504858Y113774D01*
X1504858Y119492D02*
X1504858Y124508D01*
X1504858Y119492D02*
X1492342Y119492D01*
X1492342Y124508D01*
X1504858Y124508D01*
X1504858Y121633D02*
X1492342Y121633D01*
X1492342Y123774D02*
X1504858Y123774D01*
X1504858Y129492D02*
X1504858Y134508D01*
X1504858Y129492D02*
X1492342Y129492D01*
X1492342Y134508D01*
X1504858Y134508D01*
X1504858Y131633D02*
X1492342Y131633D01*
X1492342Y133774D02*
X1504858Y133774D01*
X1504858Y139492D02*
X1504858Y144508D01*
X1504858Y139492D02*
X1492342Y139492D01*
X1492342Y144508D01*
X1504858Y144508D01*
X1504858Y141633D02*
X1492342Y141633D01*
X1492342Y143774D02*
X1504858Y143774D01*
D11*
X1299943Y149493D02*
X1299943Y160507D01*
X1318957Y160507D01*
X1318957Y149493D01*
X1299943Y149493D01*
X1299943Y151636D02*
X1318957Y151636D01*
X1318957Y153779D02*
X1299943Y153779D01*
X1299943Y155922D02*
X1318957Y155922D01*
X1318957Y158065D02*
X1299943Y158065D01*
X1299943Y160208D02*
X1318957Y160208D01*
X1299943Y104507D02*
X1299943Y93493D01*
X1299943Y104507D02*
X1318957Y104507D01*
X1318957Y93493D01*
X1299943Y93493D01*
X1299943Y95636D02*
X1318957Y95636D01*
X1318957Y97779D02*
X1299943Y97779D01*
X1299943Y99922D02*
X1318957Y99922D01*
X1318957Y102065D02*
X1299943Y102065D01*
X1299943Y104208D02*
X1318957Y104208D01*
D12*
X1339942Y139492D02*
X1339942Y144508D01*
X1352458Y144508D01*
X1352458Y139492D01*
X1339942Y139492D01*
X1339942Y141633D02*
X1352458Y141633D01*
X1352458Y143774D02*
X1339942Y143774D01*
X1339942Y134508D02*
X1339942Y129492D01*
X1339942Y134508D02*
X1352458Y134508D01*
X1352458Y129492D01*
X1339942Y129492D01*
X1339942Y131633D02*
X1352458Y131633D01*
X1352458Y133774D02*
X1339942Y133774D01*
X1339942Y124508D02*
X1339942Y119492D01*
X1339942Y124508D02*
X1352458Y124508D01*
X1352458Y119492D01*
X1339942Y119492D01*
X1339942Y121633D02*
X1352458Y121633D01*
X1352458Y123774D02*
X1339942Y123774D01*
X1339942Y114508D02*
X1339942Y109492D01*
X1339942Y114508D02*
X1352458Y114508D01*
X1352458Y109492D01*
X1339942Y109492D01*
X1339942Y111633D02*
X1352458Y111633D01*
X1352458Y113774D02*
X1339942Y113774D01*
D13*
X1358900Y12700D03*
X1384300Y12700D03*
X1409700Y12700D03*
X1435100Y12700D03*
X1460500Y12700D03*
X1485900Y12700D03*
D14*
X1416650Y115750D03*
X1428150Y115750D03*
X1416650Y138250D03*
X1428150Y138250D03*
D15*
X1411150Y127000D03*
X1433650Y127000D03*
D16*
X1422400Y127000D03*
D17*
X1320800Y228600D03*
X1524000Y228600D03*
X1524000Y25400D03*
X1320800Y25400D03*
D18*
X1408892Y147892D02*
X1418908Y147892D01*
X1408892Y147892D02*
X1408892Y156908D01*
X1418908Y156908D01*
X1418908Y147892D01*
X1418908Y150033D02*
X1408892Y150033D01*
X1408892Y152174D02*
X1418908Y152174D01*
X1418908Y154315D02*
X1408892Y154315D01*
X1408892Y156456D02*
X1418908Y156456D01*
X1425892Y147892D02*
X1435908Y147892D01*
X1425892Y147892D02*
X1425892Y156908D01*
X1435908Y156908D01*
X1435908Y147892D01*
X1435908Y150033D02*
X1425892Y150033D01*
X1425892Y152174D02*
X1435908Y152174D01*
X1435908Y154315D02*
X1425892Y154315D01*
X1425892Y156456D02*
X1435908Y156456D01*
X1463992Y144208D02*
X1474008Y144208D01*
X1474008Y135192D01*
X1463992Y135192D01*
X1463992Y144208D01*
X1463992Y137333D02*
X1474008Y137333D01*
X1474008Y139474D02*
X1463992Y139474D01*
X1463992Y141615D02*
X1474008Y141615D01*
X1474008Y143756D02*
X1463992Y143756D01*
X1457008Y144208D02*
X1446992Y144208D01*
X1457008Y144208D02*
X1457008Y135192D01*
X1446992Y135192D01*
X1446992Y144208D01*
X1446992Y137333D02*
X1457008Y137333D01*
X1457008Y139474D02*
X1446992Y139474D01*
X1446992Y141615D02*
X1457008Y141615D01*
X1457008Y143756D02*
X1446992Y143756D01*
X1397808Y144208D02*
X1387792Y144208D01*
X1397808Y144208D02*
X1397808Y135192D01*
X1387792Y135192D01*
X1387792Y144208D01*
X1387792Y137333D02*
X1397808Y137333D01*
X1397808Y139474D02*
X1387792Y139474D01*
X1387792Y141615D02*
X1397808Y141615D01*
X1397808Y143756D02*
X1387792Y143756D01*
X1380808Y144208D02*
X1370792Y144208D01*
X1380808Y144208D02*
X1380808Y135192D01*
X1370792Y135192D01*
X1370792Y144208D01*
X1370792Y137333D02*
X1380808Y137333D01*
X1380808Y139474D02*
X1370792Y139474D01*
X1370792Y141615D02*
X1380808Y141615D01*
X1380808Y143756D02*
X1370792Y143756D01*
X1387792Y118808D02*
X1397808Y118808D01*
X1397808Y109792D01*
X1387792Y109792D01*
X1387792Y118808D01*
X1387792Y111933D02*
X1397808Y111933D01*
X1397808Y114074D02*
X1387792Y114074D01*
X1387792Y116215D02*
X1397808Y116215D01*
X1397808Y118356D02*
X1387792Y118356D01*
X1380808Y118808D02*
X1370792Y118808D01*
X1380808Y118808D02*
X1380808Y109792D01*
X1370792Y109792D01*
X1370792Y118808D01*
X1370792Y111933D02*
X1380808Y111933D01*
X1380808Y114074D02*
X1370792Y114074D01*
X1370792Y116215D02*
X1380808Y116215D01*
X1380808Y118356D02*
X1370792Y118356D01*
X1463992Y118808D02*
X1474008Y118808D01*
X1474008Y109792D01*
X1463992Y109792D01*
X1463992Y118808D01*
X1463992Y111933D02*
X1474008Y111933D01*
X1474008Y114074D02*
X1463992Y114074D01*
X1463992Y116215D02*
X1474008Y116215D01*
X1474008Y118356D02*
X1463992Y118356D01*
X1457008Y118808D02*
X1446992Y118808D01*
X1457008Y118808D02*
X1457008Y109792D01*
X1446992Y109792D01*
X1446992Y118808D01*
X1446992Y111933D02*
X1457008Y111933D01*
X1457008Y114074D02*
X1446992Y114074D01*
X1446992Y116215D02*
X1457008Y116215D01*
X1457008Y118356D02*
X1446992Y118356D01*
X1510492Y166942D02*
X1520508Y166942D01*
X1510492Y166942D02*
X1510492Y175958D01*
X1520508Y175958D01*
X1520508Y166942D01*
X1520508Y169083D02*
X1510492Y169083D01*
X1510492Y171224D02*
X1520508Y171224D01*
X1520508Y173365D02*
X1510492Y173365D01*
X1510492Y175506D02*
X1520508Y175506D01*
X1527492Y166942D02*
X1537508Y166942D01*
X1527492Y166942D02*
X1527492Y175958D01*
X1537508Y175958D01*
X1537508Y166942D01*
X1537508Y169083D02*
X1527492Y169083D01*
X1527492Y171224D02*
X1537508Y171224D01*
X1537508Y173365D02*
X1527492Y173365D01*
X1527492Y175506D02*
X1537508Y175506D01*
D19*
X1529276Y187006D02*
X1529276Y193994D01*
X1536264Y193994D01*
X1536264Y187006D01*
X1529276Y187006D01*
X1529276Y191075D02*
X1536264Y191075D01*
X1511736Y193994D02*
X1511736Y187006D01*
X1511736Y193994D02*
X1518724Y193994D01*
X1518724Y187006D01*
X1511736Y187006D01*
X1511736Y191075D02*
X1518724Y191075D01*
D10*
X12700Y322580D03*
X190500Y500380D03*
D11*
X249457Y363587D02*
X249457Y352573D01*
X230443Y352573D01*
X230443Y363587D01*
X249457Y363587D01*
X249457Y354716D02*
X230443Y354716D01*
X230443Y356859D02*
X249457Y356859D01*
X249457Y359002D02*
X230443Y359002D01*
X230443Y361145D02*
X249457Y361145D01*
X249457Y363288D02*
X230443Y363288D01*
X249457Y408573D02*
X249457Y419587D01*
X249457Y408573D02*
X230443Y408573D01*
X230443Y419587D01*
X249457Y419587D01*
X249457Y410716D02*
X230443Y410716D01*
X230443Y412859D02*
X249457Y412859D01*
X249457Y415002D02*
X230443Y415002D01*
X230443Y417145D02*
X249457Y417145D01*
X249457Y419288D02*
X230443Y419288D01*
D12*
X209458Y373588D02*
X209458Y368572D01*
X196942Y368572D01*
X196942Y373588D01*
X209458Y373588D01*
X209458Y370713D02*
X196942Y370713D01*
X196942Y372854D02*
X209458Y372854D01*
X209458Y378572D02*
X209458Y383588D01*
X209458Y378572D02*
X196942Y378572D01*
X196942Y383588D01*
X209458Y383588D01*
X209458Y380713D02*
X196942Y380713D01*
X196942Y382854D02*
X209458Y382854D01*
X209458Y388572D02*
X209458Y393588D01*
X209458Y388572D02*
X196942Y388572D01*
X196942Y393588D01*
X209458Y393588D01*
X209458Y390713D02*
X196942Y390713D01*
X196942Y392854D02*
X209458Y392854D01*
X209458Y398572D02*
X209458Y403588D01*
X209458Y398572D02*
X196942Y398572D01*
X196942Y403588D01*
X209458Y403588D01*
X209458Y400713D02*
X196942Y400713D01*
X196942Y402854D02*
X209458Y402854D01*
D11*
X4543Y408573D02*
X4543Y419587D01*
X23557Y419587D01*
X23557Y408573D01*
X4543Y408573D01*
X4543Y410716D02*
X23557Y410716D01*
X23557Y412859D02*
X4543Y412859D01*
X4543Y415002D02*
X23557Y415002D01*
X23557Y417145D02*
X4543Y417145D01*
X4543Y419288D02*
X23557Y419288D01*
X4543Y363587D02*
X4543Y352573D01*
X4543Y363587D02*
X23557Y363587D01*
X23557Y352573D01*
X4543Y352573D01*
X4543Y354716D02*
X23557Y354716D01*
X23557Y356859D02*
X4543Y356859D01*
X4543Y359002D02*
X23557Y359002D01*
X23557Y361145D02*
X4543Y361145D01*
X4543Y363288D02*
X23557Y363288D01*
D12*
X44542Y398572D02*
X44542Y403588D01*
X57058Y403588D01*
X57058Y398572D01*
X44542Y398572D01*
X44542Y400713D02*
X57058Y400713D01*
X57058Y402854D02*
X44542Y402854D01*
X44542Y393588D02*
X44542Y388572D01*
X44542Y393588D02*
X57058Y393588D01*
X57058Y388572D01*
X44542Y388572D01*
X44542Y390713D02*
X57058Y390713D01*
X57058Y392854D02*
X44542Y392854D01*
X44542Y383588D02*
X44542Y378572D01*
X44542Y383588D02*
X57058Y383588D01*
X57058Y378572D01*
X44542Y378572D01*
X44542Y380713D02*
X57058Y380713D01*
X57058Y382854D02*
X44542Y382854D01*
X44542Y373588D02*
X44542Y368572D01*
X44542Y373588D02*
X57058Y373588D01*
X57058Y368572D01*
X44542Y368572D01*
X44542Y370713D02*
X57058Y370713D01*
X57058Y372854D02*
X44542Y372854D01*
D13*
X63500Y271780D03*
X88900Y271780D03*
X114300Y271780D03*
X139700Y271780D03*
X165100Y271780D03*
X190500Y271780D03*
D14*
X121250Y374830D03*
X132750Y374830D03*
X121250Y397330D03*
X132750Y397330D03*
D15*
X115750Y386080D03*
X138250Y386080D03*
D16*
X127000Y386080D03*
D17*
X25400Y487680D03*
X228600Y487680D03*
X228600Y284480D03*
X25400Y284480D03*
D18*
X113492Y406972D02*
X123508Y406972D01*
X113492Y406972D02*
X113492Y415988D01*
X123508Y415988D01*
X123508Y406972D01*
X123508Y409113D02*
X113492Y409113D01*
X113492Y411254D02*
X123508Y411254D01*
X123508Y413395D02*
X113492Y413395D01*
X113492Y415536D02*
X123508Y415536D01*
X130492Y406972D02*
X140508Y406972D01*
X130492Y406972D02*
X130492Y415988D01*
X140508Y415988D01*
X140508Y406972D01*
X140508Y409113D02*
X130492Y409113D01*
X130492Y411254D02*
X140508Y411254D01*
X140508Y413395D02*
X130492Y413395D01*
X130492Y415536D02*
X140508Y415536D01*
X168592Y403288D02*
X178608Y403288D01*
X178608Y394272D01*
X168592Y394272D01*
X168592Y403288D01*
X168592Y396413D02*
X178608Y396413D01*
X178608Y398554D02*
X168592Y398554D01*
X168592Y400695D02*
X178608Y400695D01*
X178608Y402836D02*
X168592Y402836D01*
X161608Y403288D02*
X151592Y403288D01*
X161608Y403288D02*
X161608Y394272D01*
X151592Y394272D01*
X151592Y403288D01*
X151592Y396413D02*
X161608Y396413D01*
X161608Y398554D02*
X151592Y398554D01*
X151592Y400695D02*
X161608Y400695D01*
X161608Y402836D02*
X151592Y402836D01*
X102408Y403288D02*
X92392Y403288D01*
X102408Y403288D02*
X102408Y394272D01*
X92392Y394272D01*
X92392Y403288D01*
X92392Y396413D02*
X102408Y396413D01*
X102408Y398554D02*
X92392Y398554D01*
X92392Y400695D02*
X102408Y400695D01*
X102408Y402836D02*
X92392Y402836D01*
X85408Y403288D02*
X75392Y403288D01*
X85408Y403288D02*
X85408Y394272D01*
X75392Y394272D01*
X75392Y403288D01*
X75392Y396413D02*
X85408Y396413D01*
X85408Y398554D02*
X75392Y398554D01*
X75392Y400695D02*
X85408Y400695D01*
X85408Y402836D02*
X75392Y402836D01*
X92392Y377888D02*
X102408Y377888D01*
X102408Y368872D01*
X92392Y368872D01*
X92392Y377888D01*
X92392Y371013D02*
X102408Y371013D01*
X102408Y373154D02*
X92392Y373154D01*
X92392Y375295D02*
X102408Y375295D01*
X102408Y377436D02*
X92392Y377436D01*
X85408Y377888D02*
X75392Y377888D01*
X85408Y377888D02*
X85408Y368872D01*
X75392Y368872D01*
X75392Y377888D01*
X75392Y371013D02*
X85408Y371013D01*
X85408Y373154D02*
X75392Y373154D01*
X75392Y375295D02*
X85408Y375295D01*
X85408Y377436D02*
X75392Y377436D01*
X168592Y377888D02*
X178608Y377888D01*
X178608Y368872D01*
X168592Y368872D01*
X168592Y377888D01*
X168592Y371013D02*
X178608Y371013D01*
X178608Y373154D02*
X168592Y373154D01*
X168592Y375295D02*
X178608Y375295D01*
X178608Y377436D02*
X168592Y377436D01*
X161608Y377888D02*
X151592Y377888D01*
X161608Y377888D02*
X161608Y368872D01*
X151592Y368872D01*
X151592Y377888D01*
X151592Y371013D02*
X161608Y371013D01*
X161608Y373154D02*
X151592Y373154D01*
X151592Y375295D02*
X161608Y375295D01*
X161608Y377436D02*
X151592Y377436D01*
X215092Y426022D02*
X225108Y426022D01*
X215092Y426022D02*
X215092Y435038D01*
X225108Y435038D01*
X225108Y426022D01*
X225108Y428163D02*
X215092Y428163D01*
X215092Y430304D02*
X225108Y430304D01*
X225108Y432445D02*
X215092Y432445D01*
X215092Y434586D02*
X225108Y434586D01*
X232092Y426022D02*
X242108Y426022D01*
X232092Y426022D02*
X232092Y435038D01*
X242108Y435038D01*
X242108Y426022D01*
X242108Y428163D02*
X232092Y428163D01*
X232092Y430304D02*
X242108Y430304D01*
X242108Y432445D02*
X232092Y432445D01*
X232092Y434586D02*
X242108Y434586D01*
D19*
X233876Y446086D02*
X233876Y453074D01*
X240864Y453074D01*
X240864Y446086D01*
X233876Y446086D01*
X233876Y450155D02*
X240864Y450155D01*
X216336Y453074D02*
X216336Y446086D01*
X216336Y453074D02*
X223324Y453074D01*
X223324Y446086D01*
X216336Y446086D01*
X216336Y450155D02*
X223324Y450155D01*
D10*
X271780Y322580D03*
X449580Y500380D03*
D11*
X508537Y363587D02*
X508537Y352573D01*
X489523Y352573D01*
X489523Y363587D01*
X508537Y363587D01*
X508537Y354716D02*
X489523Y354716D01*
X489523Y356859D02*
X508537Y356859D01*
X508537Y359002D02*
X489523Y359002D01*
X489523Y361145D02*
X508537Y361145D01*
X508537Y363288D02*
X489523Y363288D01*
X508537Y408573D02*
X508537Y419587D01*
X508537Y408573D02*
X489523Y408573D01*
X489523Y419587D01*
X508537Y419587D01*
X508537Y410716D02*
X489523Y410716D01*
X489523Y412859D02*
X508537Y412859D01*
X508537Y415002D02*
X489523Y415002D01*
X489523Y417145D02*
X508537Y417145D01*
X508537Y419288D02*
X489523Y419288D01*
D12*
X468538Y373588D02*
X468538Y368572D01*
X456022Y368572D01*
X456022Y373588D01*
X468538Y373588D01*
X468538Y370713D02*
X456022Y370713D01*
X456022Y372854D02*
X468538Y372854D01*
X468538Y378572D02*
X468538Y383588D01*
X468538Y378572D02*
X456022Y378572D01*
X456022Y383588D01*
X468538Y383588D01*
X468538Y380713D02*
X456022Y380713D01*
X456022Y382854D02*
X468538Y382854D01*
X468538Y388572D02*
X468538Y393588D01*
X468538Y388572D02*
X456022Y388572D01*
X456022Y393588D01*
X468538Y393588D01*
X468538Y390713D02*
X456022Y390713D01*
X456022Y392854D02*
X468538Y392854D01*
X468538Y398572D02*
X468538Y403588D01*
X468538Y398572D02*
X456022Y398572D01*
X456022Y403588D01*
X468538Y403588D01*
X468538Y400713D02*
X456022Y400713D01*
X456022Y402854D02*
X468538Y402854D01*
D11*
X263623Y408573D02*
X263623Y419587D01*
X282637Y419587D01*
X282637Y408573D01*
X263623Y408573D01*
X263623Y410716D02*
X282637Y410716D01*
X282637Y412859D02*
X263623Y412859D01*
X263623Y415002D02*
X282637Y415002D01*
X282637Y417145D02*
X263623Y417145D01*
X263623Y419288D02*
X282637Y419288D01*
X263623Y363587D02*
X263623Y352573D01*
X263623Y363587D02*
X282637Y363587D01*
X282637Y352573D01*
X263623Y352573D01*
X263623Y354716D02*
X282637Y354716D01*
X282637Y356859D02*
X263623Y356859D01*
X263623Y359002D02*
X282637Y359002D01*
X282637Y361145D02*
X263623Y361145D01*
X263623Y363288D02*
X282637Y363288D01*
D12*
X303622Y398572D02*
X303622Y403588D01*
X316138Y403588D01*
X316138Y398572D01*
X303622Y398572D01*
X303622Y400713D02*
X316138Y400713D01*
X316138Y402854D02*
X303622Y402854D01*
X303622Y393588D02*
X303622Y388572D01*
X303622Y393588D02*
X316138Y393588D01*
X316138Y388572D01*
X303622Y388572D01*
X303622Y390713D02*
X316138Y390713D01*
X316138Y392854D02*
X303622Y392854D01*
X303622Y383588D02*
X303622Y378572D01*
X303622Y383588D02*
X316138Y383588D01*
X316138Y378572D01*
X303622Y378572D01*
X303622Y380713D02*
X316138Y380713D01*
X316138Y382854D02*
X303622Y382854D01*
X303622Y373588D02*
X303622Y368572D01*
X303622Y373588D02*
X316138Y373588D01*
X316138Y368572D01*
X303622Y368572D01*
X303622Y370713D02*
X316138Y370713D01*
X316138Y372854D02*
X303622Y372854D01*
D13*
X322580Y271780D03*
X347980Y271780D03*
X373380Y271780D03*
X398780Y271780D03*
X424180Y271780D03*
X449580Y271780D03*
D14*
X380330Y374830D03*
X391830Y374830D03*
X380330Y397330D03*
X391830Y397330D03*
D15*
X374830Y386080D03*
X397330Y386080D03*
D16*
X386080Y386080D03*
D17*
X284480Y487680D03*
X487680Y487680D03*
X487680Y284480D03*
X284480Y284480D03*
D18*
X372572Y406972D02*
X382588Y406972D01*
X372572Y406972D02*
X372572Y415988D01*
X382588Y415988D01*
X382588Y406972D01*
X382588Y409113D02*
X372572Y409113D01*
X372572Y411254D02*
X382588Y411254D01*
X382588Y413395D02*
X372572Y413395D01*
X372572Y415536D02*
X382588Y415536D01*
X389572Y406972D02*
X399588Y406972D01*
X389572Y406972D02*
X389572Y415988D01*
X399588Y415988D01*
X399588Y406972D01*
X399588Y409113D02*
X389572Y409113D01*
X389572Y411254D02*
X399588Y411254D01*
X399588Y413395D02*
X389572Y413395D01*
X389572Y415536D02*
X399588Y415536D01*
X427672Y403288D02*
X437688Y403288D01*
X437688Y394272D01*
X427672Y394272D01*
X427672Y403288D01*
X427672Y396413D02*
X437688Y396413D01*
X437688Y398554D02*
X427672Y398554D01*
X427672Y400695D02*
X437688Y400695D01*
X437688Y402836D02*
X427672Y402836D01*
X420688Y403288D02*
X410672Y403288D01*
X420688Y403288D02*
X420688Y394272D01*
X410672Y394272D01*
X410672Y403288D01*
X410672Y396413D02*
X420688Y396413D01*
X420688Y398554D02*
X410672Y398554D01*
X410672Y400695D02*
X420688Y400695D01*
X420688Y402836D02*
X410672Y402836D01*
X361488Y403288D02*
X351472Y403288D01*
X361488Y403288D02*
X361488Y394272D01*
X351472Y394272D01*
X351472Y403288D01*
X351472Y396413D02*
X361488Y396413D01*
X361488Y398554D02*
X351472Y398554D01*
X351472Y400695D02*
X361488Y400695D01*
X361488Y402836D02*
X351472Y402836D01*
X344488Y403288D02*
X334472Y403288D01*
X344488Y403288D02*
X344488Y394272D01*
X334472Y394272D01*
X334472Y403288D01*
X334472Y396413D02*
X344488Y396413D01*
X344488Y398554D02*
X334472Y398554D01*
X334472Y400695D02*
X344488Y400695D01*
X344488Y402836D02*
X334472Y402836D01*
X351472Y377888D02*
X361488Y377888D01*
X361488Y368872D01*
X351472Y368872D01*
X351472Y377888D01*
X351472Y371013D02*
X361488Y371013D01*
X361488Y373154D02*
X351472Y373154D01*
X351472Y375295D02*
X361488Y375295D01*
X361488Y377436D02*
X351472Y377436D01*
X344488Y377888D02*
X334472Y377888D01*
X344488Y377888D02*
X344488Y368872D01*
X334472Y368872D01*
X334472Y377888D01*
X334472Y371013D02*
X344488Y371013D01*
X344488Y373154D02*
X334472Y373154D01*
X334472Y375295D02*
X344488Y375295D01*
X344488Y377436D02*
X334472Y377436D01*
X427672Y377888D02*
X437688Y377888D01*
X437688Y368872D01*
X427672Y368872D01*
X427672Y377888D01*
X427672Y371013D02*
X437688Y371013D01*
X437688Y373154D02*
X427672Y373154D01*
X427672Y375295D02*
X437688Y375295D01*
X437688Y377436D02*
X427672Y377436D01*
X420688Y377888D02*
X410672Y377888D01*
X420688Y377888D02*
X420688Y368872D01*
X410672Y368872D01*
X410672Y377888D01*
X410672Y371013D02*
X420688Y371013D01*
X420688Y373154D02*
X410672Y373154D01*
X410672Y375295D02*
X420688Y375295D01*
X420688Y377436D02*
X410672Y377436D01*
X474172Y426022D02*
X484188Y426022D01*
X474172Y426022D02*
X474172Y435038D01*
X484188Y435038D01*
X484188Y426022D01*
X484188Y428163D02*
X474172Y428163D01*
X474172Y430304D02*
X484188Y430304D01*
X484188Y432445D02*
X474172Y432445D01*
X474172Y434586D02*
X484188Y434586D01*
X491172Y426022D02*
X501188Y426022D01*
X491172Y426022D02*
X491172Y435038D01*
X501188Y435038D01*
X501188Y426022D01*
X501188Y428163D02*
X491172Y428163D01*
X491172Y430304D02*
X501188Y430304D01*
X501188Y432445D02*
X491172Y432445D01*
X491172Y434586D02*
X501188Y434586D01*
D19*
X492956Y446086D02*
X492956Y453074D01*
X499944Y453074D01*
X499944Y446086D01*
X492956Y446086D01*
X492956Y450155D02*
X499944Y450155D01*
X475416Y453074D02*
X475416Y446086D01*
X475416Y453074D02*
X482404Y453074D01*
X482404Y446086D01*
X475416Y446086D01*
X475416Y450155D02*
X482404Y450155D01*
D10*
X530860Y322580D03*
X708660Y500380D03*
D11*
X767617Y363587D02*
X767617Y352573D01*
X748603Y352573D01*
X748603Y363587D01*
X767617Y363587D01*
X767617Y354716D02*
X748603Y354716D01*
X748603Y356859D02*
X767617Y356859D01*
X767617Y359002D02*
X748603Y359002D01*
X748603Y361145D02*
X767617Y361145D01*
X767617Y363288D02*
X748603Y363288D01*
X767617Y408573D02*
X767617Y419587D01*
X767617Y408573D02*
X748603Y408573D01*
X748603Y419587D01*
X767617Y419587D01*
X767617Y410716D02*
X748603Y410716D01*
X748603Y412859D02*
X767617Y412859D01*
X767617Y415002D02*
X748603Y415002D01*
X748603Y417145D02*
X767617Y417145D01*
X767617Y419288D02*
X748603Y419288D01*
D12*
X727618Y373588D02*
X727618Y368572D01*
X715102Y368572D01*
X715102Y373588D01*
X727618Y373588D01*
X727618Y370713D02*
X715102Y370713D01*
X715102Y372854D02*
X727618Y372854D01*
X727618Y378572D02*
X727618Y383588D01*
X727618Y378572D02*
X715102Y378572D01*
X715102Y383588D01*
X727618Y383588D01*
X727618Y380713D02*
X715102Y380713D01*
X715102Y382854D02*
X727618Y382854D01*
X727618Y388572D02*
X727618Y393588D01*
X727618Y388572D02*
X715102Y388572D01*
X715102Y393588D01*
X727618Y393588D01*
X727618Y390713D02*
X715102Y390713D01*
X715102Y392854D02*
X727618Y392854D01*
X727618Y398572D02*
X727618Y403588D01*
X727618Y398572D02*
X715102Y398572D01*
X715102Y403588D01*
X727618Y403588D01*
X727618Y400713D02*
X715102Y400713D01*
X715102Y402854D02*
X727618Y402854D01*
D11*
X522703Y408573D02*
X522703Y419587D01*
X541717Y419587D01*
X541717Y408573D01*
X522703Y408573D01*
X522703Y410716D02*
X541717Y410716D01*
X541717Y412859D02*
X522703Y412859D01*
X522703Y415002D02*
X541717Y415002D01*
X541717Y417145D02*
X522703Y417145D01*
X522703Y419288D02*
X541717Y419288D01*
X522703Y363587D02*
X522703Y352573D01*
X522703Y363587D02*
X541717Y363587D01*
X541717Y352573D01*
X522703Y352573D01*
X522703Y354716D02*
X541717Y354716D01*
X541717Y356859D02*
X522703Y356859D01*
X522703Y359002D02*
X541717Y359002D01*
X541717Y361145D02*
X522703Y361145D01*
X522703Y363288D02*
X541717Y363288D01*
D12*
X562702Y398572D02*
X562702Y403588D01*
X575218Y403588D01*
X575218Y398572D01*
X562702Y398572D01*
X562702Y400713D02*
X575218Y400713D01*
X575218Y402854D02*
X562702Y402854D01*
X562702Y393588D02*
X562702Y388572D01*
X562702Y393588D02*
X575218Y393588D01*
X575218Y388572D01*
X562702Y388572D01*
X562702Y390713D02*
X575218Y390713D01*
X575218Y392854D02*
X562702Y392854D01*
X562702Y383588D02*
X562702Y378572D01*
X562702Y383588D02*
X575218Y383588D01*
X575218Y378572D01*
X562702Y378572D01*
X562702Y380713D02*
X575218Y380713D01*
X575218Y382854D02*
X562702Y382854D01*
X562702Y373588D02*
X562702Y368572D01*
X562702Y373588D02*
X575218Y373588D01*
X575218Y368572D01*
X562702Y368572D01*
X562702Y370713D02*
X575218Y370713D01*
X575218Y372854D02*
X562702Y372854D01*
D13*
X581660Y271780D03*
X607060Y271780D03*
X632460Y271780D03*
X657860Y271780D03*
X683260Y271780D03*
X708660Y271780D03*
D14*
X639410Y374830D03*
X650910Y374830D03*
X639410Y397330D03*
X650910Y397330D03*
D15*
X633910Y386080D03*
X656410Y386080D03*
D16*
X645160Y386080D03*
D17*
X543560Y487680D03*
X746760Y487680D03*
X746760Y284480D03*
X543560Y284480D03*
D18*
X631652Y406972D02*
X641668Y406972D01*
X631652Y406972D02*
X631652Y415988D01*
X641668Y415988D01*
X641668Y406972D01*
X641668Y409113D02*
X631652Y409113D01*
X631652Y411254D02*
X641668Y411254D01*
X641668Y413395D02*
X631652Y413395D01*
X631652Y415536D02*
X641668Y415536D01*
X648652Y406972D02*
X658668Y406972D01*
X648652Y406972D02*
X648652Y415988D01*
X658668Y415988D01*
X658668Y406972D01*
X658668Y409113D02*
X648652Y409113D01*
X648652Y411254D02*
X658668Y411254D01*
X658668Y413395D02*
X648652Y413395D01*
X648652Y415536D02*
X658668Y415536D01*
X686752Y403288D02*
X696768Y403288D01*
X696768Y394272D01*
X686752Y394272D01*
X686752Y403288D01*
X686752Y396413D02*
X696768Y396413D01*
X696768Y398554D02*
X686752Y398554D01*
X686752Y400695D02*
X696768Y400695D01*
X696768Y402836D02*
X686752Y402836D01*
X679768Y403288D02*
X669752Y403288D01*
X679768Y403288D02*
X679768Y394272D01*
X669752Y394272D01*
X669752Y403288D01*
X669752Y396413D02*
X679768Y396413D01*
X679768Y398554D02*
X669752Y398554D01*
X669752Y400695D02*
X679768Y400695D01*
X679768Y402836D02*
X669752Y402836D01*
X620568Y403288D02*
X610552Y403288D01*
X620568Y403288D02*
X620568Y394272D01*
X610552Y394272D01*
X610552Y403288D01*
X610552Y396413D02*
X620568Y396413D01*
X620568Y398554D02*
X610552Y398554D01*
X610552Y400695D02*
X620568Y400695D01*
X620568Y402836D02*
X610552Y402836D01*
X603568Y403288D02*
X593552Y403288D01*
X603568Y403288D02*
X603568Y394272D01*
X593552Y394272D01*
X593552Y403288D01*
X593552Y396413D02*
X603568Y396413D01*
X603568Y398554D02*
X593552Y398554D01*
X593552Y400695D02*
X603568Y400695D01*
X603568Y402836D02*
X593552Y402836D01*
X610552Y377888D02*
X620568Y377888D01*
X620568Y368872D01*
X610552Y368872D01*
X610552Y377888D01*
X610552Y371013D02*
X620568Y371013D01*
X620568Y373154D02*
X610552Y373154D01*
X610552Y375295D02*
X620568Y375295D01*
X620568Y377436D02*
X610552Y377436D01*
X603568Y377888D02*
X593552Y377888D01*
X603568Y377888D02*
X603568Y368872D01*
X593552Y368872D01*
X593552Y377888D01*
X593552Y371013D02*
X603568Y371013D01*
X603568Y373154D02*
X593552Y373154D01*
X593552Y375295D02*
X603568Y375295D01*
X603568Y377436D02*
X593552Y377436D01*
X686752Y377888D02*
X696768Y377888D01*
X696768Y368872D01*
X686752Y368872D01*
X686752Y377888D01*
X686752Y371013D02*
X696768Y371013D01*
X696768Y373154D02*
X686752Y373154D01*
X686752Y375295D02*
X696768Y375295D01*
X696768Y377436D02*
X686752Y377436D01*
X679768Y377888D02*
X669752Y377888D01*
X679768Y377888D02*
X679768Y368872D01*
X669752Y368872D01*
X669752Y377888D01*
X669752Y371013D02*
X679768Y371013D01*
X679768Y373154D02*
X669752Y373154D01*
X669752Y375295D02*
X679768Y375295D01*
X679768Y377436D02*
X669752Y377436D01*
X733252Y426022D02*
X743268Y426022D01*
X733252Y426022D02*
X733252Y435038D01*
X743268Y435038D01*
X743268Y426022D01*
X743268Y428163D02*
X733252Y428163D01*
X733252Y430304D02*
X743268Y430304D01*
X743268Y432445D02*
X733252Y432445D01*
X733252Y434586D02*
X743268Y434586D01*
X750252Y426022D02*
X760268Y426022D01*
X750252Y426022D02*
X750252Y435038D01*
X760268Y435038D01*
X760268Y426022D01*
X760268Y428163D02*
X750252Y428163D01*
X750252Y430304D02*
X760268Y430304D01*
X760268Y432445D02*
X750252Y432445D01*
X750252Y434586D02*
X760268Y434586D01*
D19*
X752036Y446086D02*
X752036Y453074D01*
X759024Y453074D01*
X759024Y446086D01*
X752036Y446086D01*
X752036Y450155D02*
X759024Y450155D01*
X734496Y453074D02*
X734496Y446086D01*
X734496Y453074D02*
X741484Y453074D01*
X741484Y446086D01*
X734496Y446086D01*
X734496Y450155D02*
X741484Y450155D01*
D10*
X789940Y322580D03*
X967740Y500380D03*
D11*
X1026697Y363587D02*
X1026697Y352573D01*
X1007683Y352573D01*
X1007683Y363587D01*
X1026697Y363587D01*
X1026697Y354716D02*
X1007683Y354716D01*
X1007683Y356859D02*
X1026697Y356859D01*
X1026697Y359002D02*
X1007683Y359002D01*
X1007683Y361145D02*
X1026697Y361145D01*
X1026697Y363288D02*
X1007683Y363288D01*
X1026697Y408573D02*
X1026697Y419587D01*
X1026697Y408573D02*
X1007683Y408573D01*
X1007683Y419587D01*
X1026697Y419587D01*
X1026697Y410716D02*
X1007683Y410716D01*
X1007683Y412859D02*
X1026697Y412859D01*
X1026697Y415002D02*
X1007683Y415002D01*
X1007683Y417145D02*
X1026697Y417145D01*
X1026697Y419288D02*
X1007683Y419288D01*
D12*
X986698Y373588D02*
X986698Y368572D01*
X974182Y368572D01*
X974182Y373588D01*
X986698Y373588D01*
X986698Y370713D02*
X974182Y370713D01*
X974182Y372854D02*
X986698Y372854D01*
X986698Y378572D02*
X986698Y383588D01*
X986698Y378572D02*
X974182Y378572D01*
X974182Y383588D01*
X986698Y383588D01*
X986698Y380713D02*
X974182Y380713D01*
X974182Y382854D02*
X986698Y382854D01*
X986698Y388572D02*
X986698Y393588D01*
X986698Y388572D02*
X974182Y388572D01*
X974182Y393588D01*
X986698Y393588D01*
X986698Y390713D02*
X974182Y390713D01*
X974182Y392854D02*
X986698Y392854D01*
X986698Y398572D02*
X986698Y403588D01*
X986698Y398572D02*
X974182Y398572D01*
X974182Y403588D01*
X986698Y403588D01*
X986698Y400713D02*
X974182Y400713D01*
X974182Y402854D02*
X986698Y402854D01*
D11*
X781783Y408573D02*
X781783Y419587D01*
X800797Y419587D01*
X800797Y408573D01*
X781783Y408573D01*
X781783Y410716D02*
X800797Y410716D01*
X800797Y412859D02*
X781783Y412859D01*
X781783Y415002D02*
X800797Y415002D01*
X800797Y417145D02*
X781783Y417145D01*
X781783Y419288D02*
X800797Y419288D01*
X781783Y363587D02*
X781783Y352573D01*
X781783Y363587D02*
X800797Y363587D01*
X800797Y352573D01*
X781783Y352573D01*
X781783Y354716D02*
X800797Y354716D01*
X800797Y356859D02*
X781783Y356859D01*
X781783Y359002D02*
X800797Y359002D01*
X800797Y361145D02*
X781783Y361145D01*
X781783Y363288D02*
X800797Y363288D01*
D12*
X821782Y398572D02*
X821782Y403588D01*
X834298Y403588D01*
X834298Y398572D01*
X821782Y398572D01*
X821782Y400713D02*
X834298Y400713D01*
X834298Y402854D02*
X821782Y402854D01*
X821782Y393588D02*
X821782Y388572D01*
X821782Y393588D02*
X834298Y393588D01*
X834298Y388572D01*
X821782Y388572D01*
X821782Y390713D02*
X834298Y390713D01*
X834298Y392854D02*
X821782Y392854D01*
X821782Y383588D02*
X821782Y378572D01*
X821782Y383588D02*
X834298Y383588D01*
X834298Y378572D01*
X821782Y378572D01*
X821782Y380713D02*
X834298Y380713D01*
X834298Y382854D02*
X821782Y382854D01*
X821782Y373588D02*
X821782Y368572D01*
X821782Y373588D02*
X834298Y373588D01*
X834298Y368572D01*
X821782Y368572D01*
X821782Y370713D02*
X834298Y370713D01*
X834298Y372854D02*
X821782Y372854D01*
D13*
X840740Y271780D03*
X866140Y271780D03*
X891540Y271780D03*
X916940Y271780D03*
X942340Y271780D03*
X967740Y271780D03*
D14*
X898490Y374830D03*
X909990Y374830D03*
X898490Y397330D03*
X909990Y397330D03*
D15*
X892990Y386080D03*
X915490Y386080D03*
D16*
X904240Y386080D03*
D17*
X802640Y487680D03*
X1005840Y487680D03*
X1005840Y284480D03*
X802640Y284480D03*
D18*
X890732Y406972D02*
X900748Y406972D01*
X890732Y406972D02*
X890732Y415988D01*
X900748Y415988D01*
X900748Y406972D01*
X900748Y409113D02*
X890732Y409113D01*
X890732Y411254D02*
X900748Y411254D01*
X900748Y413395D02*
X890732Y413395D01*
X890732Y415536D02*
X900748Y415536D01*
X907732Y406972D02*
X917748Y406972D01*
X907732Y406972D02*
X907732Y415988D01*
X917748Y415988D01*
X917748Y406972D01*
X917748Y409113D02*
X907732Y409113D01*
X907732Y411254D02*
X917748Y411254D01*
X917748Y413395D02*
X907732Y413395D01*
X907732Y415536D02*
X917748Y415536D01*
X945832Y403288D02*
X955848Y403288D01*
X955848Y394272D01*
X945832Y394272D01*
X945832Y403288D01*
X945832Y396413D02*
X955848Y396413D01*
X955848Y398554D02*
X945832Y398554D01*
X945832Y400695D02*
X955848Y400695D01*
X955848Y402836D02*
X945832Y402836D01*
X938848Y403288D02*
X928832Y403288D01*
X938848Y403288D02*
X938848Y394272D01*
X928832Y394272D01*
X928832Y403288D01*
X928832Y396413D02*
X938848Y396413D01*
X938848Y398554D02*
X928832Y398554D01*
X928832Y400695D02*
X938848Y400695D01*
X938848Y402836D02*
X928832Y402836D01*
X879648Y403288D02*
X869632Y403288D01*
X879648Y403288D02*
X879648Y394272D01*
X869632Y394272D01*
X869632Y403288D01*
X869632Y396413D02*
X879648Y396413D01*
X879648Y398554D02*
X869632Y398554D01*
X869632Y400695D02*
X879648Y400695D01*
X879648Y402836D02*
X869632Y402836D01*
X862648Y403288D02*
X852632Y403288D01*
X862648Y403288D02*
X862648Y394272D01*
X852632Y394272D01*
X852632Y403288D01*
X852632Y396413D02*
X862648Y396413D01*
X862648Y398554D02*
X852632Y398554D01*
X852632Y400695D02*
X862648Y400695D01*
X862648Y402836D02*
X852632Y402836D01*
X869632Y377888D02*
X879648Y377888D01*
X879648Y368872D01*
X869632Y368872D01*
X869632Y377888D01*
X869632Y371013D02*
X879648Y371013D01*
X879648Y373154D02*
X869632Y373154D01*
X869632Y375295D02*
X879648Y375295D01*
X879648Y377436D02*
X869632Y377436D01*
X862648Y377888D02*
X852632Y377888D01*
X862648Y377888D02*
X862648Y368872D01*
X852632Y368872D01*
X852632Y377888D01*
X852632Y371013D02*
X862648Y371013D01*
X862648Y373154D02*
X852632Y373154D01*
X852632Y375295D02*
X862648Y375295D01*
X862648Y377436D02*
X852632Y377436D01*
X945832Y377888D02*
X955848Y377888D01*
X955848Y368872D01*
X945832Y368872D01*
X945832Y377888D01*
X945832Y371013D02*
X955848Y371013D01*
X955848Y373154D02*
X945832Y373154D01*
X945832Y375295D02*
X955848Y375295D01*
X955848Y377436D02*
X945832Y377436D01*
X938848Y377888D02*
X928832Y377888D01*
X938848Y377888D02*
X938848Y368872D01*
X928832Y368872D01*
X928832Y377888D01*
X928832Y371013D02*
X938848Y371013D01*
X938848Y373154D02*
X928832Y373154D01*
X928832Y375295D02*
X938848Y375295D01*
X938848Y377436D02*
X928832Y377436D01*
X992332Y426022D02*
X1002348Y426022D01*
X992332Y426022D02*
X992332Y435038D01*
X1002348Y435038D01*
X1002348Y426022D01*
X1002348Y428163D02*
X992332Y428163D01*
X992332Y430304D02*
X1002348Y430304D01*
X1002348Y432445D02*
X992332Y432445D01*
X992332Y434586D02*
X1002348Y434586D01*
X1009332Y426022D02*
X1019348Y426022D01*
X1009332Y426022D02*
X1009332Y435038D01*
X1019348Y435038D01*
X1019348Y426022D01*
X1019348Y428163D02*
X1009332Y428163D01*
X1009332Y430304D02*
X1019348Y430304D01*
X1019348Y432445D02*
X1009332Y432445D01*
X1009332Y434586D02*
X1019348Y434586D01*
D19*
X1011116Y446086D02*
X1011116Y453074D01*
X1018104Y453074D01*
X1018104Y446086D01*
X1011116Y446086D01*
X1011116Y450155D02*
X1018104Y450155D01*
X993576Y453074D02*
X993576Y446086D01*
X993576Y453074D02*
X1000564Y453074D01*
X1000564Y446086D01*
X993576Y446086D01*
X993576Y450155D02*
X1000564Y450155D01*
D10*
X1049020Y322580D03*
X1226820Y500380D03*
D11*
X1285777Y363587D02*
X1285777Y352573D01*
X1266763Y352573D01*
X1266763Y363587D01*
X1285777Y363587D01*
X1285777Y354716D02*
X1266763Y354716D01*
X1266763Y356859D02*
X1285777Y356859D01*
X1285777Y359002D02*
X1266763Y359002D01*
X1266763Y361145D02*
X1285777Y361145D01*
X1285777Y363288D02*
X1266763Y363288D01*
X1285777Y408573D02*
X1285777Y419587D01*
X1285777Y408573D02*
X1266763Y408573D01*
X1266763Y419587D01*
X1285777Y419587D01*
X1285777Y410716D02*
X1266763Y410716D01*
X1266763Y412859D02*
X1285777Y412859D01*
X1285777Y415002D02*
X1266763Y415002D01*
X1266763Y417145D02*
X1285777Y417145D01*
X1285777Y419288D02*
X1266763Y419288D01*
D12*
X1245778Y373588D02*
X1245778Y368572D01*
X1233262Y368572D01*
X1233262Y373588D01*
X1245778Y373588D01*
X1245778Y370713D02*
X1233262Y370713D01*
X1233262Y372854D02*
X1245778Y372854D01*
X1245778Y378572D02*
X1245778Y383588D01*
X1245778Y378572D02*
X1233262Y378572D01*
X1233262Y383588D01*
X1245778Y383588D01*
X1245778Y380713D02*
X1233262Y380713D01*
X1233262Y382854D02*
X1245778Y382854D01*
X1245778Y388572D02*
X1245778Y393588D01*
X1245778Y388572D02*
X1233262Y388572D01*
X1233262Y393588D01*
X1245778Y393588D01*
X1245778Y390713D02*
X1233262Y390713D01*
X1233262Y392854D02*
X1245778Y392854D01*
X1245778Y398572D02*
X1245778Y403588D01*
X1245778Y398572D02*
X1233262Y398572D01*
X1233262Y403588D01*
X1245778Y403588D01*
X1245778Y400713D02*
X1233262Y400713D01*
X1233262Y402854D02*
X1245778Y402854D01*
D11*
X1040863Y408573D02*
X1040863Y419587D01*
X1059877Y419587D01*
X1059877Y408573D01*
X1040863Y408573D01*
X1040863Y410716D02*
X1059877Y410716D01*
X1059877Y412859D02*
X1040863Y412859D01*
X1040863Y415002D02*
X1059877Y415002D01*
X1059877Y417145D02*
X1040863Y417145D01*
X1040863Y419288D02*
X1059877Y419288D01*
X1040863Y363587D02*
X1040863Y352573D01*
X1040863Y363587D02*
X1059877Y363587D01*
X1059877Y352573D01*
X1040863Y352573D01*
X1040863Y354716D02*
X1059877Y354716D01*
X1059877Y356859D02*
X1040863Y356859D01*
X1040863Y359002D02*
X1059877Y359002D01*
X1059877Y361145D02*
X1040863Y361145D01*
X1040863Y363288D02*
X1059877Y363288D01*
D12*
X1080862Y398572D02*
X1080862Y403588D01*
X1093378Y403588D01*
X1093378Y398572D01*
X1080862Y398572D01*
X1080862Y400713D02*
X1093378Y400713D01*
X1093378Y402854D02*
X1080862Y402854D01*
X1080862Y393588D02*
X1080862Y388572D01*
X1080862Y393588D02*
X1093378Y393588D01*
X1093378Y388572D01*
X1080862Y388572D01*
X1080862Y390713D02*
X1093378Y390713D01*
X1093378Y392854D02*
X1080862Y392854D01*
X1080862Y383588D02*
X1080862Y378572D01*
X1080862Y383588D02*
X1093378Y383588D01*
X1093378Y378572D01*
X1080862Y378572D01*
X1080862Y380713D02*
X1093378Y380713D01*
X1093378Y382854D02*
X1080862Y382854D01*
X1080862Y373588D02*
X1080862Y368572D01*
X1080862Y373588D02*
X1093378Y373588D01*
X1093378Y368572D01*
X1080862Y368572D01*
X1080862Y370713D02*
X1093378Y370713D01*
X1093378Y372854D02*
X1080862Y372854D01*
D13*
X1099820Y271780D03*
X1125220Y271780D03*
X1150620Y271780D03*
X1176020Y271780D03*
X1201420Y271780D03*
X1226820Y271780D03*
D14*
X1157570Y374830D03*
X1169070Y374830D03*
X1157570Y397330D03*
X1169070Y397330D03*
D15*
X1152070Y386080D03*
X1174570Y386080D03*
D16*
X1163320Y386080D03*
D17*
X1061720Y487680D03*
X1264920Y487680D03*
X1264920Y284480D03*
X1061720Y284480D03*
D18*
X1149812Y406972D02*
X1159828Y406972D01*
X1149812Y406972D02*
X1149812Y415988D01*
X1159828Y415988D01*
X1159828Y406972D01*
X1159828Y409113D02*
X1149812Y409113D01*
X1149812Y411254D02*
X1159828Y411254D01*
X1159828Y413395D02*
X1149812Y413395D01*
X1149812Y415536D02*
X1159828Y415536D01*
X1166812Y406972D02*
X1176828Y406972D01*
X1166812Y406972D02*
X1166812Y415988D01*
X1176828Y415988D01*
X1176828Y406972D01*
X1176828Y409113D02*
X1166812Y409113D01*
X1166812Y411254D02*
X1176828Y411254D01*
X1176828Y413395D02*
X1166812Y413395D01*
X1166812Y415536D02*
X1176828Y415536D01*
X1204912Y403288D02*
X1214928Y403288D01*
X1214928Y394272D01*
X1204912Y394272D01*
X1204912Y403288D01*
X1204912Y396413D02*
X1214928Y396413D01*
X1214928Y398554D02*
X1204912Y398554D01*
X1204912Y400695D02*
X1214928Y400695D01*
X1214928Y402836D02*
X1204912Y402836D01*
X1197928Y403288D02*
X1187912Y403288D01*
X1197928Y403288D02*
X1197928Y394272D01*
X1187912Y394272D01*
X1187912Y403288D01*
X1187912Y396413D02*
X1197928Y396413D01*
X1197928Y398554D02*
X1187912Y398554D01*
X1187912Y400695D02*
X1197928Y400695D01*
X1197928Y402836D02*
X1187912Y402836D01*
X1138728Y403288D02*
X1128712Y403288D01*
X1138728Y403288D02*
X1138728Y394272D01*
X1128712Y394272D01*
X1128712Y403288D01*
X1128712Y396413D02*
X1138728Y396413D01*
X1138728Y398554D02*
X1128712Y398554D01*
X1128712Y400695D02*
X1138728Y400695D01*
X1138728Y402836D02*
X1128712Y402836D01*
X1121728Y403288D02*
X1111712Y403288D01*
X1121728Y403288D02*
X1121728Y394272D01*
X1111712Y394272D01*
X1111712Y403288D01*
X1111712Y396413D02*
X1121728Y396413D01*
X1121728Y398554D02*
X1111712Y398554D01*
X1111712Y400695D02*
X1121728Y400695D01*
X1121728Y402836D02*
X1111712Y402836D01*
X1128712Y377888D02*
X1138728Y377888D01*
X1138728Y368872D01*
X1128712Y368872D01*
X1128712Y377888D01*
X1128712Y371013D02*
X1138728Y371013D01*
X1138728Y373154D02*
X1128712Y373154D01*
X1128712Y375295D02*
X1138728Y375295D01*
X1138728Y377436D02*
X1128712Y377436D01*
X1121728Y377888D02*
X1111712Y377888D01*
X1121728Y377888D02*
X1121728Y368872D01*
X1111712Y368872D01*
X1111712Y377888D01*
X1111712Y371013D02*
X1121728Y371013D01*
X1121728Y373154D02*
X1111712Y373154D01*
X1111712Y375295D02*
X1121728Y375295D01*
X1121728Y377436D02*
X1111712Y377436D01*
X1204912Y377888D02*
X1214928Y377888D01*
X1214928Y368872D01*
X1204912Y368872D01*
X1204912Y377888D01*
X1204912Y371013D02*
X1214928Y371013D01*
X1214928Y373154D02*
X1204912Y373154D01*
X1204912Y375295D02*
X1214928Y375295D01*
X1214928Y377436D02*
X1204912Y377436D01*
X1197928Y377888D02*
X1187912Y377888D01*
X1197928Y377888D02*
X1197928Y368872D01*
X1187912Y368872D01*
X1187912Y377888D01*
X1187912Y371013D02*
X1197928Y371013D01*
X1197928Y373154D02*
X1187912Y373154D01*
X1187912Y375295D02*
X1197928Y375295D01*
X1197928Y377436D02*
X1187912Y377436D01*
X1251412Y426022D02*
X1261428Y426022D01*
X1251412Y426022D02*
X1251412Y435038D01*
X1261428Y435038D01*
X1261428Y426022D01*
X1261428Y428163D02*
X1251412Y428163D01*
X1251412Y430304D02*
X1261428Y430304D01*
X1261428Y432445D02*
X1251412Y432445D01*
X1251412Y434586D02*
X1261428Y434586D01*
X1268412Y426022D02*
X1278428Y426022D01*
X1268412Y426022D02*
X1268412Y435038D01*
X1278428Y435038D01*
X1278428Y426022D01*
X1278428Y428163D02*
X1268412Y428163D01*
X1268412Y430304D02*
X1278428Y430304D01*
X1278428Y432445D02*
X1268412Y432445D01*
X1268412Y434586D02*
X1278428Y434586D01*
D19*
X1270196Y446086D02*
X1270196Y453074D01*
X1277184Y453074D01*
X1277184Y446086D01*
X1270196Y446086D01*
X1270196Y450155D02*
X1277184Y450155D01*
X1252656Y453074D02*
X1252656Y446086D01*
X1252656Y453074D02*
X1259644Y453074D01*
X1259644Y446086D01*
X1252656Y446086D01*
X1252656Y450155D02*
X1259644Y450155D01*
D10*
X1308100Y322580D03*
X1485900Y500380D03*
D11*
X1544857Y363587D02*
X1544857Y352573D01*
X1525843Y352573D01*
X1525843Y363587D01*
X1544857Y363587D01*
X1544857Y354716D02*
X1525843Y354716D01*
X1525843Y356859D02*
X1544857Y356859D01*
X1544857Y359002D02*
X1525843Y359002D01*
X1525843Y361145D02*
X1544857Y361145D01*
X1544857Y363288D02*
X1525843Y363288D01*
X1544857Y408573D02*
X1544857Y419587D01*
X1544857Y408573D02*
X1525843Y408573D01*
X1525843Y419587D01*
X1544857Y419587D01*
X1544857Y410716D02*
X1525843Y410716D01*
X1525843Y412859D02*
X1544857Y412859D01*
X1544857Y415002D02*
X1525843Y415002D01*
X1525843Y417145D02*
X1544857Y417145D01*
X1544857Y419288D02*
X1525843Y419288D01*
D12*
X1504858Y373588D02*
X1504858Y368572D01*
X1492342Y368572D01*
X1492342Y373588D01*
X1504858Y373588D01*
X1504858Y370713D02*
X1492342Y370713D01*
X1492342Y372854D02*
X1504858Y372854D01*
X1504858Y378572D02*
X1504858Y383588D01*
X1504858Y378572D02*
X1492342Y378572D01*
X1492342Y383588D01*
X1504858Y383588D01*
X1504858Y380713D02*
X1492342Y380713D01*
X1492342Y382854D02*
X1504858Y382854D01*
X1504858Y388572D02*
X1504858Y393588D01*
X1504858Y388572D02*
X1492342Y388572D01*
X1492342Y393588D01*
X1504858Y393588D01*
X1504858Y390713D02*
X1492342Y390713D01*
X1492342Y392854D02*
X1504858Y392854D01*
X1504858Y398572D02*
X1504858Y403588D01*
X1504858Y398572D02*
X1492342Y398572D01*
X1492342Y403588D01*
X1504858Y403588D01*
X1504858Y400713D02*
X1492342Y400713D01*
X1492342Y402854D02*
X1504858Y402854D01*
D11*
X1299943Y408573D02*
X1299943Y419587D01*
X1318957Y419587D01*
X1318957Y408573D01*
X1299943Y408573D01*
X1299943Y410716D02*
X1318957Y410716D01*
X1318957Y412859D02*
X1299943Y412859D01*
X1299943Y415002D02*
X1318957Y415002D01*
X1318957Y417145D02*
X1299943Y417145D01*
X1299943Y419288D02*
X1318957Y419288D01*
X1299943Y363587D02*
X1299943Y352573D01*
X1299943Y363587D02*
X1318957Y363587D01*
X1318957Y352573D01*
X1299943Y352573D01*
X1299943Y354716D02*
X1318957Y354716D01*
X1318957Y356859D02*
X1299943Y356859D01*
X1299943Y359002D02*
X1318957Y359002D01*
X1318957Y361145D02*
X1299943Y361145D01*
X1299943Y363288D02*
X1318957Y363288D01*
D12*
X1339942Y398572D02*
X1339942Y403588D01*
X1352458Y403588D01*
X1352458Y398572D01*
X1339942Y398572D01*
X1339942Y400713D02*
X1352458Y400713D01*
X1352458Y402854D02*
X1339942Y402854D01*
X1339942Y393588D02*
X1339942Y388572D01*
X1339942Y393588D02*
X1352458Y393588D01*
X1352458Y388572D01*
X1339942Y388572D01*
X1339942Y390713D02*
X1352458Y390713D01*
X1352458Y392854D02*
X1339942Y392854D01*
X1339942Y383588D02*
X1339942Y378572D01*
X1339942Y383588D02*
X1352458Y383588D01*
X1352458Y378572D01*
X1339942Y378572D01*
X1339942Y380713D02*
X1352458Y380713D01*
X1352458Y382854D02*
X1339942Y382854D01*
X1339942Y373588D02*
X1339942Y368572D01*
X1339942Y373588D02*
X1352458Y373588D01*
X1352458Y368572D01*
X1339942Y368572D01*
X1339942Y370713D02*
X1352458Y370713D01*
X1352458Y372854D02*
X1339942Y372854D01*
D13*
X1358900Y271780D03*
X1384300Y271780D03*
X1409700Y271780D03*
X1435100Y271780D03*
X1460500Y271780D03*
X1485900Y271780D03*
D14*
X1416650Y374830D03*
X1428150Y374830D03*
X1416650Y397330D03*
X1428150Y397330D03*
D15*
X1411150Y386080D03*
X1433650Y386080D03*
D16*
X1422400Y386080D03*
D17*
X1320800Y487680D03*
X1524000Y487680D03*
X1524000Y284480D03*
X1320800Y284480D03*
D18*
X1408892Y406972D02*
X1418908Y406972D01*
X1408892Y406972D02*
X1408892Y415988D01*
X1418908Y415988D01*
X1418908Y406972D01*
X1418908Y409113D02*
X1408892Y409113D01*
X1408892Y411254D02*
X1418908Y411254D01*
X1418908Y413395D02*
X1408892Y413395D01*
X1408892Y415536D02*
X1418908Y415536D01*
X1425892Y406972D02*
X1435908Y406972D01*
X1425892Y406972D02*
X1425892Y415988D01*
X1435908Y415988D01*
X1435908Y406972D01*
X1435908Y409113D02*
X1425892Y409113D01*
X1425892Y411254D02*
X1435908Y411254D01*
X1435908Y413395D02*
X1425892Y413395D01*
X1425892Y415536D02*
X1435908Y415536D01*
X1463992Y403288D02*
X1474008Y403288D01*
X1474008Y394272D01*
X1463992Y394272D01*
X1463992Y403288D01*
X1463992Y396413D02*
X1474008Y396413D01*
X1474008Y398554D02*
X1463992Y398554D01*
X1463992Y400695D02*
X1474008Y400695D01*
X1474008Y402836D02*
X1463992Y402836D01*
X1457008Y403288D02*
X1446992Y403288D01*
X1457008Y403288D02*
X1457008Y394272D01*
X1446992Y394272D01*
X1446992Y403288D01*
X1446992Y396413D02*
X1457008Y396413D01*
X1457008Y398554D02*
X1446992Y398554D01*
X1446992Y400695D02*
X1457008Y400695D01*
X1457008Y402836D02*
X1446992Y402836D01*
X1397808Y403288D02*
X1387792Y403288D01*
X1397808Y403288D02*
X1397808Y394272D01*
X1387792Y394272D01*
X1387792Y403288D01*
X1387792Y396413D02*
X1397808Y396413D01*
X1397808Y398554D02*
X1387792Y398554D01*
X1387792Y400695D02*
X1397808Y400695D01*
X1397808Y402836D02*
X1387792Y402836D01*
X1380808Y403288D02*
X1370792Y403288D01*
X1380808Y403288D02*
X1380808Y394272D01*
X1370792Y394272D01*
X1370792Y403288D01*
X1370792Y396413D02*
X1380808Y396413D01*
X1380808Y398554D02*
X1370792Y398554D01*
X1370792Y400695D02*
X1380808Y400695D01*
X1380808Y402836D02*
X1370792Y402836D01*
X1387792Y377888D02*
X1397808Y377888D01*
X1397808Y368872D01*
X1387792Y368872D01*
X1387792Y377888D01*
X1387792Y371013D02*
X1397808Y371013D01*
X1397808Y373154D02*
X1387792Y373154D01*
X1387792Y375295D02*
X1397808Y375295D01*
X1397808Y377436D02*
X1387792Y377436D01*
X1380808Y377888D02*
X1370792Y377888D01*
X1380808Y377888D02*
X1380808Y368872D01*
X1370792Y368872D01*
X1370792Y377888D01*
X1370792Y371013D02*
X1380808Y371013D01*
X1380808Y373154D02*
X1370792Y373154D01*
X1370792Y375295D02*
X1380808Y375295D01*
X1380808Y377436D02*
X1370792Y377436D01*
X1463992Y377888D02*
X1474008Y377888D01*
X1474008Y368872D01*
X1463992Y368872D01*
X1463992Y377888D01*
X1463992Y371013D02*
X1474008Y371013D01*
X1474008Y373154D02*
X1463992Y373154D01*
X1463992Y375295D02*
X1474008Y375295D01*
X1474008Y377436D02*
X1463992Y377436D01*
X1457008Y377888D02*
X1446992Y377888D01*
X1457008Y377888D02*
X1457008Y368872D01*
X1446992Y368872D01*
X1446992Y377888D01*
X1446992Y371013D02*
X1457008Y371013D01*
X1457008Y373154D02*
X1446992Y373154D01*
X1446992Y375295D02*
X1457008Y375295D01*
X1457008Y377436D02*
X1446992Y377436D01*
X1510492Y426022D02*
X1520508Y426022D01*
X1510492Y426022D02*
X1510492Y435038D01*
X1520508Y435038D01*
X1520508Y426022D01*
X1520508Y428163D02*
X1510492Y428163D01*
X1510492Y430304D02*
X1520508Y430304D01*
X1520508Y432445D02*
X1510492Y432445D01*
X1510492Y434586D02*
X1520508Y434586D01*
X1527492Y426022D02*
X1537508Y426022D01*
X1527492Y426022D02*
X1527492Y435038D01*
X1537508Y435038D01*
X1537508Y426022D01*
X1537508Y428163D02*
X1527492Y428163D01*
X1527492Y430304D02*
X1537508Y430304D01*
X1537508Y432445D02*
X1527492Y432445D01*
X1527492Y434586D02*
X1537508Y434586D01*
D19*
X1529276Y446086D02*
X1529276Y453074D01*
X1536264Y453074D01*
X1536264Y446086D01*
X1529276Y446086D01*
X1529276Y450155D02*
X1536264Y450155D01*
X1511736Y453074D02*
X1511736Y446086D01*
X1511736Y453074D02*
X1518724Y453074D01*
X1518724Y446086D01*
X1511736Y446086D01*
X1511736Y450155D02*
X1518724Y450155D01*
D10*
X12700Y581660D03*
X190500Y759460D03*
D11*
X249457Y622667D02*
X249457Y611653D01*
X230443Y611653D01*
X230443Y622667D01*
X249457Y622667D01*
X249457Y613796D02*
X230443Y613796D01*
X230443Y615939D02*
X249457Y615939D01*
X249457Y618082D02*
X230443Y618082D01*
X230443Y620225D02*
X249457Y620225D01*
X249457Y622368D02*
X230443Y622368D01*
X249457Y667653D02*
X249457Y678667D01*
X249457Y667653D02*
X230443Y667653D01*
X230443Y678667D01*
X249457Y678667D01*
X249457Y669796D02*
X230443Y669796D01*
X230443Y671939D02*
X249457Y671939D01*
X249457Y674082D02*
X230443Y674082D01*
X230443Y676225D02*
X249457Y676225D01*
X249457Y678368D02*
X230443Y678368D01*
D12*
X209458Y632668D02*
X209458Y627652D01*
X196942Y627652D01*
X196942Y632668D01*
X209458Y632668D01*
X209458Y629793D02*
X196942Y629793D01*
X196942Y631934D02*
X209458Y631934D01*
X209458Y637652D02*
X209458Y642668D01*
X209458Y637652D02*
X196942Y637652D01*
X196942Y642668D01*
X209458Y642668D01*
X209458Y639793D02*
X196942Y639793D01*
X196942Y641934D02*
X209458Y641934D01*
X209458Y647652D02*
X209458Y652668D01*
X209458Y647652D02*
X196942Y647652D01*
X196942Y652668D01*
X209458Y652668D01*
X209458Y649793D02*
X196942Y649793D01*
X196942Y651934D02*
X209458Y651934D01*
X209458Y657652D02*
X209458Y662668D01*
X209458Y657652D02*
X196942Y657652D01*
X196942Y662668D01*
X209458Y662668D01*
X209458Y659793D02*
X196942Y659793D01*
X196942Y661934D02*
X209458Y661934D01*
D11*
X4543Y667653D02*
X4543Y678667D01*
X23557Y678667D01*
X23557Y667653D01*
X4543Y667653D01*
X4543Y669796D02*
X23557Y669796D01*
X23557Y671939D02*
X4543Y671939D01*
X4543Y674082D02*
X23557Y674082D01*
X23557Y676225D02*
X4543Y676225D01*
X4543Y678368D02*
X23557Y678368D01*
X4543Y622667D02*
X4543Y611653D01*
X4543Y622667D02*
X23557Y622667D01*
X23557Y611653D01*
X4543Y611653D01*
X4543Y613796D02*
X23557Y613796D01*
X23557Y615939D02*
X4543Y615939D01*
X4543Y618082D02*
X23557Y618082D01*
X23557Y620225D02*
X4543Y620225D01*
X4543Y622368D02*
X23557Y622368D01*
D12*
X44542Y657652D02*
X44542Y662668D01*
X57058Y662668D01*
X57058Y657652D01*
X44542Y657652D01*
X44542Y659793D02*
X57058Y659793D01*
X57058Y661934D02*
X44542Y661934D01*
X44542Y652668D02*
X44542Y647652D01*
X44542Y652668D02*
X57058Y652668D01*
X57058Y647652D01*
X44542Y647652D01*
X44542Y649793D02*
X57058Y649793D01*
X57058Y651934D02*
X44542Y651934D01*
X44542Y642668D02*
X44542Y637652D01*
X44542Y642668D02*
X57058Y642668D01*
X57058Y637652D01*
X44542Y637652D01*
X44542Y639793D02*
X57058Y639793D01*
X57058Y641934D02*
X44542Y641934D01*
X44542Y632668D02*
X44542Y627652D01*
X44542Y632668D02*
X57058Y632668D01*
X57058Y627652D01*
X44542Y627652D01*
X44542Y629793D02*
X57058Y629793D01*
X57058Y631934D02*
X44542Y631934D01*
D13*
X63500Y530860D03*
X88900Y530860D03*
X114300Y530860D03*
X139700Y530860D03*
X165100Y530860D03*
X190500Y530860D03*
D14*
X121250Y633910D03*
X132750Y633910D03*
X121250Y656410D03*
X132750Y656410D03*
D15*
X115750Y645160D03*
X138250Y645160D03*
D16*
X127000Y645160D03*
D17*
X25400Y746760D03*
X228600Y746760D03*
X228600Y543560D03*
X25400Y543560D03*
D18*
X113492Y666052D02*
X123508Y666052D01*
X113492Y666052D02*
X113492Y675068D01*
X123508Y675068D01*
X123508Y666052D01*
X123508Y668193D02*
X113492Y668193D01*
X113492Y670334D02*
X123508Y670334D01*
X123508Y672475D02*
X113492Y672475D01*
X113492Y674616D02*
X123508Y674616D01*
X130492Y666052D02*
X140508Y666052D01*
X130492Y666052D02*
X130492Y675068D01*
X140508Y675068D01*
X140508Y666052D01*
X140508Y668193D02*
X130492Y668193D01*
X130492Y670334D02*
X140508Y670334D01*
X140508Y672475D02*
X130492Y672475D01*
X130492Y674616D02*
X140508Y674616D01*
X168592Y662368D02*
X178608Y662368D01*
X178608Y653352D01*
X168592Y653352D01*
X168592Y662368D01*
X168592Y655493D02*
X178608Y655493D01*
X178608Y657634D02*
X168592Y657634D01*
X168592Y659775D02*
X178608Y659775D01*
X178608Y661916D02*
X168592Y661916D01*
X161608Y662368D02*
X151592Y662368D01*
X161608Y662368D02*
X161608Y653352D01*
X151592Y653352D01*
X151592Y662368D01*
X151592Y655493D02*
X161608Y655493D01*
X161608Y657634D02*
X151592Y657634D01*
X151592Y659775D02*
X161608Y659775D01*
X161608Y661916D02*
X151592Y661916D01*
X102408Y662368D02*
X92392Y662368D01*
X102408Y662368D02*
X102408Y653352D01*
X92392Y653352D01*
X92392Y662368D01*
X92392Y655493D02*
X102408Y655493D01*
X102408Y657634D02*
X92392Y657634D01*
X92392Y659775D02*
X102408Y659775D01*
X102408Y661916D02*
X92392Y661916D01*
X85408Y662368D02*
X75392Y662368D01*
X85408Y662368D02*
X85408Y653352D01*
X75392Y653352D01*
X75392Y662368D01*
X75392Y655493D02*
X85408Y655493D01*
X85408Y657634D02*
X75392Y657634D01*
X75392Y659775D02*
X85408Y659775D01*
X85408Y661916D02*
X75392Y661916D01*
X92392Y636968D02*
X102408Y636968D01*
X102408Y627952D01*
X92392Y627952D01*
X92392Y636968D01*
X92392Y630093D02*
X102408Y630093D01*
X102408Y632234D02*
X92392Y632234D01*
X92392Y634375D02*
X102408Y634375D01*
X102408Y636516D02*
X92392Y636516D01*
X85408Y636968D02*
X75392Y636968D01*
X85408Y636968D02*
X85408Y627952D01*
X75392Y627952D01*
X75392Y636968D01*
X75392Y630093D02*
X85408Y630093D01*
X85408Y632234D02*
X75392Y632234D01*
X75392Y634375D02*
X85408Y634375D01*
X85408Y636516D02*
X75392Y636516D01*
X168592Y636968D02*
X178608Y636968D01*
X178608Y627952D01*
X168592Y627952D01*
X168592Y636968D01*
X168592Y630093D02*
X178608Y630093D01*
X178608Y632234D02*
X168592Y632234D01*
X168592Y634375D02*
X178608Y634375D01*
X178608Y636516D02*
X168592Y636516D01*
X161608Y636968D02*
X151592Y636968D01*
X161608Y636968D02*
X161608Y627952D01*
X151592Y627952D01*
X151592Y636968D01*
X151592Y630093D02*
X161608Y630093D01*
X161608Y632234D02*
X151592Y632234D01*
X151592Y634375D02*
X161608Y634375D01*
X161608Y636516D02*
X151592Y636516D01*
X215092Y685102D02*
X225108Y685102D01*
X215092Y685102D02*
X215092Y694118D01*
X225108Y694118D01*
X225108Y685102D01*
X225108Y687243D02*
X215092Y687243D01*
X215092Y689384D02*
X225108Y689384D01*
X225108Y691525D02*
X215092Y691525D01*
X215092Y693666D02*
X225108Y693666D01*
X232092Y685102D02*
X242108Y685102D01*
X232092Y685102D02*
X232092Y694118D01*
X242108Y694118D01*
X242108Y685102D01*
X242108Y687243D02*
X232092Y687243D01*
X232092Y689384D02*
X242108Y689384D01*
X242108Y691525D02*
X232092Y691525D01*
X232092Y693666D02*
X242108Y693666D01*
D19*
X233876Y705166D02*
X233876Y712154D01*
X240864Y712154D01*
X240864Y705166D01*
X233876Y705166D01*
X233876Y709235D02*
X240864Y709235D01*
X216336Y712154D02*
X216336Y705166D01*
X216336Y712154D02*
X223324Y712154D01*
X223324Y705166D01*
X216336Y705166D01*
X216336Y709235D02*
X223324Y709235D01*
D10*
X271780Y581660D03*
X449580Y759460D03*
D11*
X508537Y622667D02*
X508537Y611653D01*
X489523Y611653D01*
X489523Y622667D01*
X508537Y622667D01*
X508537Y613796D02*
X489523Y613796D01*
X489523Y615939D02*
X508537Y615939D01*
X508537Y618082D02*
X489523Y618082D01*
X489523Y620225D02*
X508537Y620225D01*
X508537Y622368D02*
X489523Y622368D01*
X508537Y667653D02*
X508537Y678667D01*
X508537Y667653D02*
X489523Y667653D01*
X489523Y678667D01*
X508537Y678667D01*
X508537Y669796D02*
X489523Y669796D01*
X489523Y671939D02*
X508537Y671939D01*
X508537Y674082D02*
X489523Y674082D01*
X489523Y676225D02*
X508537Y676225D01*
X508537Y678368D02*
X489523Y678368D01*
D12*
X468538Y632668D02*
X468538Y627652D01*
X456022Y627652D01*
X456022Y632668D01*
X468538Y632668D01*
X468538Y629793D02*
X456022Y629793D01*
X456022Y631934D02*
X468538Y631934D01*
X468538Y637652D02*
X468538Y642668D01*
X468538Y637652D02*
X456022Y637652D01*
X456022Y642668D01*
X468538Y642668D01*
X468538Y639793D02*
X456022Y639793D01*
X456022Y641934D02*
X468538Y641934D01*
X468538Y647652D02*
X468538Y652668D01*
X468538Y647652D02*
X456022Y647652D01*
X456022Y652668D01*
X468538Y652668D01*
X468538Y649793D02*
X456022Y649793D01*
X456022Y651934D02*
X468538Y651934D01*
X468538Y657652D02*
X468538Y662668D01*
X468538Y657652D02*
X456022Y657652D01*
X456022Y662668D01*
X468538Y662668D01*
X468538Y659793D02*
X456022Y659793D01*
X456022Y661934D02*
X468538Y661934D01*
D11*
X263623Y667653D02*
X263623Y678667D01*
X282637Y678667D01*
X282637Y667653D01*
X263623Y667653D01*
X263623Y669796D02*
X282637Y669796D01*
X282637Y671939D02*
X263623Y671939D01*
X263623Y674082D02*
X282637Y674082D01*
X282637Y676225D02*
X263623Y676225D01*
X263623Y678368D02*
X282637Y678368D01*
X263623Y622667D02*
X263623Y611653D01*
X263623Y622667D02*
X282637Y622667D01*
X282637Y611653D01*
X263623Y611653D01*
X263623Y613796D02*
X282637Y613796D01*
X282637Y615939D02*
X263623Y615939D01*
X263623Y618082D02*
X282637Y618082D01*
X282637Y620225D02*
X263623Y620225D01*
X263623Y622368D02*
X282637Y622368D01*
D12*
X303622Y657652D02*
X303622Y662668D01*
X316138Y662668D01*
X316138Y657652D01*
X303622Y657652D01*
X303622Y659793D02*
X316138Y659793D01*
X316138Y661934D02*
X303622Y661934D01*
X303622Y652668D02*
X303622Y647652D01*
X303622Y652668D02*
X316138Y652668D01*
X316138Y647652D01*
X303622Y647652D01*
X303622Y649793D02*
X316138Y649793D01*
X316138Y651934D02*
X303622Y651934D01*
X303622Y642668D02*
X303622Y637652D01*
X303622Y642668D02*
X316138Y642668D01*
X316138Y637652D01*
X303622Y637652D01*
X303622Y639793D02*
X316138Y639793D01*
X316138Y641934D02*
X303622Y641934D01*
X303622Y632668D02*
X303622Y627652D01*
X303622Y632668D02*
X316138Y632668D01*
X316138Y627652D01*
X303622Y627652D01*
X303622Y629793D02*
X316138Y629793D01*
X316138Y631934D02*
X303622Y631934D01*
D13*
X322580Y530860D03*
X347980Y530860D03*
X373380Y530860D03*
X398780Y530860D03*
X424180Y530860D03*
X449580Y530860D03*
D14*
X380330Y633910D03*
X391830Y633910D03*
X380330Y656410D03*
X391830Y656410D03*
D15*
X374830Y645160D03*
X397330Y645160D03*
D16*
X386080Y645160D03*
D17*
X284480Y746760D03*
X487680Y746760D03*
X487680Y543560D03*
X284480Y543560D03*
D18*
X372572Y666052D02*
X382588Y666052D01*
X372572Y666052D02*
X372572Y675068D01*
X382588Y675068D01*
X382588Y666052D01*
X382588Y668193D02*
X372572Y668193D01*
X372572Y670334D02*
X382588Y670334D01*
X382588Y672475D02*
X372572Y672475D01*
X372572Y674616D02*
X382588Y674616D01*
X389572Y666052D02*
X399588Y666052D01*
X389572Y666052D02*
X389572Y675068D01*
X399588Y675068D01*
X399588Y666052D01*
X399588Y668193D02*
X389572Y668193D01*
X389572Y670334D02*
X399588Y670334D01*
X399588Y672475D02*
X389572Y672475D01*
X389572Y674616D02*
X399588Y674616D01*
X427672Y662368D02*
X437688Y662368D01*
X437688Y653352D01*
X427672Y653352D01*
X427672Y662368D01*
X427672Y655493D02*
X437688Y655493D01*
X437688Y657634D02*
X427672Y657634D01*
X427672Y659775D02*
X437688Y659775D01*
X437688Y661916D02*
X427672Y661916D01*
X420688Y662368D02*
X410672Y662368D01*
X420688Y662368D02*
X420688Y653352D01*
X410672Y653352D01*
X410672Y662368D01*
X410672Y655493D02*
X420688Y655493D01*
X420688Y657634D02*
X410672Y657634D01*
X410672Y659775D02*
X420688Y659775D01*
X420688Y661916D02*
X410672Y661916D01*
X361488Y662368D02*
X351472Y662368D01*
X361488Y662368D02*
X361488Y653352D01*
X351472Y653352D01*
X351472Y662368D01*
X351472Y655493D02*
X361488Y655493D01*
X361488Y657634D02*
X351472Y657634D01*
X351472Y659775D02*
X361488Y659775D01*
X361488Y661916D02*
X351472Y661916D01*
X344488Y662368D02*
X334472Y662368D01*
X344488Y662368D02*
X344488Y653352D01*
X334472Y653352D01*
X334472Y662368D01*
X334472Y655493D02*
X344488Y655493D01*
X344488Y657634D02*
X334472Y657634D01*
X334472Y659775D02*
X344488Y659775D01*
X344488Y661916D02*
X334472Y661916D01*
X351472Y636968D02*
X361488Y636968D01*
X361488Y627952D01*
X351472Y627952D01*
X351472Y636968D01*
X351472Y630093D02*
X361488Y630093D01*
X361488Y632234D02*
X351472Y632234D01*
X351472Y634375D02*
X361488Y634375D01*
X361488Y636516D02*
X351472Y636516D01*
X344488Y636968D02*
X334472Y636968D01*
X344488Y636968D02*
X344488Y627952D01*
X334472Y627952D01*
X334472Y636968D01*
X334472Y630093D02*
X344488Y630093D01*
X344488Y632234D02*
X334472Y632234D01*
X334472Y634375D02*
X344488Y634375D01*
X344488Y636516D02*
X334472Y636516D01*
X427672Y636968D02*
X437688Y636968D01*
X437688Y627952D01*
X427672Y627952D01*
X427672Y636968D01*
X427672Y630093D02*
X437688Y630093D01*
X437688Y632234D02*
X427672Y632234D01*
X427672Y634375D02*
X437688Y634375D01*
X437688Y636516D02*
X427672Y636516D01*
X420688Y636968D02*
X410672Y636968D01*
X420688Y636968D02*
X420688Y627952D01*
X410672Y627952D01*
X410672Y636968D01*
X410672Y630093D02*
X420688Y630093D01*
X420688Y632234D02*
X410672Y632234D01*
X410672Y634375D02*
X420688Y634375D01*
X420688Y636516D02*
X410672Y636516D01*
X474172Y685102D02*
X484188Y685102D01*
X474172Y685102D02*
X474172Y694118D01*
X484188Y694118D01*
X484188Y685102D01*
X484188Y687243D02*
X474172Y687243D01*
X474172Y689384D02*
X484188Y689384D01*
X484188Y691525D02*
X474172Y691525D01*
X474172Y693666D02*
X484188Y693666D01*
X491172Y685102D02*
X501188Y685102D01*
X491172Y685102D02*
X491172Y694118D01*
X501188Y694118D01*
X501188Y685102D01*
X501188Y687243D02*
X491172Y687243D01*
X491172Y689384D02*
X501188Y689384D01*
X501188Y691525D02*
X491172Y691525D01*
X491172Y693666D02*
X501188Y693666D01*
D19*
X492956Y705166D02*
X492956Y712154D01*
X499944Y712154D01*
X499944Y705166D01*
X492956Y705166D01*
X492956Y709235D02*
X499944Y709235D01*
X475416Y712154D02*
X475416Y705166D01*
X475416Y712154D02*
X482404Y712154D01*
X482404Y705166D01*
X475416Y705166D01*
X475416Y709235D02*
X482404Y709235D01*
D10*
X530860Y581660D03*
X708660Y759460D03*
D11*
X767617Y622667D02*
X767617Y611653D01*
X748603Y611653D01*
X748603Y622667D01*
X767617Y622667D01*
X767617Y613796D02*
X748603Y613796D01*
X748603Y615939D02*
X767617Y615939D01*
X767617Y618082D02*
X748603Y618082D01*
X748603Y620225D02*
X767617Y620225D01*
X767617Y622368D02*
X748603Y622368D01*
X767617Y667653D02*
X767617Y678667D01*
X767617Y667653D02*
X748603Y667653D01*
X748603Y678667D01*
X767617Y678667D01*
X767617Y669796D02*
X748603Y669796D01*
X748603Y671939D02*
X767617Y671939D01*
X767617Y674082D02*
X748603Y674082D01*
X748603Y676225D02*
X767617Y676225D01*
X767617Y678368D02*
X748603Y678368D01*
D12*
X727618Y632668D02*
X727618Y627652D01*
X715102Y627652D01*
X715102Y632668D01*
X727618Y632668D01*
X727618Y629793D02*
X715102Y629793D01*
X715102Y631934D02*
X727618Y631934D01*
X727618Y637652D02*
X727618Y642668D01*
X727618Y637652D02*
X715102Y637652D01*
X715102Y642668D01*
X727618Y642668D01*
X727618Y639793D02*
X715102Y639793D01*
X715102Y641934D02*
X727618Y641934D01*
X727618Y647652D02*
X727618Y652668D01*
X727618Y647652D02*
X715102Y647652D01*
X715102Y652668D01*
X727618Y652668D01*
X727618Y649793D02*
X715102Y649793D01*
X715102Y651934D02*
X727618Y651934D01*
X727618Y657652D02*
X727618Y662668D01*
X727618Y657652D02*
X715102Y657652D01*
X715102Y662668D01*
X727618Y662668D01*
X727618Y659793D02*
X715102Y659793D01*
X715102Y661934D02*
X727618Y661934D01*
D11*
X522703Y667653D02*
X522703Y678667D01*
X541717Y678667D01*
X541717Y667653D01*
X522703Y667653D01*
X522703Y669796D02*
X541717Y669796D01*
X541717Y671939D02*
X522703Y671939D01*
X522703Y674082D02*
X541717Y674082D01*
X541717Y676225D02*
X522703Y676225D01*
X522703Y678368D02*
X541717Y678368D01*
X522703Y622667D02*
X522703Y611653D01*
X522703Y622667D02*
X541717Y622667D01*
X541717Y611653D01*
X522703Y611653D01*
X522703Y613796D02*
X541717Y613796D01*
X541717Y615939D02*
X522703Y615939D01*
X522703Y618082D02*
X541717Y618082D01*
X541717Y620225D02*
X522703Y620225D01*
X522703Y622368D02*
X541717Y622368D01*
D12*
X562702Y657652D02*
X562702Y662668D01*
X575218Y662668D01*
X575218Y657652D01*
X562702Y657652D01*
X562702Y659793D02*
X575218Y659793D01*
X575218Y661934D02*
X562702Y661934D01*
X562702Y652668D02*
X562702Y647652D01*
X562702Y652668D02*
X575218Y652668D01*
X575218Y647652D01*
X562702Y647652D01*
X562702Y649793D02*
X575218Y649793D01*
X575218Y651934D02*
X562702Y651934D01*
X562702Y642668D02*
X562702Y637652D01*
X562702Y642668D02*
X575218Y642668D01*
X575218Y637652D01*
X562702Y637652D01*
X562702Y639793D02*
X575218Y639793D01*
X575218Y641934D02*
X562702Y641934D01*
X562702Y632668D02*
X562702Y627652D01*
X562702Y632668D02*
X575218Y632668D01*
X575218Y627652D01*
X562702Y627652D01*
X562702Y629793D02*
X575218Y629793D01*
X575218Y631934D02*
X562702Y631934D01*
D13*
X581660Y530860D03*
X607060Y530860D03*
X632460Y530860D03*
X657860Y530860D03*
X683260Y530860D03*
X708660Y530860D03*
D14*
X639410Y633910D03*
X650910Y633910D03*
X639410Y656410D03*
X650910Y656410D03*
D15*
X633910Y645160D03*
X656410Y645160D03*
D16*
X645160Y645160D03*
D17*
X543560Y746760D03*
X746760Y746760D03*
X746760Y543560D03*
X543560Y543560D03*
D18*
X631652Y666052D02*
X641668Y666052D01*
X631652Y666052D02*
X631652Y675068D01*
X641668Y675068D01*
X641668Y666052D01*
X641668Y668193D02*
X631652Y668193D01*
X631652Y670334D02*
X641668Y670334D01*
X641668Y672475D02*
X631652Y672475D01*
X631652Y674616D02*
X641668Y674616D01*
X648652Y666052D02*
X658668Y666052D01*
X648652Y666052D02*
X648652Y675068D01*
X658668Y675068D01*
X658668Y666052D01*
X658668Y668193D02*
X648652Y668193D01*
X648652Y670334D02*
X658668Y670334D01*
X658668Y672475D02*
X648652Y672475D01*
X648652Y674616D02*
X658668Y674616D01*
X686752Y662368D02*
X696768Y662368D01*
X696768Y653352D01*
X686752Y653352D01*
X686752Y662368D01*
X686752Y655493D02*
X696768Y655493D01*
X696768Y657634D02*
X686752Y657634D01*
X686752Y659775D02*
X696768Y659775D01*
X696768Y661916D02*
X686752Y661916D01*
X679768Y662368D02*
X669752Y662368D01*
X679768Y662368D02*
X679768Y653352D01*
X669752Y653352D01*
X669752Y662368D01*
X669752Y655493D02*
X679768Y655493D01*
X679768Y657634D02*
X669752Y657634D01*
X669752Y659775D02*
X679768Y659775D01*
X679768Y661916D02*
X669752Y661916D01*
X620568Y662368D02*
X610552Y662368D01*
X620568Y662368D02*
X620568Y653352D01*
X610552Y653352D01*
X610552Y662368D01*
X610552Y655493D02*
X620568Y655493D01*
X620568Y657634D02*
X610552Y657634D01*
X610552Y659775D02*
X620568Y659775D01*
X620568Y661916D02*
X610552Y661916D01*
X603568Y662368D02*
X593552Y662368D01*
X603568Y662368D02*
X603568Y653352D01*
X593552Y653352D01*
X593552Y662368D01*
X593552Y655493D02*
X603568Y655493D01*
X603568Y657634D02*
X593552Y657634D01*
X593552Y659775D02*
X603568Y659775D01*
X603568Y661916D02*
X593552Y661916D01*
X610552Y636968D02*
X620568Y636968D01*
X620568Y627952D01*
X610552Y627952D01*
X610552Y636968D01*
X610552Y630093D02*
X620568Y630093D01*
X620568Y632234D02*
X610552Y632234D01*
X610552Y634375D02*
X620568Y634375D01*
X620568Y636516D02*
X610552Y636516D01*
X603568Y636968D02*
X593552Y636968D01*
X603568Y636968D02*
X603568Y627952D01*
X593552Y627952D01*
X593552Y636968D01*
X593552Y630093D02*
X603568Y630093D01*
X603568Y632234D02*
X593552Y632234D01*
X593552Y634375D02*
X603568Y634375D01*
X603568Y636516D02*
X593552Y636516D01*
X686752Y636968D02*
X696768Y636968D01*
X696768Y627952D01*
X686752Y627952D01*
X686752Y636968D01*
X686752Y630093D02*
X696768Y630093D01*
X696768Y632234D02*
X686752Y632234D01*
X686752Y634375D02*
X696768Y634375D01*
X696768Y636516D02*
X686752Y636516D01*
X679768Y636968D02*
X669752Y636968D01*
X679768Y636968D02*
X679768Y627952D01*
X669752Y627952D01*
X669752Y636968D01*
X669752Y630093D02*
X679768Y630093D01*
X679768Y632234D02*
X669752Y632234D01*
X669752Y634375D02*
X679768Y634375D01*
X679768Y636516D02*
X669752Y636516D01*
X733252Y685102D02*
X743268Y685102D01*
X733252Y685102D02*
X733252Y694118D01*
X743268Y694118D01*
X743268Y685102D01*
X743268Y687243D02*
X733252Y687243D01*
X733252Y689384D02*
X743268Y689384D01*
X743268Y691525D02*
X733252Y691525D01*
X733252Y693666D02*
X743268Y693666D01*
X750252Y685102D02*
X760268Y685102D01*
X750252Y685102D02*
X750252Y694118D01*
X760268Y694118D01*
X760268Y685102D01*
X760268Y687243D02*
X750252Y687243D01*
X750252Y689384D02*
X760268Y689384D01*
X760268Y691525D02*
X750252Y691525D01*
X750252Y693666D02*
X760268Y693666D01*
D19*
X752036Y705166D02*
X752036Y712154D01*
X759024Y712154D01*
X759024Y705166D01*
X752036Y705166D01*
X752036Y709235D02*
X759024Y709235D01*
X734496Y712154D02*
X734496Y705166D01*
X734496Y712154D02*
X741484Y712154D01*
X741484Y705166D01*
X734496Y705166D01*
X734496Y709235D02*
X741484Y709235D01*
D10*
X789940Y581660D03*
X967740Y759460D03*
D11*
X1026697Y622667D02*
X1026697Y611653D01*
X1007683Y611653D01*
X1007683Y622667D01*
X1026697Y622667D01*
X1026697Y613796D02*
X1007683Y613796D01*
X1007683Y615939D02*
X1026697Y615939D01*
X1026697Y618082D02*
X1007683Y618082D01*
X1007683Y620225D02*
X1026697Y620225D01*
X1026697Y622368D02*
X1007683Y622368D01*
X1026697Y667653D02*
X1026697Y678667D01*
X1026697Y667653D02*
X1007683Y667653D01*
X1007683Y678667D01*
X1026697Y678667D01*
X1026697Y669796D02*
X1007683Y669796D01*
X1007683Y671939D02*
X1026697Y671939D01*
X1026697Y674082D02*
X1007683Y674082D01*
X1007683Y676225D02*
X1026697Y676225D01*
X1026697Y678368D02*
X1007683Y678368D01*
D12*
X986698Y632668D02*
X986698Y627652D01*
X974182Y627652D01*
X974182Y632668D01*
X986698Y632668D01*
X986698Y629793D02*
X974182Y629793D01*
X974182Y631934D02*
X986698Y631934D01*
X986698Y637652D02*
X986698Y642668D01*
X986698Y637652D02*
X974182Y637652D01*
X974182Y642668D01*
X986698Y642668D01*
X986698Y639793D02*
X974182Y639793D01*
X974182Y641934D02*
X986698Y641934D01*
X986698Y647652D02*
X986698Y652668D01*
X986698Y647652D02*
X974182Y647652D01*
X974182Y652668D01*
X986698Y652668D01*
X986698Y649793D02*
X974182Y649793D01*
X974182Y651934D02*
X986698Y651934D01*
X986698Y657652D02*
X986698Y662668D01*
X986698Y657652D02*
X974182Y657652D01*
X974182Y662668D01*
X986698Y662668D01*
X986698Y659793D02*
X974182Y659793D01*
X974182Y661934D02*
X986698Y661934D01*
D11*
X781783Y667653D02*
X781783Y678667D01*
X800797Y678667D01*
X800797Y667653D01*
X781783Y667653D01*
X781783Y669796D02*
X800797Y669796D01*
X800797Y671939D02*
X781783Y671939D01*
X781783Y674082D02*
X800797Y674082D01*
X800797Y676225D02*
X781783Y676225D01*
X781783Y678368D02*
X800797Y678368D01*
X781783Y622667D02*
X781783Y611653D01*
X781783Y622667D02*
X800797Y622667D01*
X800797Y611653D01*
X781783Y611653D01*
X781783Y613796D02*
X800797Y613796D01*
X800797Y615939D02*
X781783Y615939D01*
X781783Y618082D02*
X800797Y618082D01*
X800797Y620225D02*
X781783Y620225D01*
X781783Y622368D02*
X800797Y622368D01*
D12*
X821782Y657652D02*
X821782Y662668D01*
X834298Y662668D01*
X834298Y657652D01*
X821782Y657652D01*
X821782Y659793D02*
X834298Y659793D01*
X834298Y661934D02*
X821782Y661934D01*
X821782Y652668D02*
X821782Y647652D01*
X821782Y652668D02*
X834298Y652668D01*
X834298Y647652D01*
X821782Y647652D01*
X821782Y649793D02*
X834298Y649793D01*
X834298Y651934D02*
X821782Y651934D01*
X821782Y642668D02*
X821782Y637652D01*
X821782Y642668D02*
X834298Y642668D01*
X834298Y637652D01*
X821782Y637652D01*
X821782Y639793D02*
X834298Y639793D01*
X834298Y641934D02*
X821782Y641934D01*
X821782Y632668D02*
X821782Y627652D01*
X821782Y632668D02*
X834298Y632668D01*
X834298Y627652D01*
X821782Y627652D01*
X821782Y629793D02*
X834298Y629793D01*
X834298Y631934D02*
X821782Y631934D01*
D13*
X840740Y530860D03*
X866140Y530860D03*
X891540Y530860D03*
X916940Y530860D03*
X942340Y530860D03*
X967740Y530860D03*
D14*
X898490Y633910D03*
X909990Y633910D03*
X898490Y656410D03*
X909990Y656410D03*
D15*
X892990Y645160D03*
X915490Y645160D03*
D16*
X904240Y645160D03*
D17*
X802640Y746760D03*
X1005840Y746760D03*
X1005840Y543560D03*
X802640Y543560D03*
D18*
X890732Y666052D02*
X900748Y666052D01*
X890732Y666052D02*
X890732Y675068D01*
X900748Y675068D01*
X900748Y666052D01*
X900748Y668193D02*
X890732Y668193D01*
X890732Y670334D02*
X900748Y670334D01*
X900748Y672475D02*
X890732Y672475D01*
X890732Y674616D02*
X900748Y674616D01*
X907732Y666052D02*
X917748Y666052D01*
X907732Y666052D02*
X907732Y675068D01*
X917748Y675068D01*
X917748Y666052D01*
X917748Y668193D02*
X907732Y668193D01*
X907732Y670334D02*
X917748Y670334D01*
X917748Y672475D02*
X907732Y672475D01*
X907732Y674616D02*
X917748Y674616D01*
X945832Y662368D02*
X955848Y662368D01*
X955848Y653352D01*
X945832Y653352D01*
X945832Y662368D01*
X945832Y655493D02*
X955848Y655493D01*
X955848Y657634D02*
X945832Y657634D01*
X945832Y659775D02*
X955848Y659775D01*
X955848Y661916D02*
X945832Y661916D01*
X938848Y662368D02*
X928832Y662368D01*
X938848Y662368D02*
X938848Y653352D01*
X928832Y653352D01*
X928832Y662368D01*
X928832Y655493D02*
X938848Y655493D01*
X938848Y657634D02*
X928832Y657634D01*
X928832Y659775D02*
X938848Y659775D01*
X938848Y661916D02*
X928832Y661916D01*
X879648Y662368D02*
X869632Y662368D01*
X879648Y662368D02*
X879648Y653352D01*
X869632Y653352D01*
X869632Y662368D01*
X869632Y655493D02*
X879648Y655493D01*
X879648Y657634D02*
X869632Y657634D01*
X869632Y659775D02*
X879648Y659775D01*
X879648Y661916D02*
X869632Y661916D01*
X862648Y662368D02*
X852632Y662368D01*
X862648Y662368D02*
X862648Y653352D01*
X852632Y653352D01*
X852632Y662368D01*
X852632Y655493D02*
X862648Y655493D01*
X862648Y657634D02*
X852632Y657634D01*
X852632Y659775D02*
X862648Y659775D01*
X862648Y661916D02*
X852632Y661916D01*
X869632Y636968D02*
X879648Y636968D01*
X879648Y627952D01*
X869632Y627952D01*
X869632Y636968D01*
X869632Y630093D02*
X879648Y630093D01*
X879648Y632234D02*
X869632Y632234D01*
X869632Y634375D02*
X879648Y634375D01*
X879648Y636516D02*
X869632Y636516D01*
X862648Y636968D02*
X852632Y636968D01*
X862648Y636968D02*
X862648Y627952D01*
X852632Y627952D01*
X852632Y636968D01*
X852632Y630093D02*
X862648Y630093D01*
X862648Y632234D02*
X852632Y632234D01*
X852632Y634375D02*
X862648Y634375D01*
X862648Y636516D02*
X852632Y636516D01*
X945832Y636968D02*
X955848Y636968D01*
X955848Y627952D01*
X945832Y627952D01*
X945832Y636968D01*
X945832Y630093D02*
X955848Y630093D01*
X955848Y632234D02*
X945832Y632234D01*
X945832Y634375D02*
X955848Y634375D01*
X955848Y636516D02*
X945832Y636516D01*
X938848Y636968D02*
X928832Y636968D01*
X938848Y636968D02*
X938848Y627952D01*
X928832Y627952D01*
X928832Y636968D01*
X928832Y630093D02*
X938848Y630093D01*
X938848Y632234D02*
X928832Y632234D01*
X928832Y634375D02*
X938848Y634375D01*
X938848Y636516D02*
X928832Y636516D01*
X992332Y685102D02*
X1002348Y685102D01*
X992332Y685102D02*
X992332Y694118D01*
X1002348Y694118D01*
X1002348Y685102D01*
X1002348Y687243D02*
X992332Y687243D01*
X992332Y689384D02*
X1002348Y689384D01*
X1002348Y691525D02*
X992332Y691525D01*
X992332Y693666D02*
X1002348Y693666D01*
X1009332Y685102D02*
X1019348Y685102D01*
X1009332Y685102D02*
X1009332Y694118D01*
X1019348Y694118D01*
X1019348Y685102D01*
X1019348Y687243D02*
X1009332Y687243D01*
X1009332Y689384D02*
X1019348Y689384D01*
X1019348Y691525D02*
X1009332Y691525D01*
X1009332Y693666D02*
X1019348Y693666D01*
D19*
X1011116Y705166D02*
X1011116Y712154D01*
X1018104Y712154D01*
X1018104Y705166D01*
X1011116Y705166D01*
X1011116Y709235D02*
X1018104Y709235D01*
X993576Y712154D02*
X993576Y705166D01*
X993576Y712154D02*
X1000564Y712154D01*
X1000564Y705166D01*
X993576Y705166D01*
X993576Y709235D02*
X1000564Y709235D01*
D10*
X1049020Y581660D03*
X1226820Y759460D03*
D11*
X1285777Y622667D02*
X1285777Y611653D01*
X1266763Y611653D01*
X1266763Y622667D01*
X1285777Y622667D01*
X1285777Y613796D02*
X1266763Y613796D01*
X1266763Y615939D02*
X1285777Y615939D01*
X1285777Y618082D02*
X1266763Y618082D01*
X1266763Y620225D02*
X1285777Y620225D01*
X1285777Y622368D02*
X1266763Y622368D01*
X1285777Y667653D02*
X1285777Y678667D01*
X1285777Y667653D02*
X1266763Y667653D01*
X1266763Y678667D01*
X1285777Y678667D01*
X1285777Y669796D02*
X1266763Y669796D01*
X1266763Y671939D02*
X1285777Y671939D01*
X1285777Y674082D02*
X1266763Y674082D01*
X1266763Y676225D02*
X1285777Y676225D01*
X1285777Y678368D02*
X1266763Y678368D01*
D12*
X1245778Y632668D02*
X1245778Y627652D01*
X1233262Y627652D01*
X1233262Y632668D01*
X1245778Y632668D01*
X1245778Y629793D02*
X1233262Y629793D01*
X1233262Y631934D02*
X1245778Y631934D01*
X1245778Y637652D02*
X1245778Y642668D01*
X1245778Y637652D02*
X1233262Y637652D01*
X1233262Y642668D01*
X1245778Y642668D01*
X1245778Y639793D02*
X1233262Y639793D01*
X1233262Y641934D02*
X1245778Y641934D01*
X1245778Y647652D02*
X1245778Y652668D01*
X1245778Y647652D02*
X1233262Y647652D01*
X1233262Y652668D01*
X1245778Y652668D01*
X1245778Y649793D02*
X1233262Y649793D01*
X1233262Y651934D02*
X1245778Y651934D01*
X1245778Y657652D02*
X1245778Y662668D01*
X1245778Y657652D02*
X1233262Y657652D01*
X1233262Y662668D01*
X1245778Y662668D01*
X1245778Y659793D02*
X1233262Y659793D01*
X1233262Y661934D02*
X1245778Y661934D01*
D11*
X1040863Y667653D02*
X1040863Y678667D01*
X1059877Y678667D01*
X1059877Y667653D01*
X1040863Y667653D01*
X1040863Y669796D02*
X1059877Y669796D01*
X1059877Y671939D02*
X1040863Y671939D01*
X1040863Y674082D02*
X1059877Y674082D01*
X1059877Y676225D02*
X1040863Y676225D01*
X1040863Y678368D02*
X1059877Y678368D01*
X1040863Y622667D02*
X1040863Y611653D01*
X1040863Y622667D02*
X1059877Y622667D01*
X1059877Y611653D01*
X1040863Y611653D01*
X1040863Y613796D02*
X1059877Y613796D01*
X1059877Y615939D02*
X1040863Y615939D01*
X1040863Y618082D02*
X1059877Y618082D01*
X1059877Y620225D02*
X1040863Y620225D01*
X1040863Y622368D02*
X1059877Y622368D01*
D12*
X1080862Y657652D02*
X1080862Y662668D01*
X1093378Y662668D01*
X1093378Y657652D01*
X1080862Y657652D01*
X1080862Y659793D02*
X1093378Y659793D01*
X1093378Y661934D02*
X1080862Y661934D01*
X1080862Y652668D02*
X1080862Y647652D01*
X1080862Y652668D02*
X1093378Y652668D01*
X1093378Y647652D01*
X1080862Y647652D01*
X1080862Y649793D02*
X1093378Y649793D01*
X1093378Y651934D02*
X1080862Y651934D01*
X1080862Y642668D02*
X1080862Y637652D01*
X1080862Y642668D02*
X1093378Y642668D01*
X1093378Y637652D01*
X1080862Y637652D01*
X1080862Y639793D02*
X1093378Y639793D01*
X1093378Y641934D02*
X1080862Y641934D01*
X1080862Y632668D02*
X1080862Y627652D01*
X1080862Y632668D02*
X1093378Y632668D01*
X1093378Y627652D01*
X1080862Y627652D01*
X1080862Y629793D02*
X1093378Y629793D01*
X1093378Y631934D02*
X1080862Y631934D01*
D13*
X1099820Y530860D03*
X1125220Y530860D03*
X1150620Y530860D03*
X1176020Y530860D03*
X1201420Y530860D03*
X1226820Y530860D03*
D14*
X1157570Y633910D03*
X1169070Y633910D03*
X1157570Y656410D03*
X1169070Y656410D03*
D15*
X1152070Y645160D03*
X1174570Y645160D03*
D16*
X1163320Y645160D03*
D17*
X1061720Y746760D03*
X1264920Y746760D03*
X1264920Y543560D03*
X1061720Y543560D03*
D18*
X1149812Y666052D02*
X1159828Y666052D01*
X1149812Y666052D02*
X1149812Y675068D01*
X1159828Y675068D01*
X1159828Y666052D01*
X1159828Y668193D02*
X1149812Y668193D01*
X1149812Y670334D02*
X1159828Y670334D01*
X1159828Y672475D02*
X1149812Y672475D01*
X1149812Y674616D02*
X1159828Y674616D01*
X1166812Y666052D02*
X1176828Y666052D01*
X1166812Y666052D02*
X1166812Y675068D01*
X1176828Y675068D01*
X1176828Y666052D01*
X1176828Y668193D02*
X1166812Y668193D01*
X1166812Y670334D02*
X1176828Y670334D01*
X1176828Y672475D02*
X1166812Y672475D01*
X1166812Y674616D02*
X1176828Y674616D01*
X1204912Y662368D02*
X1214928Y662368D01*
X1214928Y653352D01*
X1204912Y653352D01*
X1204912Y662368D01*
X1204912Y655493D02*
X1214928Y655493D01*
X1214928Y657634D02*
X1204912Y657634D01*
X1204912Y659775D02*
X1214928Y659775D01*
X1214928Y661916D02*
X1204912Y661916D01*
X1197928Y662368D02*
X1187912Y662368D01*
X1197928Y662368D02*
X1197928Y653352D01*
X1187912Y653352D01*
X1187912Y662368D01*
X1187912Y655493D02*
X1197928Y655493D01*
X1197928Y657634D02*
X1187912Y657634D01*
X1187912Y659775D02*
X1197928Y659775D01*
X1197928Y661916D02*
X1187912Y661916D01*
X1138728Y662368D02*
X1128712Y662368D01*
X1138728Y662368D02*
X1138728Y653352D01*
X1128712Y653352D01*
X1128712Y662368D01*
X1128712Y655493D02*
X1138728Y655493D01*
X1138728Y657634D02*
X1128712Y657634D01*
X1128712Y659775D02*
X1138728Y659775D01*
X1138728Y661916D02*
X1128712Y661916D01*
X1121728Y662368D02*
X1111712Y662368D01*
X1121728Y662368D02*
X1121728Y653352D01*
X1111712Y653352D01*
X1111712Y662368D01*
X1111712Y655493D02*
X1121728Y655493D01*
X1121728Y657634D02*
X1111712Y657634D01*
X1111712Y659775D02*
X1121728Y659775D01*
X1121728Y661916D02*
X1111712Y661916D01*
X1128712Y636968D02*
X1138728Y636968D01*
X1138728Y627952D01*
X1128712Y627952D01*
X1128712Y636968D01*
X1128712Y630093D02*
X1138728Y630093D01*
X1138728Y632234D02*
X1128712Y632234D01*
X1128712Y634375D02*
X1138728Y634375D01*
X1138728Y636516D02*
X1128712Y636516D01*
X1121728Y636968D02*
X1111712Y636968D01*
X1121728Y636968D02*
X1121728Y627952D01*
X1111712Y627952D01*
X1111712Y636968D01*
X1111712Y630093D02*
X1121728Y630093D01*
X1121728Y632234D02*
X1111712Y632234D01*
X1111712Y634375D02*
X1121728Y634375D01*
X1121728Y636516D02*
X1111712Y636516D01*
X1204912Y636968D02*
X1214928Y636968D01*
X1214928Y627952D01*
X1204912Y627952D01*
X1204912Y636968D01*
X1204912Y630093D02*
X1214928Y630093D01*
X1214928Y632234D02*
X1204912Y632234D01*
X1204912Y634375D02*
X1214928Y634375D01*
X1214928Y636516D02*
X1204912Y636516D01*
X1197928Y636968D02*
X1187912Y636968D01*
X1197928Y636968D02*
X1197928Y627952D01*
X1187912Y627952D01*
X1187912Y636968D01*
X1187912Y630093D02*
X1197928Y630093D01*
X1197928Y632234D02*
X1187912Y632234D01*
X1187912Y634375D02*
X1197928Y634375D01*
X1197928Y636516D02*
X1187912Y636516D01*
X1251412Y685102D02*
X1261428Y685102D01*
X1251412Y685102D02*
X1251412Y694118D01*
X1261428Y694118D01*
X1261428Y685102D01*
X1261428Y687243D02*
X1251412Y687243D01*
X1251412Y689384D02*
X1261428Y689384D01*
X1261428Y691525D02*
X1251412Y691525D01*
X1251412Y693666D02*
X1261428Y693666D01*
X1268412Y685102D02*
X1278428Y685102D01*
X1268412Y685102D02*
X1268412Y694118D01*
X1278428Y694118D01*
X1278428Y685102D01*
X1278428Y687243D02*
X1268412Y687243D01*
X1268412Y689384D02*
X1278428Y689384D01*
X1278428Y691525D02*
X1268412Y691525D01*
X1268412Y693666D02*
X1278428Y693666D01*
D19*
X1270196Y705166D02*
X1270196Y712154D01*
X1277184Y712154D01*
X1277184Y705166D01*
X1270196Y705166D01*
X1270196Y709235D02*
X1277184Y709235D01*
X1252656Y712154D02*
X1252656Y705166D01*
X1252656Y712154D02*
X1259644Y712154D01*
X1259644Y705166D01*
X1252656Y705166D01*
X1252656Y709235D02*
X1259644Y709235D01*
D10*
X1308100Y581660D03*
X1485900Y759460D03*
D11*
X1544857Y622667D02*
X1544857Y611653D01*
X1525843Y611653D01*
X1525843Y622667D01*
X1544857Y622667D01*
X1544857Y613796D02*
X1525843Y613796D01*
X1525843Y615939D02*
X1544857Y615939D01*
X1544857Y618082D02*
X1525843Y618082D01*
X1525843Y620225D02*
X1544857Y620225D01*
X1544857Y622368D02*
X1525843Y622368D01*
X1544857Y667653D02*
X1544857Y678667D01*
X1544857Y667653D02*
X1525843Y667653D01*
X1525843Y678667D01*
X1544857Y678667D01*
X1544857Y669796D02*
X1525843Y669796D01*
X1525843Y671939D02*
X1544857Y671939D01*
X1544857Y674082D02*
X1525843Y674082D01*
X1525843Y676225D02*
X1544857Y676225D01*
X1544857Y678368D02*
X1525843Y678368D01*
D12*
X1504858Y632668D02*
X1504858Y627652D01*
X1492342Y627652D01*
X1492342Y632668D01*
X1504858Y632668D01*
X1504858Y629793D02*
X1492342Y629793D01*
X1492342Y631934D02*
X1504858Y631934D01*
X1504858Y637652D02*
X1504858Y642668D01*
X1504858Y637652D02*
X1492342Y637652D01*
X1492342Y642668D01*
X1504858Y642668D01*
X1504858Y639793D02*
X1492342Y639793D01*
X1492342Y641934D02*
X1504858Y641934D01*
X1504858Y647652D02*
X1504858Y652668D01*
X1504858Y647652D02*
X1492342Y647652D01*
X1492342Y652668D01*
X1504858Y652668D01*
X1504858Y649793D02*
X1492342Y649793D01*
X1492342Y651934D02*
X1504858Y651934D01*
X1504858Y657652D02*
X1504858Y662668D01*
X1504858Y657652D02*
X1492342Y657652D01*
X1492342Y662668D01*
X1504858Y662668D01*
X1504858Y659793D02*
X1492342Y659793D01*
X1492342Y661934D02*
X1504858Y661934D01*
D11*
X1299943Y667653D02*
X1299943Y678667D01*
X1318957Y678667D01*
X1318957Y667653D01*
X1299943Y667653D01*
X1299943Y669796D02*
X1318957Y669796D01*
X1318957Y671939D02*
X1299943Y671939D01*
X1299943Y674082D02*
X1318957Y674082D01*
X1318957Y676225D02*
X1299943Y676225D01*
X1299943Y678368D02*
X1318957Y678368D01*
X1299943Y622667D02*
X1299943Y611653D01*
X1299943Y622667D02*
X1318957Y622667D01*
X1318957Y611653D01*
X1299943Y611653D01*
X1299943Y613796D02*
X1318957Y613796D01*
X1318957Y615939D02*
X1299943Y615939D01*
X1299943Y618082D02*
X1318957Y618082D01*
X1318957Y620225D02*
X1299943Y620225D01*
X1299943Y622368D02*
X1318957Y622368D01*
D12*
X1339942Y657652D02*
X1339942Y662668D01*
X1352458Y662668D01*
X1352458Y657652D01*
X1339942Y657652D01*
X1339942Y659793D02*
X1352458Y659793D01*
X1352458Y661934D02*
X1339942Y661934D01*
X1339942Y652668D02*
X1339942Y647652D01*
X1339942Y652668D02*
X1352458Y652668D01*
X1352458Y647652D01*
X1339942Y647652D01*
X1339942Y649793D02*
X1352458Y649793D01*
X1352458Y651934D02*
X1339942Y651934D01*
X1339942Y642668D02*
X1339942Y637652D01*
X1339942Y642668D02*
X1352458Y642668D01*
X1352458Y637652D01*
X1339942Y637652D01*
X1339942Y639793D02*
X1352458Y639793D01*
X1352458Y641934D02*
X1339942Y641934D01*
X1339942Y632668D02*
X1339942Y627652D01*
X1339942Y632668D02*
X1352458Y632668D01*
X1352458Y627652D01*
X1339942Y627652D01*
X1339942Y629793D02*
X1352458Y629793D01*
X1352458Y631934D02*
X1339942Y631934D01*
D13*
X1358900Y530860D03*
X1384300Y530860D03*
X1409700Y530860D03*
X1435100Y530860D03*
X1460500Y530860D03*
X1485900Y530860D03*
D14*
X1416650Y633910D03*
X1428150Y633910D03*
X1416650Y656410D03*
X1428150Y656410D03*
D15*
X1411150Y645160D03*
X1433650Y645160D03*
D16*
X1422400Y645160D03*
D17*
X1320800Y746760D03*
X1524000Y746760D03*
X1524000Y543560D03*
X1320800Y543560D03*
D18*
X1408892Y666052D02*
X1418908Y666052D01*
X1408892Y666052D02*
X1408892Y675068D01*
X1418908Y675068D01*
X1418908Y666052D01*
X1418908Y668193D02*
X1408892Y668193D01*
X1408892Y670334D02*
X1418908Y670334D01*
X1418908Y672475D02*
X1408892Y672475D01*
X1408892Y674616D02*
X1418908Y674616D01*
X1425892Y666052D02*
X1435908Y666052D01*
X1425892Y666052D02*
X1425892Y675068D01*
X1435908Y675068D01*
X1435908Y666052D01*
X1435908Y668193D02*
X1425892Y668193D01*
X1425892Y670334D02*
X1435908Y670334D01*
X1435908Y672475D02*
X1425892Y672475D01*
X1425892Y674616D02*
X1435908Y674616D01*
X1463992Y662368D02*
X1474008Y662368D01*
X1474008Y653352D01*
X1463992Y653352D01*
X1463992Y662368D01*
X1463992Y655493D02*
X1474008Y655493D01*
X1474008Y657634D02*
X1463992Y657634D01*
X1463992Y659775D02*
X1474008Y659775D01*
X1474008Y661916D02*
X1463992Y661916D01*
X1457008Y662368D02*
X1446992Y662368D01*
X1457008Y662368D02*
X1457008Y653352D01*
X1446992Y653352D01*
X1446992Y662368D01*
X1446992Y655493D02*
X1457008Y655493D01*
X1457008Y657634D02*
X1446992Y657634D01*
X1446992Y659775D02*
X1457008Y659775D01*
X1457008Y661916D02*
X1446992Y661916D01*
X1397808Y662368D02*
X1387792Y662368D01*
X1397808Y662368D02*
X1397808Y653352D01*
X1387792Y653352D01*
X1387792Y662368D01*
X1387792Y655493D02*
X1397808Y655493D01*
X1397808Y657634D02*
X1387792Y657634D01*
X1387792Y659775D02*
X1397808Y659775D01*
X1397808Y661916D02*
X1387792Y661916D01*
X1380808Y662368D02*
X1370792Y662368D01*
X1380808Y662368D02*
X1380808Y653352D01*
X1370792Y653352D01*
X1370792Y662368D01*
X1370792Y655493D02*
X1380808Y655493D01*
X1380808Y657634D02*
X1370792Y657634D01*
X1370792Y659775D02*
X1380808Y659775D01*
X1380808Y661916D02*
X1370792Y661916D01*
X1387792Y636968D02*
X1397808Y636968D01*
X1397808Y627952D01*
X1387792Y627952D01*
X1387792Y636968D01*
X1387792Y630093D02*
X1397808Y630093D01*
X1397808Y632234D02*
X1387792Y632234D01*
X1387792Y634375D02*
X1397808Y634375D01*
X1397808Y636516D02*
X1387792Y636516D01*
X1380808Y636968D02*
X1370792Y636968D01*
X1380808Y636968D02*
X1380808Y627952D01*
X1370792Y627952D01*
X1370792Y636968D01*
X1370792Y630093D02*
X1380808Y630093D01*
X1380808Y632234D02*
X1370792Y632234D01*
X1370792Y634375D02*
X1380808Y634375D01*
X1380808Y636516D02*
X1370792Y636516D01*
X1463992Y636968D02*
X1474008Y636968D01*
X1474008Y627952D01*
X1463992Y627952D01*
X1463992Y636968D01*
X1463992Y630093D02*
X1474008Y630093D01*
X1474008Y632234D02*
X1463992Y632234D01*
X1463992Y634375D02*
X1474008Y634375D01*
X1474008Y636516D02*
X1463992Y636516D01*
X1457008Y636968D02*
X1446992Y636968D01*
X1457008Y636968D02*
X1457008Y627952D01*
X1446992Y627952D01*
X1446992Y636968D01*
X1446992Y630093D02*
X1457008Y630093D01*
X1457008Y632234D02*
X1446992Y632234D01*
X1446992Y634375D02*
X1457008Y634375D01*
X1457008Y636516D02*
X1446992Y636516D01*
X1510492Y685102D02*
X1520508Y685102D01*
X1510492Y685102D02*
X1510492Y694118D01*
X1520508Y694118D01*
X1520508Y685102D01*
X1520508Y687243D02*
X1510492Y687243D01*
X1510492Y689384D02*
X1520508Y689384D01*
X1520508Y691525D02*
X1510492Y691525D01*
X1510492Y693666D02*
X1520508Y693666D01*
X1527492Y685102D02*
X1537508Y685102D01*
X1527492Y685102D02*
X1527492Y694118D01*
X1537508Y694118D01*
X1537508Y685102D01*
X1537508Y687243D02*
X1527492Y687243D01*
X1527492Y689384D02*
X1537508Y689384D01*
X1537508Y691525D02*
X1527492Y691525D01*
X1527492Y693666D02*
X1537508Y693666D01*
D19*
X1529276Y705166D02*
X1529276Y712154D01*
X1536264Y712154D01*
X1536264Y705166D01*
X1529276Y705166D01*
X1529276Y709235D02*
X1536264Y709235D01*
X1511736Y712154D02*
X1511736Y705166D01*
X1511736Y712154D02*
X1518724Y712154D01*
X1518724Y705166D01*
X1511736Y705166D01*
X1511736Y709235D02*
X1518724Y709235D01*
D10*
X12700Y840740D03*
X190500Y1018540D03*
D11*
X249457Y881747D02*
X249457Y870733D01*
X230443Y870733D01*
X230443Y881747D01*
X249457Y881747D01*
X249457Y872876D02*
X230443Y872876D01*
X230443Y875019D02*
X249457Y875019D01*
X249457Y877162D02*
X230443Y877162D01*
X230443Y879305D02*
X249457Y879305D01*
X249457Y881448D02*
X230443Y881448D01*
X249457Y926733D02*
X249457Y937747D01*
X249457Y926733D02*
X230443Y926733D01*
X230443Y937747D01*
X249457Y937747D01*
X249457Y928876D02*
X230443Y928876D01*
X230443Y931019D02*
X249457Y931019D01*
X249457Y933162D02*
X230443Y933162D01*
X230443Y935305D02*
X249457Y935305D01*
X249457Y937448D02*
X230443Y937448D01*
D12*
X209458Y891748D02*
X209458Y886732D01*
X196942Y886732D01*
X196942Y891748D01*
X209458Y891748D01*
X209458Y888873D02*
X196942Y888873D01*
X196942Y891014D02*
X209458Y891014D01*
X209458Y896732D02*
X209458Y901748D01*
X209458Y896732D02*
X196942Y896732D01*
X196942Y901748D01*
X209458Y901748D01*
X209458Y898873D02*
X196942Y898873D01*
X196942Y901014D02*
X209458Y901014D01*
X209458Y906732D02*
X209458Y911748D01*
X209458Y906732D02*
X196942Y906732D01*
X196942Y911748D01*
X209458Y911748D01*
X209458Y908873D02*
X196942Y908873D01*
X196942Y911014D02*
X209458Y911014D01*
X209458Y916732D02*
X209458Y921748D01*
X209458Y916732D02*
X196942Y916732D01*
X196942Y921748D01*
X209458Y921748D01*
X209458Y918873D02*
X196942Y918873D01*
X196942Y921014D02*
X209458Y921014D01*
D11*
X4543Y926733D02*
X4543Y937747D01*
X23557Y937747D01*
X23557Y926733D01*
X4543Y926733D01*
X4543Y928876D02*
X23557Y928876D01*
X23557Y931019D02*
X4543Y931019D01*
X4543Y933162D02*
X23557Y933162D01*
X23557Y935305D02*
X4543Y935305D01*
X4543Y937448D02*
X23557Y937448D01*
X4543Y881747D02*
X4543Y870733D01*
X4543Y881747D02*
X23557Y881747D01*
X23557Y870733D01*
X4543Y870733D01*
X4543Y872876D02*
X23557Y872876D01*
X23557Y875019D02*
X4543Y875019D01*
X4543Y877162D02*
X23557Y877162D01*
X23557Y879305D02*
X4543Y879305D01*
X4543Y881448D02*
X23557Y881448D01*
D12*
X44542Y916732D02*
X44542Y921748D01*
X57058Y921748D01*
X57058Y916732D01*
X44542Y916732D01*
X44542Y918873D02*
X57058Y918873D01*
X57058Y921014D02*
X44542Y921014D01*
X44542Y911748D02*
X44542Y906732D01*
X44542Y911748D02*
X57058Y911748D01*
X57058Y906732D01*
X44542Y906732D01*
X44542Y908873D02*
X57058Y908873D01*
X57058Y911014D02*
X44542Y911014D01*
X44542Y901748D02*
X44542Y896732D01*
X44542Y901748D02*
X57058Y901748D01*
X57058Y896732D01*
X44542Y896732D01*
X44542Y898873D02*
X57058Y898873D01*
X57058Y901014D02*
X44542Y901014D01*
X44542Y891748D02*
X44542Y886732D01*
X44542Y891748D02*
X57058Y891748D01*
X57058Y886732D01*
X44542Y886732D01*
X44542Y888873D02*
X57058Y888873D01*
X57058Y891014D02*
X44542Y891014D01*
D13*
X63500Y789940D03*
X88900Y789940D03*
X114300Y789940D03*
X139700Y789940D03*
X165100Y789940D03*
X190500Y789940D03*
D14*
X121250Y892990D03*
X132750Y892990D03*
X121250Y915490D03*
X132750Y915490D03*
D15*
X115750Y904240D03*
X138250Y904240D03*
D16*
X127000Y904240D03*
D17*
X25400Y1005840D03*
X228600Y1005840D03*
X228600Y802640D03*
X25400Y802640D03*
D18*
X113492Y925132D02*
X123508Y925132D01*
X113492Y925132D02*
X113492Y934148D01*
X123508Y934148D01*
X123508Y925132D01*
X123508Y927273D02*
X113492Y927273D01*
X113492Y929414D02*
X123508Y929414D01*
X123508Y931555D02*
X113492Y931555D01*
X113492Y933696D02*
X123508Y933696D01*
X130492Y925132D02*
X140508Y925132D01*
X130492Y925132D02*
X130492Y934148D01*
X140508Y934148D01*
X140508Y925132D01*
X140508Y927273D02*
X130492Y927273D01*
X130492Y929414D02*
X140508Y929414D01*
X140508Y931555D02*
X130492Y931555D01*
X130492Y933696D02*
X140508Y933696D01*
X168592Y921448D02*
X178608Y921448D01*
X178608Y912432D01*
X168592Y912432D01*
X168592Y921448D01*
X168592Y914573D02*
X178608Y914573D01*
X178608Y916714D02*
X168592Y916714D01*
X168592Y918855D02*
X178608Y918855D01*
X178608Y920996D02*
X168592Y920996D01*
X161608Y921448D02*
X151592Y921448D01*
X161608Y921448D02*
X161608Y912432D01*
X151592Y912432D01*
X151592Y921448D01*
X151592Y914573D02*
X161608Y914573D01*
X161608Y916714D02*
X151592Y916714D01*
X151592Y918855D02*
X161608Y918855D01*
X161608Y920996D02*
X151592Y920996D01*
X102408Y921448D02*
X92392Y921448D01*
X102408Y921448D02*
X102408Y912432D01*
X92392Y912432D01*
X92392Y921448D01*
X92392Y914573D02*
X102408Y914573D01*
X102408Y916714D02*
X92392Y916714D01*
X92392Y918855D02*
X102408Y918855D01*
X102408Y920996D02*
X92392Y920996D01*
X85408Y921448D02*
X75392Y921448D01*
X85408Y921448D02*
X85408Y912432D01*
X75392Y912432D01*
X75392Y921448D01*
X75392Y914573D02*
X85408Y914573D01*
X85408Y916714D02*
X75392Y916714D01*
X75392Y918855D02*
X85408Y918855D01*
X85408Y920996D02*
X75392Y920996D01*
X92392Y896048D02*
X102408Y896048D01*
X102408Y887032D01*
X92392Y887032D01*
X92392Y896048D01*
X92392Y889173D02*
X102408Y889173D01*
X102408Y891314D02*
X92392Y891314D01*
X92392Y893455D02*
X102408Y893455D01*
X102408Y895596D02*
X92392Y895596D01*
X85408Y896048D02*
X75392Y896048D01*
X85408Y896048D02*
X85408Y887032D01*
X75392Y887032D01*
X75392Y896048D01*
X75392Y889173D02*
X85408Y889173D01*
X85408Y891314D02*
X75392Y891314D01*
X75392Y893455D02*
X85408Y893455D01*
X85408Y895596D02*
X75392Y895596D01*
X168592Y896048D02*
X178608Y896048D01*
X178608Y887032D01*
X168592Y887032D01*
X168592Y896048D01*
X168592Y889173D02*
X178608Y889173D01*
X178608Y891314D02*
X168592Y891314D01*
X168592Y893455D02*
X178608Y893455D01*
X178608Y895596D02*
X168592Y895596D01*
X161608Y896048D02*
X151592Y896048D01*
X161608Y896048D02*
X161608Y887032D01*
X151592Y887032D01*
X151592Y896048D01*
X151592Y889173D02*
X161608Y889173D01*
X161608Y891314D02*
X151592Y891314D01*
X151592Y893455D02*
X161608Y893455D01*
X161608Y895596D02*
X151592Y895596D01*
X215092Y944182D02*
X225108Y944182D01*
X215092Y944182D02*
X215092Y953198D01*
X225108Y953198D01*
X225108Y944182D01*
X225108Y946323D02*
X215092Y946323D01*
X215092Y948464D02*
X225108Y948464D01*
X225108Y950605D02*
X215092Y950605D01*
X215092Y952746D02*
X225108Y952746D01*
X232092Y944182D02*
X242108Y944182D01*
X232092Y944182D02*
X232092Y953198D01*
X242108Y953198D01*
X242108Y944182D01*
X242108Y946323D02*
X232092Y946323D01*
X232092Y948464D02*
X242108Y948464D01*
X242108Y950605D02*
X232092Y950605D01*
X232092Y952746D02*
X242108Y952746D01*
D19*
X233876Y964246D02*
X233876Y971234D01*
X240864Y971234D01*
X240864Y964246D01*
X233876Y964246D01*
X233876Y968315D02*
X240864Y968315D01*
X216336Y971234D02*
X216336Y964246D01*
X216336Y971234D02*
X223324Y971234D01*
X223324Y964246D01*
X216336Y964246D01*
X216336Y968315D02*
X223324Y968315D01*
D10*
X271780Y840740D03*
X449580Y1018540D03*
D11*
X508537Y881747D02*
X508537Y870733D01*
X489523Y870733D01*
X489523Y881747D01*
X508537Y881747D01*
X508537Y872876D02*
X489523Y872876D01*
X489523Y875019D02*
X508537Y875019D01*
X508537Y877162D02*
X489523Y877162D01*
X489523Y879305D02*
X508537Y879305D01*
X508537Y881448D02*
X489523Y881448D01*
X508537Y926733D02*
X508537Y937747D01*
X508537Y926733D02*
X489523Y926733D01*
X489523Y937747D01*
X508537Y937747D01*
X508537Y928876D02*
X489523Y928876D01*
X489523Y931019D02*
X508537Y931019D01*
X508537Y933162D02*
X489523Y933162D01*
X489523Y935305D02*
X508537Y935305D01*
X508537Y937448D02*
X489523Y937448D01*
D12*
X468538Y891748D02*
X468538Y886732D01*
X456022Y886732D01*
X456022Y891748D01*
X468538Y891748D01*
X468538Y888873D02*
X456022Y888873D01*
X456022Y891014D02*
X468538Y891014D01*
X468538Y896732D02*
X468538Y901748D01*
X468538Y896732D02*
X456022Y896732D01*
X456022Y901748D01*
X468538Y901748D01*
X468538Y898873D02*
X456022Y898873D01*
X456022Y901014D02*
X468538Y901014D01*
X468538Y906732D02*
X468538Y911748D01*
X468538Y906732D02*
X456022Y906732D01*
X456022Y911748D01*
X468538Y911748D01*
X468538Y908873D02*
X456022Y908873D01*
X456022Y911014D02*
X468538Y911014D01*
X468538Y916732D02*
X468538Y921748D01*
X468538Y916732D02*
X456022Y916732D01*
X456022Y921748D01*
X468538Y921748D01*
X468538Y918873D02*
X456022Y918873D01*
X456022Y921014D02*
X468538Y921014D01*
D11*
X263623Y926733D02*
X263623Y937747D01*
X282637Y937747D01*
X282637Y926733D01*
X263623Y926733D01*
X263623Y928876D02*
X282637Y928876D01*
X282637Y931019D02*
X263623Y931019D01*
X263623Y933162D02*
X282637Y933162D01*
X282637Y935305D02*
X263623Y935305D01*
X263623Y937448D02*
X282637Y937448D01*
X263623Y881747D02*
X263623Y870733D01*
X263623Y881747D02*
X282637Y881747D01*
X282637Y870733D01*
X263623Y870733D01*
X263623Y872876D02*
X282637Y872876D01*
X282637Y875019D02*
X263623Y875019D01*
X263623Y877162D02*
X282637Y877162D01*
X282637Y879305D02*
X263623Y879305D01*
X263623Y881448D02*
X282637Y881448D01*
D12*
X303622Y916732D02*
X303622Y921748D01*
X316138Y921748D01*
X316138Y916732D01*
X303622Y916732D01*
X303622Y918873D02*
X316138Y918873D01*
X316138Y921014D02*
X303622Y921014D01*
X303622Y911748D02*
X303622Y906732D01*
X303622Y911748D02*
X316138Y911748D01*
X316138Y906732D01*
X303622Y906732D01*
X303622Y908873D02*
X316138Y908873D01*
X316138Y911014D02*
X303622Y911014D01*
X303622Y901748D02*
X303622Y896732D01*
X303622Y901748D02*
X316138Y901748D01*
X316138Y896732D01*
X303622Y896732D01*
X303622Y898873D02*
X316138Y898873D01*
X316138Y901014D02*
X303622Y901014D01*
X303622Y891748D02*
X303622Y886732D01*
X303622Y891748D02*
X316138Y891748D01*
X316138Y886732D01*
X303622Y886732D01*
X303622Y888873D02*
X316138Y888873D01*
X316138Y891014D02*
X303622Y891014D01*
D13*
X322580Y789940D03*
X347980Y789940D03*
X373380Y789940D03*
X398780Y789940D03*
X424180Y789940D03*
X449580Y789940D03*
D14*
X380330Y892990D03*
X391830Y892990D03*
X380330Y915490D03*
X391830Y915490D03*
D15*
X374830Y904240D03*
X397330Y904240D03*
D16*
X386080Y904240D03*
D17*
X284480Y1005840D03*
X487680Y1005840D03*
X487680Y802640D03*
X284480Y802640D03*
D18*
X372572Y925132D02*
X382588Y925132D01*
X372572Y925132D02*
X372572Y934148D01*
X382588Y934148D01*
X382588Y925132D01*
X382588Y927273D02*
X372572Y927273D01*
X372572Y929414D02*
X382588Y929414D01*
X382588Y931555D02*
X372572Y931555D01*
X372572Y933696D02*
X382588Y933696D01*
X389572Y925132D02*
X399588Y925132D01*
X389572Y925132D02*
X389572Y934148D01*
X399588Y934148D01*
X399588Y925132D01*
X399588Y927273D02*
X389572Y927273D01*
X389572Y929414D02*
X399588Y929414D01*
X399588Y931555D02*
X389572Y931555D01*
X389572Y933696D02*
X399588Y933696D01*
X427672Y921448D02*
X437688Y921448D01*
X437688Y912432D01*
X427672Y912432D01*
X427672Y921448D01*
X427672Y914573D02*
X437688Y914573D01*
X437688Y916714D02*
X427672Y916714D01*
X427672Y918855D02*
X437688Y918855D01*
X437688Y920996D02*
X427672Y920996D01*
X420688Y921448D02*
X410672Y921448D01*
X420688Y921448D02*
X420688Y912432D01*
X410672Y912432D01*
X410672Y921448D01*
X410672Y914573D02*
X420688Y914573D01*
X420688Y916714D02*
X410672Y916714D01*
X410672Y918855D02*
X420688Y918855D01*
X420688Y920996D02*
X410672Y920996D01*
X361488Y921448D02*
X351472Y921448D01*
X361488Y921448D02*
X361488Y912432D01*
X351472Y912432D01*
X351472Y921448D01*
X351472Y914573D02*
X361488Y914573D01*
X361488Y916714D02*
X351472Y916714D01*
X351472Y918855D02*
X361488Y918855D01*
X361488Y920996D02*
X351472Y920996D01*
X344488Y921448D02*
X334472Y921448D01*
X344488Y921448D02*
X344488Y912432D01*
X334472Y912432D01*
X334472Y921448D01*
X334472Y914573D02*
X344488Y914573D01*
X344488Y916714D02*
X334472Y916714D01*
X334472Y918855D02*
X344488Y918855D01*
X344488Y920996D02*
X334472Y920996D01*
X351472Y896048D02*
X361488Y896048D01*
X361488Y887032D01*
X351472Y887032D01*
X351472Y896048D01*
X351472Y889173D02*
X361488Y889173D01*
X361488Y891314D02*
X351472Y891314D01*
X351472Y893455D02*
X361488Y893455D01*
X361488Y895596D02*
X351472Y895596D01*
X344488Y896048D02*
X334472Y896048D01*
X344488Y896048D02*
X344488Y887032D01*
X334472Y887032D01*
X334472Y896048D01*
X334472Y889173D02*
X344488Y889173D01*
X344488Y891314D02*
X334472Y891314D01*
X334472Y893455D02*
X344488Y893455D01*
X344488Y895596D02*
X334472Y895596D01*
X427672Y896048D02*
X437688Y896048D01*
X437688Y887032D01*
X427672Y887032D01*
X427672Y896048D01*
X427672Y889173D02*
X437688Y889173D01*
X437688Y891314D02*
X427672Y891314D01*
X427672Y893455D02*
X437688Y893455D01*
X437688Y895596D02*
X427672Y895596D01*
X420688Y896048D02*
X410672Y896048D01*
X420688Y896048D02*
X420688Y887032D01*
X410672Y887032D01*
X410672Y896048D01*
X410672Y889173D02*
X420688Y889173D01*
X420688Y891314D02*
X410672Y891314D01*
X410672Y893455D02*
X420688Y893455D01*
X420688Y895596D02*
X410672Y895596D01*
X474172Y944182D02*
X484188Y944182D01*
X474172Y944182D02*
X474172Y953198D01*
X484188Y953198D01*
X484188Y944182D01*
X484188Y946323D02*
X474172Y946323D01*
X474172Y948464D02*
X484188Y948464D01*
X484188Y950605D02*
X474172Y950605D01*
X474172Y952746D02*
X484188Y952746D01*
X491172Y944182D02*
X501188Y944182D01*
X491172Y944182D02*
X491172Y953198D01*
X501188Y953198D01*
X501188Y944182D01*
X501188Y946323D02*
X491172Y946323D01*
X491172Y948464D02*
X501188Y948464D01*
X501188Y950605D02*
X491172Y950605D01*
X491172Y952746D02*
X501188Y952746D01*
D19*
X492956Y964246D02*
X492956Y971234D01*
X499944Y971234D01*
X499944Y964246D01*
X492956Y964246D01*
X492956Y968315D02*
X499944Y968315D01*
X475416Y971234D02*
X475416Y964246D01*
X475416Y971234D02*
X482404Y971234D01*
X482404Y964246D01*
X475416Y964246D01*
X475416Y968315D02*
X482404Y968315D01*
D10*
X530860Y840740D03*
X708660Y1018540D03*
D11*
X767617Y881747D02*
X767617Y870733D01*
X748603Y870733D01*
X748603Y881747D01*
X767617Y881747D01*
X767617Y872876D02*
X748603Y872876D01*
X748603Y875019D02*
X767617Y875019D01*
X767617Y877162D02*
X748603Y877162D01*
X748603Y879305D02*
X767617Y879305D01*
X767617Y881448D02*
X748603Y881448D01*
X767617Y926733D02*
X767617Y937747D01*
X767617Y926733D02*
X748603Y926733D01*
X748603Y937747D01*
X767617Y937747D01*
X767617Y928876D02*
X748603Y928876D01*
X748603Y931019D02*
X767617Y931019D01*
X767617Y933162D02*
X748603Y933162D01*
X748603Y935305D02*
X767617Y935305D01*
X767617Y937448D02*
X748603Y937448D01*
D12*
X727618Y891748D02*
X727618Y886732D01*
X715102Y886732D01*
X715102Y891748D01*
X727618Y891748D01*
X727618Y888873D02*
X715102Y888873D01*
X715102Y891014D02*
X727618Y891014D01*
X727618Y896732D02*
X727618Y901748D01*
X727618Y896732D02*
X715102Y896732D01*
X715102Y901748D01*
X727618Y901748D01*
X727618Y898873D02*
X715102Y898873D01*
X715102Y901014D02*
X727618Y901014D01*
X727618Y906732D02*
X727618Y911748D01*
X727618Y906732D02*
X715102Y906732D01*
X715102Y911748D01*
X727618Y911748D01*
X727618Y908873D02*
X715102Y908873D01*
X715102Y911014D02*
X727618Y911014D01*
X727618Y916732D02*
X727618Y921748D01*
X727618Y916732D02*
X715102Y916732D01*
X715102Y921748D01*
X727618Y921748D01*
X727618Y918873D02*
X715102Y918873D01*
X715102Y921014D02*
X727618Y921014D01*
D11*
X522703Y926733D02*
X522703Y937747D01*
X541717Y937747D01*
X541717Y926733D01*
X522703Y926733D01*
X522703Y928876D02*
X541717Y928876D01*
X541717Y931019D02*
X522703Y931019D01*
X522703Y933162D02*
X541717Y933162D01*
X541717Y935305D02*
X522703Y935305D01*
X522703Y937448D02*
X541717Y937448D01*
X522703Y881747D02*
X522703Y870733D01*
X522703Y881747D02*
X541717Y881747D01*
X541717Y870733D01*
X522703Y870733D01*
X522703Y872876D02*
X541717Y872876D01*
X541717Y875019D02*
X522703Y875019D01*
X522703Y877162D02*
X541717Y877162D01*
X541717Y879305D02*
X522703Y879305D01*
X522703Y881448D02*
X541717Y881448D01*
D12*
X562702Y916732D02*
X562702Y921748D01*
X575218Y921748D01*
X575218Y916732D01*
X562702Y916732D01*
X562702Y918873D02*
X575218Y918873D01*
X575218Y921014D02*
X562702Y921014D01*
X562702Y911748D02*
X562702Y906732D01*
X562702Y911748D02*
X575218Y911748D01*
X575218Y906732D01*
X562702Y906732D01*
X562702Y908873D02*
X575218Y908873D01*
X575218Y911014D02*
X562702Y911014D01*
X562702Y901748D02*
X562702Y896732D01*
X562702Y901748D02*
X575218Y901748D01*
X575218Y896732D01*
X562702Y896732D01*
X562702Y898873D02*
X575218Y898873D01*
X575218Y901014D02*
X562702Y901014D01*
X562702Y891748D02*
X562702Y886732D01*
X562702Y891748D02*
X575218Y891748D01*
X575218Y886732D01*
X562702Y886732D01*
X562702Y888873D02*
X575218Y888873D01*
X575218Y891014D02*
X562702Y891014D01*
D13*
X581660Y789940D03*
X607060Y789940D03*
X632460Y789940D03*
X657860Y789940D03*
X683260Y789940D03*
X708660Y789940D03*
D14*
X639410Y892990D03*
X650910Y892990D03*
X639410Y915490D03*
X650910Y915490D03*
D15*
X633910Y904240D03*
X656410Y904240D03*
D16*
X645160Y904240D03*
D17*
X543560Y1005840D03*
X746760Y1005840D03*
X746760Y802640D03*
X543560Y802640D03*
D18*
X631652Y925132D02*
X641668Y925132D01*
X631652Y925132D02*
X631652Y934148D01*
X641668Y934148D01*
X641668Y925132D01*
X641668Y927273D02*
X631652Y927273D01*
X631652Y929414D02*
X641668Y929414D01*
X641668Y931555D02*
X631652Y931555D01*
X631652Y933696D02*
X641668Y933696D01*
X648652Y925132D02*
X658668Y925132D01*
X648652Y925132D02*
X648652Y934148D01*
X658668Y934148D01*
X658668Y925132D01*
X658668Y927273D02*
X648652Y927273D01*
X648652Y929414D02*
X658668Y929414D01*
X658668Y931555D02*
X648652Y931555D01*
X648652Y933696D02*
X658668Y933696D01*
X686752Y921448D02*
X696768Y921448D01*
X696768Y912432D01*
X686752Y912432D01*
X686752Y921448D01*
X686752Y914573D02*
X696768Y914573D01*
X696768Y916714D02*
X686752Y916714D01*
X686752Y918855D02*
X696768Y918855D01*
X696768Y920996D02*
X686752Y920996D01*
X679768Y921448D02*
X669752Y921448D01*
X679768Y921448D02*
X679768Y912432D01*
X669752Y912432D01*
X669752Y921448D01*
X669752Y914573D02*
X679768Y914573D01*
X679768Y916714D02*
X669752Y916714D01*
X669752Y918855D02*
X679768Y918855D01*
X679768Y920996D02*
X669752Y920996D01*
X620568Y921448D02*
X610552Y921448D01*
X620568Y921448D02*
X620568Y912432D01*
X610552Y912432D01*
X610552Y921448D01*
X610552Y914573D02*
X620568Y914573D01*
X620568Y916714D02*
X610552Y916714D01*
X610552Y918855D02*
X620568Y918855D01*
X620568Y920996D02*
X610552Y920996D01*
X603568Y921448D02*
X593552Y921448D01*
X603568Y921448D02*
X603568Y912432D01*
X593552Y912432D01*
X593552Y921448D01*
X593552Y914573D02*
X603568Y914573D01*
X603568Y916714D02*
X593552Y916714D01*
X593552Y918855D02*
X603568Y918855D01*
X603568Y920996D02*
X593552Y920996D01*
X610552Y896048D02*
X620568Y896048D01*
X620568Y887032D01*
X610552Y887032D01*
X610552Y896048D01*
X610552Y889173D02*
X620568Y889173D01*
X620568Y891314D02*
X610552Y891314D01*
X610552Y893455D02*
X620568Y893455D01*
X620568Y895596D02*
X610552Y895596D01*
X603568Y896048D02*
X593552Y896048D01*
X603568Y896048D02*
X603568Y887032D01*
X593552Y887032D01*
X593552Y896048D01*
X593552Y889173D02*
X603568Y889173D01*
X603568Y891314D02*
X593552Y891314D01*
X593552Y893455D02*
X603568Y893455D01*
X603568Y895596D02*
X593552Y895596D01*
X686752Y896048D02*
X696768Y896048D01*
X696768Y887032D01*
X686752Y887032D01*
X686752Y896048D01*
X686752Y889173D02*
X696768Y889173D01*
X696768Y891314D02*
X686752Y891314D01*
X686752Y893455D02*
X696768Y893455D01*
X696768Y895596D02*
X686752Y895596D01*
X679768Y896048D02*
X669752Y896048D01*
X679768Y896048D02*
X679768Y887032D01*
X669752Y887032D01*
X669752Y896048D01*
X669752Y889173D02*
X679768Y889173D01*
X679768Y891314D02*
X669752Y891314D01*
X669752Y893455D02*
X679768Y893455D01*
X679768Y895596D02*
X669752Y895596D01*
X733252Y944182D02*
X743268Y944182D01*
X733252Y944182D02*
X733252Y953198D01*
X743268Y953198D01*
X743268Y944182D01*
X743268Y946323D02*
X733252Y946323D01*
X733252Y948464D02*
X743268Y948464D01*
X743268Y950605D02*
X733252Y950605D01*
X733252Y952746D02*
X743268Y952746D01*
X750252Y944182D02*
X760268Y944182D01*
X750252Y944182D02*
X750252Y953198D01*
X760268Y953198D01*
X760268Y944182D01*
X760268Y946323D02*
X750252Y946323D01*
X750252Y948464D02*
X760268Y948464D01*
X760268Y950605D02*
X750252Y950605D01*
X750252Y952746D02*
X760268Y952746D01*
D19*
X752036Y964246D02*
X752036Y971234D01*
X759024Y971234D01*
X759024Y964246D01*
X752036Y964246D01*
X752036Y968315D02*
X759024Y968315D01*
X734496Y971234D02*
X734496Y964246D01*
X734496Y971234D02*
X741484Y971234D01*
X741484Y964246D01*
X734496Y964246D01*
X734496Y968315D02*
X741484Y968315D01*
D10*
X789940Y840740D03*
X967740Y1018540D03*
D11*
X1026697Y881747D02*
X1026697Y870733D01*
X1007683Y870733D01*
X1007683Y881747D01*
X1026697Y881747D01*
X1026697Y872876D02*
X1007683Y872876D01*
X1007683Y875019D02*
X1026697Y875019D01*
X1026697Y877162D02*
X1007683Y877162D01*
X1007683Y879305D02*
X1026697Y879305D01*
X1026697Y881448D02*
X1007683Y881448D01*
X1026697Y926733D02*
X1026697Y937747D01*
X1026697Y926733D02*
X1007683Y926733D01*
X1007683Y937747D01*
X1026697Y937747D01*
X1026697Y928876D02*
X1007683Y928876D01*
X1007683Y931019D02*
X1026697Y931019D01*
X1026697Y933162D02*
X1007683Y933162D01*
X1007683Y935305D02*
X1026697Y935305D01*
X1026697Y937448D02*
X1007683Y937448D01*
D12*
X986698Y891748D02*
X986698Y886732D01*
X974182Y886732D01*
X974182Y891748D01*
X986698Y891748D01*
X986698Y888873D02*
X974182Y888873D01*
X974182Y891014D02*
X986698Y891014D01*
X986698Y896732D02*
X986698Y901748D01*
X986698Y896732D02*
X974182Y896732D01*
X974182Y901748D01*
X986698Y901748D01*
X986698Y898873D02*
X974182Y898873D01*
X974182Y901014D02*
X986698Y901014D01*
X986698Y906732D02*
X986698Y911748D01*
X986698Y906732D02*
X974182Y906732D01*
X974182Y911748D01*
X986698Y911748D01*
X986698Y908873D02*
X974182Y908873D01*
X974182Y911014D02*
X986698Y911014D01*
X986698Y916732D02*
X986698Y921748D01*
X986698Y916732D02*
X974182Y916732D01*
X974182Y921748D01*
X986698Y921748D01*
X986698Y918873D02*
X974182Y918873D01*
X974182Y921014D02*
X986698Y921014D01*
D11*
X781783Y926733D02*
X781783Y937747D01*
X800797Y937747D01*
X800797Y926733D01*
X781783Y926733D01*
X781783Y928876D02*
X800797Y928876D01*
X800797Y931019D02*
X781783Y931019D01*
X781783Y933162D02*
X800797Y933162D01*
X800797Y935305D02*
X781783Y935305D01*
X781783Y937448D02*
X800797Y937448D01*
X781783Y881747D02*
X781783Y870733D01*
X781783Y881747D02*
X800797Y881747D01*
X800797Y870733D01*
X781783Y870733D01*
X781783Y872876D02*
X800797Y872876D01*
X800797Y875019D02*
X781783Y875019D01*
X781783Y877162D02*
X800797Y877162D01*
X800797Y879305D02*
X781783Y879305D01*
X781783Y881448D02*
X800797Y881448D01*
D12*
X821782Y916732D02*
X821782Y921748D01*
X834298Y921748D01*
X834298Y916732D01*
X821782Y916732D01*
X821782Y918873D02*
X834298Y918873D01*
X834298Y921014D02*
X821782Y921014D01*
X821782Y911748D02*
X821782Y906732D01*
X821782Y911748D02*
X834298Y911748D01*
X834298Y906732D01*
X821782Y906732D01*
X821782Y908873D02*
X834298Y908873D01*
X834298Y911014D02*
X821782Y911014D01*
X821782Y901748D02*
X821782Y896732D01*
X821782Y901748D02*
X834298Y901748D01*
X834298Y896732D01*
X821782Y896732D01*
X821782Y898873D02*
X834298Y898873D01*
X834298Y901014D02*
X821782Y901014D01*
X821782Y891748D02*
X821782Y886732D01*
X821782Y891748D02*
X834298Y891748D01*
X834298Y886732D01*
X821782Y886732D01*
X821782Y888873D02*
X834298Y888873D01*
X834298Y891014D02*
X821782Y891014D01*
D13*
X840740Y789940D03*
X866140Y789940D03*
X891540Y789940D03*
X916940Y789940D03*
X942340Y789940D03*
X967740Y789940D03*
D14*
X898490Y892990D03*
X909990Y892990D03*
X898490Y915490D03*
X909990Y915490D03*
D15*
X892990Y904240D03*
X915490Y904240D03*
D16*
X904240Y904240D03*
D17*
X802640Y1005840D03*
X1005840Y1005840D03*
X1005840Y802640D03*
X802640Y802640D03*
D18*
X890732Y925132D02*
X900748Y925132D01*
X890732Y925132D02*
X890732Y934148D01*
X900748Y934148D01*
X900748Y925132D01*
X900748Y927273D02*
X890732Y927273D01*
X890732Y929414D02*
X900748Y929414D01*
X900748Y931555D02*
X890732Y931555D01*
X890732Y933696D02*
X900748Y933696D01*
X907732Y925132D02*
X917748Y925132D01*
X907732Y925132D02*
X907732Y934148D01*
X917748Y934148D01*
X917748Y925132D01*
X917748Y927273D02*
X907732Y927273D01*
X907732Y929414D02*
X917748Y929414D01*
X917748Y931555D02*
X907732Y931555D01*
X907732Y933696D02*
X917748Y933696D01*
X945832Y921448D02*
X955848Y921448D01*
X955848Y912432D01*
X945832Y912432D01*
X945832Y921448D01*
X945832Y914573D02*
X955848Y914573D01*
X955848Y916714D02*
X945832Y916714D01*
X945832Y918855D02*
X955848Y918855D01*
X955848Y920996D02*
X945832Y920996D01*
X938848Y921448D02*
X928832Y921448D01*
X938848Y921448D02*
X938848Y912432D01*
X928832Y912432D01*
X928832Y921448D01*
X928832Y914573D02*
X938848Y914573D01*
X938848Y916714D02*
X928832Y916714D01*
X928832Y918855D02*
X938848Y918855D01*
X938848Y920996D02*
X928832Y920996D01*
X879648Y921448D02*
X869632Y921448D01*
X879648Y921448D02*
X879648Y912432D01*
X869632Y912432D01*
X869632Y921448D01*
X869632Y914573D02*
X879648Y914573D01*
X879648Y916714D02*
X869632Y916714D01*
X869632Y918855D02*
X879648Y918855D01*
X879648Y920996D02*
X869632Y920996D01*
X862648Y921448D02*
X852632Y921448D01*
X862648Y921448D02*
X862648Y912432D01*
X852632Y912432D01*
X852632Y921448D01*
X852632Y914573D02*
X862648Y914573D01*
X862648Y916714D02*
X852632Y916714D01*
X852632Y918855D02*
X862648Y918855D01*
X862648Y920996D02*
X852632Y920996D01*
X869632Y896048D02*
X879648Y896048D01*
X879648Y887032D01*
X869632Y887032D01*
X869632Y896048D01*
X869632Y889173D02*
X879648Y889173D01*
X879648Y891314D02*
X869632Y891314D01*
X869632Y893455D02*
X879648Y893455D01*
X879648Y895596D02*
X869632Y895596D01*
X862648Y896048D02*
X852632Y896048D01*
X862648Y896048D02*
X862648Y887032D01*
X852632Y887032D01*
X852632Y896048D01*
X852632Y889173D02*
X862648Y889173D01*
X862648Y891314D02*
X852632Y891314D01*
X852632Y893455D02*
X862648Y893455D01*
X862648Y895596D02*
X852632Y895596D01*
X945832Y896048D02*
X955848Y896048D01*
X955848Y887032D01*
X945832Y887032D01*
X945832Y896048D01*
X945832Y889173D02*
X955848Y889173D01*
X955848Y891314D02*
X945832Y891314D01*
X945832Y893455D02*
X955848Y893455D01*
X955848Y895596D02*
X945832Y895596D01*
X938848Y896048D02*
X928832Y896048D01*
X938848Y896048D02*
X938848Y887032D01*
X928832Y887032D01*
X928832Y896048D01*
X928832Y889173D02*
X938848Y889173D01*
X938848Y891314D02*
X928832Y891314D01*
X928832Y893455D02*
X938848Y893455D01*
X938848Y895596D02*
X928832Y895596D01*
X992332Y944182D02*
X1002348Y944182D01*
X992332Y944182D02*
X992332Y953198D01*
X1002348Y953198D01*
X1002348Y944182D01*
X1002348Y946323D02*
X992332Y946323D01*
X992332Y948464D02*
X1002348Y948464D01*
X1002348Y950605D02*
X992332Y950605D01*
X992332Y952746D02*
X1002348Y952746D01*
X1009332Y944182D02*
X1019348Y944182D01*
X1009332Y944182D02*
X1009332Y953198D01*
X1019348Y953198D01*
X1019348Y944182D01*
X1019348Y946323D02*
X1009332Y946323D01*
X1009332Y948464D02*
X1019348Y948464D01*
X1019348Y950605D02*
X1009332Y950605D01*
X1009332Y952746D02*
X1019348Y952746D01*
D19*
X1011116Y964246D02*
X1011116Y971234D01*
X1018104Y971234D01*
X1018104Y964246D01*
X1011116Y964246D01*
X1011116Y968315D02*
X1018104Y968315D01*
X993576Y971234D02*
X993576Y964246D01*
X993576Y971234D02*
X1000564Y971234D01*
X1000564Y964246D01*
X993576Y964246D01*
X993576Y968315D02*
X1000564Y968315D01*
D10*
X1049020Y840740D03*
X1226820Y1018540D03*
D11*
X1285777Y881747D02*
X1285777Y870733D01*
X1266763Y870733D01*
X1266763Y881747D01*
X1285777Y881747D01*
X1285777Y872876D02*
X1266763Y872876D01*
X1266763Y875019D02*
X1285777Y875019D01*
X1285777Y877162D02*
X1266763Y877162D01*
X1266763Y879305D02*
X1285777Y879305D01*
X1285777Y881448D02*
X1266763Y881448D01*
X1285777Y926733D02*
X1285777Y937747D01*
X1285777Y926733D02*
X1266763Y926733D01*
X1266763Y937747D01*
X1285777Y937747D01*
X1285777Y928876D02*
X1266763Y928876D01*
X1266763Y931019D02*
X1285777Y931019D01*
X1285777Y933162D02*
X1266763Y933162D01*
X1266763Y935305D02*
X1285777Y935305D01*
X1285777Y937448D02*
X1266763Y937448D01*
D12*
X1245778Y891748D02*
X1245778Y886732D01*
X1233262Y886732D01*
X1233262Y891748D01*
X1245778Y891748D01*
X1245778Y888873D02*
X1233262Y888873D01*
X1233262Y891014D02*
X1245778Y891014D01*
X1245778Y896732D02*
X1245778Y901748D01*
X1245778Y896732D02*
X1233262Y896732D01*
X1233262Y901748D01*
X1245778Y901748D01*
X1245778Y898873D02*
X1233262Y898873D01*
X1233262Y901014D02*
X1245778Y901014D01*
X1245778Y906732D02*
X1245778Y911748D01*
X1245778Y906732D02*
X1233262Y906732D01*
X1233262Y911748D01*
X1245778Y911748D01*
X1245778Y908873D02*
X1233262Y908873D01*
X1233262Y911014D02*
X1245778Y911014D01*
X1245778Y916732D02*
X1245778Y921748D01*
X1245778Y916732D02*
X1233262Y916732D01*
X1233262Y921748D01*
X1245778Y921748D01*
X1245778Y918873D02*
X1233262Y918873D01*
X1233262Y921014D02*
X1245778Y921014D01*
D11*
X1040863Y926733D02*
X1040863Y937747D01*
X1059877Y937747D01*
X1059877Y926733D01*
X1040863Y926733D01*
X1040863Y928876D02*
X1059877Y928876D01*
X1059877Y931019D02*
X1040863Y931019D01*
X1040863Y933162D02*
X1059877Y933162D01*
X1059877Y935305D02*
X1040863Y935305D01*
X1040863Y937448D02*
X1059877Y937448D01*
X1040863Y881747D02*
X1040863Y870733D01*
X1040863Y881747D02*
X1059877Y881747D01*
X1059877Y870733D01*
X1040863Y870733D01*
X1040863Y872876D02*
X1059877Y872876D01*
X1059877Y875019D02*
X1040863Y875019D01*
X1040863Y877162D02*
X1059877Y877162D01*
X1059877Y879305D02*
X1040863Y879305D01*
X1040863Y881448D02*
X1059877Y881448D01*
D12*
X1080862Y916732D02*
X1080862Y921748D01*
X1093378Y921748D01*
X1093378Y916732D01*
X1080862Y916732D01*
X1080862Y918873D02*
X1093378Y918873D01*
X1093378Y921014D02*
X1080862Y921014D01*
X1080862Y911748D02*
X1080862Y906732D01*
X1080862Y911748D02*
X1093378Y911748D01*
X1093378Y906732D01*
X1080862Y906732D01*
X1080862Y908873D02*
X1093378Y908873D01*
X1093378Y911014D02*
X1080862Y911014D01*
X1080862Y901748D02*
X1080862Y896732D01*
X1080862Y901748D02*
X1093378Y901748D01*
X1093378Y896732D01*
X1080862Y896732D01*
X1080862Y898873D02*
X1093378Y898873D01*
X1093378Y901014D02*
X1080862Y901014D01*
X1080862Y891748D02*
X1080862Y886732D01*
X1080862Y891748D02*
X1093378Y891748D01*
X1093378Y886732D01*
X1080862Y886732D01*
X1080862Y888873D02*
X1093378Y888873D01*
X1093378Y891014D02*
X1080862Y891014D01*
D13*
X1099820Y789940D03*
X1125220Y789940D03*
X1150620Y789940D03*
X1176020Y789940D03*
X1201420Y789940D03*
X1226820Y789940D03*
D14*
X1157570Y892990D03*
X1169070Y892990D03*
X1157570Y915490D03*
X1169070Y915490D03*
D15*
X1152070Y904240D03*
X1174570Y904240D03*
D16*
X1163320Y904240D03*
D17*
X1061720Y1005840D03*
X1264920Y1005840D03*
X1264920Y802640D03*
X1061720Y802640D03*
D18*
X1149812Y925132D02*
X1159828Y925132D01*
X1149812Y925132D02*
X1149812Y934148D01*
X1159828Y934148D01*
X1159828Y925132D01*
X1159828Y927273D02*
X1149812Y927273D01*
X1149812Y929414D02*
X1159828Y929414D01*
X1159828Y931555D02*
X1149812Y931555D01*
X1149812Y933696D02*
X1159828Y933696D01*
X1166812Y925132D02*
X1176828Y925132D01*
X1166812Y925132D02*
X1166812Y934148D01*
X1176828Y934148D01*
X1176828Y925132D01*
X1176828Y927273D02*
X1166812Y927273D01*
X1166812Y929414D02*
X1176828Y929414D01*
X1176828Y931555D02*
X1166812Y931555D01*
X1166812Y933696D02*
X1176828Y933696D01*
X1204912Y921448D02*
X1214928Y921448D01*
X1214928Y912432D01*
X1204912Y912432D01*
X1204912Y921448D01*
X1204912Y914573D02*
X1214928Y914573D01*
X1214928Y916714D02*
X1204912Y916714D01*
X1204912Y918855D02*
X1214928Y918855D01*
X1214928Y920996D02*
X1204912Y920996D01*
X1197928Y921448D02*
X1187912Y921448D01*
X1197928Y921448D02*
X1197928Y912432D01*
X1187912Y912432D01*
X1187912Y921448D01*
X1187912Y914573D02*
X1197928Y914573D01*
X1197928Y916714D02*
X1187912Y916714D01*
X1187912Y918855D02*
X1197928Y918855D01*
X1197928Y920996D02*
X1187912Y920996D01*
X1138728Y921448D02*
X1128712Y921448D01*
X1138728Y921448D02*
X1138728Y912432D01*
X1128712Y912432D01*
X1128712Y921448D01*
X1128712Y914573D02*
X1138728Y914573D01*
X1138728Y916714D02*
X1128712Y916714D01*
X1128712Y918855D02*
X1138728Y918855D01*
X1138728Y920996D02*
X1128712Y920996D01*
X1121728Y921448D02*
X1111712Y921448D01*
X1121728Y921448D02*
X1121728Y912432D01*
X1111712Y912432D01*
X1111712Y921448D01*
X1111712Y914573D02*
X1121728Y914573D01*
X1121728Y916714D02*
X1111712Y916714D01*
X1111712Y918855D02*
X1121728Y918855D01*
X1121728Y920996D02*
X1111712Y920996D01*
X1128712Y896048D02*
X1138728Y896048D01*
X1138728Y887032D01*
X1128712Y887032D01*
X1128712Y896048D01*
X1128712Y889173D02*
X1138728Y889173D01*
X1138728Y891314D02*
X1128712Y891314D01*
X1128712Y893455D02*
X1138728Y893455D01*
X1138728Y895596D02*
X1128712Y895596D01*
X1121728Y896048D02*
X1111712Y896048D01*
X1121728Y896048D02*
X1121728Y887032D01*
X1111712Y887032D01*
X1111712Y896048D01*
X1111712Y889173D02*
X1121728Y889173D01*
X1121728Y891314D02*
X1111712Y891314D01*
X1111712Y893455D02*
X1121728Y893455D01*
X1121728Y895596D02*
X1111712Y895596D01*
X1204912Y896048D02*
X1214928Y896048D01*
X1214928Y887032D01*
X1204912Y887032D01*
X1204912Y896048D01*
X1204912Y889173D02*
X1214928Y889173D01*
X1214928Y891314D02*
X1204912Y891314D01*
X1204912Y893455D02*
X1214928Y893455D01*
X1214928Y895596D02*
X1204912Y895596D01*
X1197928Y896048D02*
X1187912Y896048D01*
X1197928Y896048D02*
X1197928Y887032D01*
X1187912Y887032D01*
X1187912Y896048D01*
X1187912Y889173D02*
X1197928Y889173D01*
X1197928Y891314D02*
X1187912Y891314D01*
X1187912Y893455D02*
X1197928Y893455D01*
X1197928Y895596D02*
X1187912Y895596D01*
X1251412Y944182D02*
X1261428Y944182D01*
X1251412Y944182D02*
X1251412Y953198D01*
X1261428Y953198D01*
X1261428Y944182D01*
X1261428Y946323D02*
X1251412Y946323D01*
X1251412Y948464D02*
X1261428Y948464D01*
X1261428Y950605D02*
X1251412Y950605D01*
X1251412Y952746D02*
X1261428Y952746D01*
X1268412Y944182D02*
X1278428Y944182D01*
X1268412Y944182D02*
X1268412Y953198D01*
X1278428Y953198D01*
X1278428Y944182D01*
X1278428Y946323D02*
X1268412Y946323D01*
X1268412Y948464D02*
X1278428Y948464D01*
X1278428Y950605D02*
X1268412Y950605D01*
X1268412Y952746D02*
X1278428Y952746D01*
D19*
X1270196Y964246D02*
X1270196Y971234D01*
X1277184Y971234D01*
X1277184Y964246D01*
X1270196Y964246D01*
X1270196Y968315D02*
X1277184Y968315D01*
X1252656Y971234D02*
X1252656Y964246D01*
X1252656Y971234D02*
X1259644Y971234D01*
X1259644Y964246D01*
X1252656Y964246D01*
X1252656Y968315D02*
X1259644Y968315D01*
D10*
X1308100Y840740D03*
X1485900Y1018540D03*
D11*
X1544857Y881747D02*
X1544857Y870733D01*
X1525843Y870733D01*
X1525843Y881747D01*
X1544857Y881747D01*
X1544857Y872876D02*
X1525843Y872876D01*
X1525843Y875019D02*
X1544857Y875019D01*
X1544857Y877162D02*
X1525843Y877162D01*
X1525843Y879305D02*
X1544857Y879305D01*
X1544857Y881448D02*
X1525843Y881448D01*
X1544857Y926733D02*
X1544857Y937747D01*
X1544857Y926733D02*
X1525843Y926733D01*
X1525843Y937747D01*
X1544857Y937747D01*
X1544857Y928876D02*
X1525843Y928876D01*
X1525843Y931019D02*
X1544857Y931019D01*
X1544857Y933162D02*
X1525843Y933162D01*
X1525843Y935305D02*
X1544857Y935305D01*
X1544857Y937448D02*
X1525843Y937448D01*
D12*
X1504858Y891748D02*
X1504858Y886732D01*
X1492342Y886732D01*
X1492342Y891748D01*
X1504858Y891748D01*
X1504858Y888873D02*
X1492342Y888873D01*
X1492342Y891014D02*
X1504858Y891014D01*
X1504858Y896732D02*
X1504858Y901748D01*
X1504858Y896732D02*
X1492342Y896732D01*
X1492342Y901748D01*
X1504858Y901748D01*
X1504858Y898873D02*
X1492342Y898873D01*
X1492342Y901014D02*
X1504858Y901014D01*
X1504858Y906732D02*
X1504858Y911748D01*
X1504858Y906732D02*
X1492342Y906732D01*
X1492342Y911748D01*
X1504858Y911748D01*
X1504858Y908873D02*
X1492342Y908873D01*
X1492342Y911014D02*
X1504858Y911014D01*
X1504858Y916732D02*
X1504858Y921748D01*
X1504858Y916732D02*
X1492342Y916732D01*
X1492342Y921748D01*
X1504858Y921748D01*
X1504858Y918873D02*
X1492342Y918873D01*
X1492342Y921014D02*
X1504858Y921014D01*
D11*
X1299943Y926733D02*
X1299943Y937747D01*
X1318957Y937747D01*
X1318957Y926733D01*
X1299943Y926733D01*
X1299943Y928876D02*
X1318957Y928876D01*
X1318957Y931019D02*
X1299943Y931019D01*
X1299943Y933162D02*
X1318957Y933162D01*
X1318957Y935305D02*
X1299943Y935305D01*
X1299943Y937448D02*
X1318957Y937448D01*
X1299943Y881747D02*
X1299943Y870733D01*
X1299943Y881747D02*
X1318957Y881747D01*
X1318957Y870733D01*
X1299943Y870733D01*
X1299943Y872876D02*
X1318957Y872876D01*
X1318957Y875019D02*
X1299943Y875019D01*
X1299943Y877162D02*
X1318957Y877162D01*
X1318957Y879305D02*
X1299943Y879305D01*
X1299943Y881448D02*
X1318957Y881448D01*
D12*
X1339942Y916732D02*
X1339942Y921748D01*
X1352458Y921748D01*
X1352458Y916732D01*
X1339942Y916732D01*
X1339942Y918873D02*
X1352458Y918873D01*
X1352458Y921014D02*
X1339942Y921014D01*
X1339942Y911748D02*
X1339942Y906732D01*
X1339942Y911748D02*
X1352458Y911748D01*
X1352458Y906732D01*
X1339942Y906732D01*
X1339942Y908873D02*
X1352458Y908873D01*
X1352458Y911014D02*
X1339942Y911014D01*
X1339942Y901748D02*
X1339942Y896732D01*
X1339942Y901748D02*
X1352458Y901748D01*
X1352458Y896732D01*
X1339942Y896732D01*
X1339942Y898873D02*
X1352458Y898873D01*
X1352458Y901014D02*
X1339942Y901014D01*
X1339942Y891748D02*
X1339942Y886732D01*
X1339942Y891748D02*
X1352458Y891748D01*
X1352458Y886732D01*
X1339942Y886732D01*
X1339942Y888873D02*
X1352458Y888873D01*
X1352458Y891014D02*
X1339942Y891014D01*
D13*
X1358900Y789940D03*
X1384300Y789940D03*
X1409700Y789940D03*
X1435100Y789940D03*
X1460500Y789940D03*
X1485900Y789940D03*
D14*
X1416650Y892990D03*
X1428150Y892990D03*
X1416650Y915490D03*
X1428150Y915490D03*
D15*
X1411150Y904240D03*
X1433650Y904240D03*
D16*
X1422400Y904240D03*
D17*
X1320800Y1005840D03*
X1524000Y1005840D03*
X1524000Y802640D03*
X1320800Y802640D03*
D18*
X1408892Y925132D02*
X1418908Y925132D01*
X1408892Y925132D02*
X1408892Y934148D01*
X1418908Y934148D01*
X1418908Y925132D01*
X1418908Y927273D02*
X1408892Y927273D01*
X1408892Y929414D02*
X1418908Y929414D01*
X1418908Y931555D02*
X1408892Y931555D01*
X1408892Y933696D02*
X1418908Y933696D01*
X1425892Y925132D02*
X1435908Y925132D01*
X1425892Y925132D02*
X1425892Y934148D01*
X1435908Y934148D01*
X1435908Y925132D01*
X1435908Y927273D02*
X1425892Y927273D01*
X1425892Y929414D02*
X1435908Y929414D01*
X1435908Y931555D02*
X1425892Y931555D01*
X1425892Y933696D02*
X1435908Y933696D01*
X1463992Y921448D02*
X1474008Y921448D01*
X1474008Y912432D01*
X1463992Y912432D01*
X1463992Y921448D01*
X1463992Y914573D02*
X1474008Y914573D01*
X1474008Y916714D02*
X1463992Y916714D01*
X1463992Y918855D02*
X1474008Y918855D01*
X1474008Y920996D02*
X1463992Y920996D01*
X1457008Y921448D02*
X1446992Y921448D01*
X1457008Y921448D02*
X1457008Y912432D01*
X1446992Y912432D01*
X1446992Y921448D01*
X1446992Y914573D02*
X1457008Y914573D01*
X1457008Y916714D02*
X1446992Y916714D01*
X1446992Y918855D02*
X1457008Y918855D01*
X1457008Y920996D02*
X1446992Y920996D01*
X1397808Y921448D02*
X1387792Y921448D01*
X1397808Y921448D02*
X1397808Y912432D01*
X1387792Y912432D01*
X1387792Y921448D01*
X1387792Y914573D02*
X1397808Y914573D01*
X1397808Y916714D02*
X1387792Y916714D01*
X1387792Y918855D02*
X1397808Y918855D01*
X1397808Y920996D02*
X1387792Y920996D01*
X1380808Y921448D02*
X1370792Y921448D01*
X1380808Y921448D02*
X1380808Y912432D01*
X1370792Y912432D01*
X1370792Y921448D01*
X1370792Y914573D02*
X1380808Y914573D01*
X1380808Y916714D02*
X1370792Y916714D01*
X1370792Y918855D02*
X1380808Y918855D01*
X1380808Y920996D02*
X1370792Y920996D01*
X1387792Y896048D02*
X1397808Y896048D01*
X1397808Y887032D01*
X1387792Y887032D01*
X1387792Y896048D01*
X1387792Y889173D02*
X1397808Y889173D01*
X1397808Y891314D02*
X1387792Y891314D01*
X1387792Y893455D02*
X1397808Y893455D01*
X1397808Y895596D02*
X1387792Y895596D01*
X1380808Y896048D02*
X1370792Y896048D01*
X1380808Y896048D02*
X1380808Y887032D01*
X1370792Y887032D01*
X1370792Y896048D01*
X1370792Y889173D02*
X1380808Y889173D01*
X1380808Y891314D02*
X1370792Y891314D01*
X1370792Y893455D02*
X1380808Y893455D01*
X1380808Y895596D02*
X1370792Y895596D01*
X1463992Y896048D02*
X1474008Y896048D01*
X1474008Y887032D01*
X1463992Y887032D01*
X1463992Y896048D01*
X1463992Y889173D02*
X1474008Y889173D01*
X1474008Y891314D02*
X1463992Y891314D01*
X1463992Y893455D02*
X1474008Y893455D01*
X1474008Y895596D02*
X1463992Y895596D01*
X1457008Y896048D02*
X1446992Y896048D01*
X1457008Y896048D02*
X1457008Y887032D01*
X1446992Y887032D01*
X1446992Y896048D01*
X1446992Y889173D02*
X1457008Y889173D01*
X1457008Y891314D02*
X1446992Y891314D01*
X1446992Y893455D02*
X1457008Y893455D01*
X1457008Y895596D02*
X1446992Y895596D01*
X1510492Y944182D02*
X1520508Y944182D01*
X1510492Y944182D02*
X1510492Y953198D01*
X1520508Y953198D01*
X1520508Y944182D01*
X1520508Y946323D02*
X1510492Y946323D01*
X1510492Y948464D02*
X1520508Y948464D01*
X1520508Y950605D02*
X1510492Y950605D01*
X1510492Y952746D02*
X1520508Y952746D01*
X1527492Y944182D02*
X1537508Y944182D01*
X1527492Y944182D02*
X1527492Y953198D01*
X1537508Y953198D01*
X1537508Y944182D01*
X1537508Y946323D02*
X1527492Y946323D01*
X1527492Y948464D02*
X1537508Y948464D01*
X1537508Y950605D02*
X1527492Y950605D01*
X1527492Y952746D02*
X1537508Y952746D01*
D19*
X1529276Y964246D02*
X1529276Y971234D01*
X1536264Y971234D01*
X1536264Y964246D01*
X1529276Y964246D01*
X1529276Y968315D02*
X1536264Y968315D01*
X1511736Y971234D02*
X1511736Y964246D01*
X1511736Y971234D02*
X1518724Y971234D01*
X1518724Y964246D01*
X1511736Y964246D01*
X1511736Y968315D02*
X1518724Y968315D01*
D10*
X68580Y1052195D03*
X1480185Y1052195D03*
D20*
X59525Y-20955D02*
X59528Y-20733D01*
X59536Y-20511D01*
X59550Y-20289D01*
X59569Y-20067D01*
X59593Y-19847D01*
X59623Y-19626D01*
X59658Y-19407D01*
X59699Y-19188D01*
X59745Y-18971D01*
X59796Y-18755D01*
X59853Y-18540D01*
X59915Y-18326D01*
X59982Y-18115D01*
X60054Y-17904D01*
X60132Y-17696D01*
X60214Y-17490D01*
X60302Y-17286D01*
X60394Y-17083D01*
X60492Y-16884D01*
X60594Y-16687D01*
X60701Y-16492D01*
X60813Y-16300D01*
X60930Y-16111D01*
X61051Y-15924D01*
X61177Y-15741D01*
X61307Y-15561D01*
X61442Y-15384D01*
X61580Y-15211D01*
X61723Y-15041D01*
X61871Y-14874D01*
X62022Y-14711D01*
X62177Y-14552D01*
X62336Y-14397D01*
X62499Y-14246D01*
X62666Y-14098D01*
X62836Y-13955D01*
X63009Y-13817D01*
X63186Y-13682D01*
X63366Y-13552D01*
X63549Y-13426D01*
X63736Y-13305D01*
X63925Y-13188D01*
X64117Y-13076D01*
X64312Y-12969D01*
X64509Y-12867D01*
X64708Y-12769D01*
X64911Y-12677D01*
X65115Y-12589D01*
X65321Y-12507D01*
X65529Y-12429D01*
X65740Y-12357D01*
X65951Y-12290D01*
X66165Y-12228D01*
X66380Y-12171D01*
X66596Y-12120D01*
X66813Y-12074D01*
X67032Y-12033D01*
X67251Y-11998D01*
X67472Y-11968D01*
X67692Y-11944D01*
X67914Y-11925D01*
X68136Y-11911D01*
X68358Y-11903D01*
X68580Y-11900D01*
X68802Y-11903D01*
X69024Y-11911D01*
X69246Y-11925D01*
X69468Y-11944D01*
X69688Y-11968D01*
X69909Y-11998D01*
X70128Y-12033D01*
X70347Y-12074D01*
X70564Y-12120D01*
X70780Y-12171D01*
X70995Y-12228D01*
X71209Y-12290D01*
X71420Y-12357D01*
X71631Y-12429D01*
X71839Y-12507D01*
X72045Y-12589D01*
X72249Y-12677D01*
X72452Y-12769D01*
X72651Y-12867D01*
X72848Y-12969D01*
X73043Y-13076D01*
X73235Y-13188D01*
X73424Y-13305D01*
X73611Y-13426D01*
X73794Y-13552D01*
X73974Y-13682D01*
X74151Y-13817D01*
X74324Y-13955D01*
X74494Y-14098D01*
X74661Y-14246D01*
X74824Y-14397D01*
X74983Y-14552D01*
X75138Y-14711D01*
X75289Y-14874D01*
X75437Y-15041D01*
X75580Y-15211D01*
X75718Y-15384D01*
X75853Y-15561D01*
X75983Y-15741D01*
X76109Y-15924D01*
X76230Y-16111D01*
X76347Y-16300D01*
X76459Y-16492D01*
X76566Y-16687D01*
X76668Y-16884D01*
X76766Y-17083D01*
X76858Y-17286D01*
X76946Y-17490D01*
X77028Y-17696D01*
X77106Y-17904D01*
X77178Y-18115D01*
X77245Y-18326D01*
X77307Y-18540D01*
X77364Y-18755D01*
X77415Y-18971D01*
X77461Y-19188D01*
X77502Y-19407D01*
X77537Y-19626D01*
X77567Y-19847D01*
X77591Y-20067D01*
X77610Y-20289D01*
X77624Y-20511D01*
X77632Y-20733D01*
X77635Y-20955D01*
X77632Y-21177D01*
X77624Y-21399D01*
X77610Y-21621D01*
X77591Y-21843D01*
X77567Y-22063D01*
X77537Y-22284D01*
X77502Y-22503D01*
X77461Y-22722D01*
X77415Y-22939D01*
X77364Y-23155D01*
X77307Y-23370D01*
X77245Y-23584D01*
X77178Y-23795D01*
X77106Y-24006D01*
X77028Y-24214D01*
X76946Y-24420D01*
X76858Y-24624D01*
X76766Y-24827D01*
X76668Y-25026D01*
X76566Y-25223D01*
X76459Y-25418D01*
X76347Y-25610D01*
X76230Y-25799D01*
X76109Y-25986D01*
X75983Y-26169D01*
X75853Y-26349D01*
X75718Y-26526D01*
X75580Y-26699D01*
X75437Y-26869D01*
X75289Y-27036D01*
X75138Y-27199D01*
X74983Y-27358D01*
X74824Y-27513D01*
X74661Y-27664D01*
X74494Y-27812D01*
X74324Y-27955D01*
X74151Y-28093D01*
X73974Y-28228D01*
X73794Y-28358D01*
X73611Y-28484D01*
X73424Y-28605D01*
X73235Y-28722D01*
X73043Y-28834D01*
X72848Y-28941D01*
X72651Y-29043D01*
X72452Y-29141D01*
X72249Y-29233D01*
X72045Y-29321D01*
X71839Y-29403D01*
X71631Y-29481D01*
X71420Y-29553D01*
X71209Y-29620D01*
X70995Y-29682D01*
X70780Y-29739D01*
X70564Y-29790D01*
X70347Y-29836D01*
X70128Y-29877D01*
X69909Y-29912D01*
X69688Y-29942D01*
X69468Y-29966D01*
X69246Y-29985D01*
X69024Y-29999D01*
X68802Y-30007D01*
X68580Y-30010D01*
X68358Y-30007D01*
X68136Y-29999D01*
X67914Y-29985D01*
X67692Y-29966D01*
X67472Y-29942D01*
X67251Y-29912D01*
X67032Y-29877D01*
X66813Y-29836D01*
X66596Y-29790D01*
X66380Y-29739D01*
X66165Y-29682D01*
X65951Y-29620D01*
X65740Y-29553D01*
X65529Y-29481D01*
X65321Y-29403D01*
X65115Y-29321D01*
X64911Y-29233D01*
X64708Y-29141D01*
X64509Y-29043D01*
X64312Y-28941D01*
X64117Y-28834D01*
X63925Y-28722D01*
X63736Y-28605D01*
X63549Y-28484D01*
X63366Y-28358D01*
X63186Y-28228D01*
X63009Y-28093D01*
X62836Y-27955D01*
X62666Y-27812D01*
X62499Y-27664D01*
X62336Y-27513D01*
X62177Y-27358D01*
X62022Y-27199D01*
X61871Y-27036D01*
X61723Y-26869D01*
X61580Y-26699D01*
X61442Y-26526D01*
X61307Y-26349D01*
X61177Y-26169D01*
X61051Y-25986D01*
X60930Y-25799D01*
X60813Y-25610D01*
X60701Y-25418D01*
X60594Y-25223D01*
X60492Y-25026D01*
X60394Y-24827D01*
X60302Y-24624D01*
X60214Y-24420D01*
X60132Y-24214D01*
X60054Y-24006D01*
X59982Y-23795D01*
X59915Y-23584D01*
X59853Y-23370D01*
X59796Y-23155D01*
X59745Y-22939D01*
X59699Y-22722D01*
X59658Y-22503D01*
X59623Y-22284D01*
X59593Y-22063D01*
X59569Y-21843D01*
X59550Y-21621D01*
X59536Y-21399D01*
X59528Y-21177D01*
X59525Y-20955D01*
D21*
X68580Y-20955D03*
M02*
