M48
;GenerationSoftware,Autodesk,EAGLE,9.6.2*%
;CreationDate,2022-10-20T20:16:14Z*%
FMAT,2
ICI,OFF
METRIC,TZ,000.000
T3C0.305
T2C1.016
T1C3.302
%
G90
M71
T1
X28448Y48768
X132080Y74676
X2540Y22860
X22860Y22860
X22860Y2540
X2540Y2540
X28448Y22860
X48768Y22860
X48768Y2540
X28448Y2540
X54356Y22860
X74676Y22860
X74676Y2540
X54356Y2540
X80264Y22860
X100584Y22860
X100584Y2540
X80264Y2540
X106172Y22860
X126492Y22860
X126492Y2540
X106172Y2540
X132080Y22860
X152400Y22860
X152400Y2540
X132080Y2540
X2540Y48768
X22860Y48768
X22860Y28448
X2540Y28448
X74676Y54356
X48768Y48768
X48768Y28448
X28448Y28448
X54356Y48768
X74676Y48768
X74676Y28448
X54356Y28448
X80264Y48768
X100584Y48768
X100584Y28448
X80264Y28448
X106172Y48768
X126492Y48768
X126492Y28448
X106172Y28448
X132080Y48768
X152400Y48768
X152400Y28448
X132080Y28448
X2540Y74676
X22860Y74676
X22860Y54356
X2540Y54356
X28448Y74676
X48768Y74676
X48768Y54356
X28448Y54356
X54356Y74676
X74676Y74676
X132080Y80264
X54356Y54356
X80264Y74676
X100584Y74676
X100584Y54356
X80264Y54356
X106172Y74676
X126492Y74676
X126492Y54356
X106172Y54356
X152400Y74676
X152400Y54356
X132080Y54356
X2540Y100584
X22860Y100584
X22860Y80264
X2540Y80264
X28448Y100584
X48768Y100584
X48768Y80264
X28448Y80264
X54356Y100584
X74676Y100584
X74676Y80264
X54356Y80264
X80264Y100584
X100584Y100584
X100584Y80264
X80264Y80264
X106172Y100584
X126492Y100584
X126492Y80264
X106172Y80264
X132080Y100584
X152400Y100584
X152400Y80264
T2
X148590Y78994
X6350Y1270
X8890Y1270
X11430Y1270
X13970Y1270
X16510Y1270
X19050Y1270
X32258Y1270
X34798Y1270
X37338Y1270
X39878Y1270
X42418Y1270
X44958Y1270
X58166Y1270
X60706Y1270
X63246Y1270
X65786Y1270
X68326Y1270
X70866Y1270
X84074Y1270
X86614Y1270
X89154Y1270
X91694Y1270
X94234Y1270
X96774Y1270
X109982Y1270
X112522Y1270
X115062Y1270
X117602Y1270
X120142Y1270
X122682Y1270
X135890Y1270
X138430Y1270
X140970Y1270
X143510Y1270
X146050Y1270
X148590Y1270
X6350Y27178
X8890Y27178
X11430Y27178
X13970Y27178
X16510Y27178
X19050Y27178
X32258Y27178
X34798Y27178
X37338Y27178
X39878Y27178
X42418Y27178
X44958Y27178
X58166Y27178
X60706Y27178
X63246Y27178
X65786Y27178
X68326Y27178
X70866Y27178
X84074Y27178
X86614Y27178
X89154Y27178
X91694Y27178
X94234Y27178
X96774Y27178
X109982Y27178
X112522Y27178
X115062Y27178
X117602Y27178
X120142Y27178
X122682Y27178
X135890Y27178
X138430Y27178
X140970Y27178
X143510Y27178
X146050Y27178
X148590Y27178
X6350Y53086
X8890Y53086
X11430Y53086
X13970Y53086
X16510Y53086
X19050Y53086
X32258Y53086
X34798Y53086
X37338Y53086
X39878Y53086
X42418Y53086
X44958Y53086
X58166Y53086
X60706Y53086
X63246Y53086
X65786Y53086
X68326Y53086
X70866Y53086
X84074Y53086
X86614Y53086
X89154Y53086
X91694Y53086
X94234Y53086
X96774Y53086
X109982Y53086
X112522Y53086
X115062Y53086
X117602Y53086
X120142Y53086
X122682Y53086
X135890Y53086
X138430Y53086
X140970Y53086
X143510Y53086
X146050Y53086
X148590Y53086
X6350Y78994
X8890Y78994
X11430Y78994
X13970Y78994
X16510Y78994
X19050Y78994
X32258Y78994
X34798Y78994
X37338Y78994
X39878Y78994
X42418Y78994
X44958Y78994
X58166Y78994
X60706Y78994
X63246Y78994
X65786Y78994
X68326Y78994
X70866Y78994
X84074Y78994
X86614Y78994
X89154Y78994
X91694Y78994
X94234Y78994
X96774Y78994
X109982Y78994
X112522Y78994
X115062Y78994
X117602Y78994
X120142Y78994
X122682Y78994
X135890Y78994
X138430Y78994
X140970Y78994
X143510Y78994
X146050Y78994
T3
X149860Y2540
X130810Y5080
X153670Y12700
X153670Y20320
X149860Y24130
X134620Y24130
X130810Y20320
X132461Y12700
X147955Y12700
X147574Y10414
X143891Y10795
X140462Y11684
X136652Y10541
X140081Y7112
X144399Y7112
X135382Y9525
X149860Y10160
X134620Y15240
X146050Y6350
X138430Y6350
X137160Y5080
X147320Y5080
X142240Y4445
X142240Y5715
X133985Y9525
X148590Y15240
X144145Y15240
X136525Y11430
X135890Y13208
X140208Y15240
X151130Y12200
X140970Y6350
X149733Y8890
X148590Y13970
X143510Y5080
X142240Y10668
X144145Y12700
X144145Y14097
X140335Y14097
X144780Y10287
X139700Y10287
X150495Y19050
X24130Y30988
X17780Y28448
X15240Y28448
X12700Y28448
X10160Y28448
X20320Y28448
X1270Y30988
X24130Y38608
X24130Y46228
X20320Y50038
X5080Y50038
X1270Y46228
X2921Y38608
X18415Y38608
X18034Y36322
X14351Y36703
X10922Y37592
X7112Y36449
X10541Y33020
X14859Y33020
X5842Y35433
X20320Y36068
X5080Y41148
X16510Y32258
X8890Y32258
X7620Y30988
X17780Y30988
X12700Y30353
X12700Y31623
X4445Y35433
X19050Y41148
X14605Y41148
X6985Y37338
X6350Y39116
X10668Y41148
X21590Y38108
X11430Y32258
X20193Y34798
X19050Y39878
X13970Y30988
X12700Y36576
X14605Y38608
X14605Y40005
X10795Y40005
X15240Y36195
X10160Y36195
X20955Y44958
X50038Y30988
X43688Y28448
X41148Y28448
X38608Y28448
X36068Y28448
X46228Y28448
X27178Y30988
X50038Y38608
X50038Y46228
X46228Y50038
X30988Y50038
X27178Y46228
X28829Y38608
X44323Y38608
X43942Y36322
X40259Y36703
X36830Y37592
X33020Y36449
X36449Y33020
X40767Y33020
X31750Y35433
X46228Y36068
X30988Y41148
X42418Y32258
X34798Y32258
X33528Y30988
X43688Y30988
X38608Y30353
X38608Y31623
X30353Y35433
X44958Y41148
X40513Y41148
X32893Y37338
X32258Y39116
X36576Y41148
X47498Y38108
X37338Y32258
X46101Y34798
X44958Y39878
X39878Y30988
X38608Y36576
X40513Y38608
X40513Y40005
X36703Y40005
X41148Y36195
X36068Y36195
X46863Y44958
X75946Y30988
X69596Y28448
X67056Y28448
X64516Y28448
X61976Y28448
X72136Y28448
X53086Y30988
X75946Y38608
X75946Y46228
X72136Y50038
X56896Y50038
X53086Y46228
X54737Y38608
X70231Y38608
X69850Y36322
X66167Y36703
X62738Y37592
X58928Y36449
X62357Y33020
X66675Y33020
X57658Y35433
X72136Y36068
X56896Y41148
X68326Y32258
X60706Y32258
X59436Y30988
X69596Y30988
X64516Y30353
X64516Y31623
X56261Y35433
X70866Y41148
X66421Y41148
X58801Y37338
X58166Y39116
X62484Y41148
X73406Y38108
X63246Y32258
X72009Y34798
X70866Y39878
X65786Y30988
X64516Y36576
X66421Y38608
X66421Y40005
X62611Y40005
X67056Y36195
X61976Y36195
X72771Y44958
X101854Y30988
X95504Y28448
X92964Y28448
X90424Y28448
X87884Y28448
X98044Y28448
X78994Y30988
X101854Y38608
X101854Y46228
X98044Y50038
X82804Y50038
X78994Y46228
X80645Y38608
X96139Y38608
X95758Y36322
X92075Y36703
X88646Y37592
X84836Y36449
X88265Y33020
X92583Y33020
X83566Y35433
X98044Y36068
X82804Y41148
X94234Y32258
X86614Y32258
X85344Y30988
X95504Y30988
X90424Y30353
X90424Y31623
X82169Y35433
X96774Y41148
X92329Y41148
X84709Y37338
X84074Y39116
X88392Y41148
X99314Y38108
X89154Y32258
X97917Y34798
X96774Y39878
X91694Y30988
X90424Y36576
X92329Y38608
X92329Y40005
X88519Y40005
X92964Y36195
X87884Y36195
X98679Y44958
X127762Y30988
X121412Y28448
X118872Y28448
X116332Y28448
X113792Y28448
X123952Y28448
X104902Y30988
X127762Y38608
X127762Y46228
X123952Y50038
X108712Y50038
X104902Y46228
X106553Y38608
X122047Y38608
X121666Y36322
X117983Y36703
X114554Y37592
X110744Y36449
X114173Y33020
X118491Y33020
X109474Y35433
X123952Y36068
X108712Y41148
X120142Y32258
X112522Y32258
X111252Y30988
X121412Y30988
X116332Y30353
X116332Y31623
X108077Y35433
X122682Y41148
X118237Y41148
X110617Y37338
X109982Y39116
X114300Y41148
X125222Y38108
X115062Y32258
X123825Y34798
X122682Y39878
X117602Y30988
X116332Y36576
X118237Y38608
X118237Y40005
X114427Y40005
X118872Y36195
X113792Y36195
X124587Y44958
X153670Y30988
X147320Y28448
X144780Y28448
X142240Y28448
X139700Y28448
X149860Y28448
X130810Y30988
X153670Y38608
X153670Y46228
X149860Y50038
X134620Y50038
X130810Y46228
X132461Y38608
X147955Y38608
X147574Y36322
X143891Y36703
X140462Y37592
X136652Y36449
X140081Y33020
X144399Y33020
X135382Y35433
X149860Y36068
X134620Y41148
X146050Y32258
X138430Y32258
X137160Y30988
X147320Y30988
X142240Y30353
X142240Y31623
X133985Y35433
X148590Y41148
X144145Y41148
X136525Y37338
X135890Y39116
X140208Y41148
X151130Y38108
X140970Y32258
X149733Y34798
X148590Y39878
X143510Y30988
X142240Y36576
X144145Y38608
X144145Y40005
X140335Y40005
X144780Y36195
X139700Y36195
X150495Y44958
X24130Y56896
X17780Y54356
X15240Y54356
X12700Y54356
X10160Y54356
X20320Y54356
X1270Y56896
X24130Y64516
X24130Y72136
X20320Y75946
X5080Y75946
X1270Y72136
X2921Y64516
X18415Y64516
X18034Y62230
X14351Y62611
X10922Y63500
X7112Y62357
X10541Y58928
X14859Y58928
X5842Y61341
X20320Y61976
X5080Y67056
X16510Y58166
X8890Y58166
X7620Y56896
X17780Y56896
X12700Y56261
X12700Y57531
X4445Y61341
X19050Y67056
X14605Y67056
X6985Y63246
X6350Y65024
X10668Y67056
X21590Y64016
X11430Y58166
X20193Y60706
X19050Y65786
X13970Y56896
X12700Y62484
X14605Y64516
X14605Y65913
X10795Y65913
X15240Y62103
X10160Y62103
X20955Y70866
X50038Y56896
X43688Y54356
X41148Y54356
X38608Y54356
X36068Y54356
X46228Y54356
X27178Y56896
X50038Y64516
X50038Y72136
X46228Y75946
X30988Y75946
X27178Y72136
X28829Y64516
X44323Y64516
X43942Y62230
X40259Y62611
X36830Y63500
X33020Y62357
X36449Y58928
X40767Y58928
X31750Y61341
X46228Y61976
X30988Y67056
X42418Y58166
X34798Y58166
X33528Y56896
X43688Y56896
X38608Y56261
X38608Y57531
X30353Y61341
X44958Y67056
X40513Y67056
X32893Y63246
X32258Y65024
X36576Y67056
X47498Y64016
X37338Y58166
X46101Y60706
X44958Y65786
X39878Y56896
X38608Y62484
X40513Y64516
X40513Y65913
X36703Y65913
X41148Y62103
X36068Y62103
X46863Y70866
X75946Y56896
X69596Y54356
X67056Y54356
X64516Y54356
X61976Y54356
X72136Y54356
X53086Y56896
X75946Y64516
X75946Y72136
X72136Y75946
X56896Y75946
X53086Y72136
X54737Y64516
X70231Y64516
X69850Y62230
X66167Y62611
X62738Y63500
X58928Y62357
X62357Y58928
X66675Y58928
X57658Y61341
X72136Y61976
X56896Y67056
X68326Y58166
X60706Y58166
X59436Y56896
X96774Y15240
X64516Y56261
X64516Y57531
X56261Y61341
X70866Y67056
X66421Y67056
X58801Y63246
X58166Y65024
X62484Y67056
X73406Y64016
X63246Y58166
X72009Y60706
X70866Y65786
X65786Y56896
X64516Y62484
X66421Y64516
X66421Y65913
X62611Y65913
X67056Y62103
X61976Y62103
X72771Y70866
X101854Y56896
X95504Y54356
X92964Y54356
X90424Y54356
X87884Y54356
X98044Y54356
X78994Y56896
X101854Y64516
X101854Y72136
X98044Y75946
X82804Y75946
X78994Y72136
X80645Y64516
X96139Y64516
X95758Y62230
X92075Y62611
X88646Y63500
X84836Y62357
X88265Y58928
X92583Y58928
X83566Y61341
X98044Y61976
X82804Y67056
X94234Y58166
X86614Y58166
X85344Y56896
X95504Y56896
X90424Y56261
X90424Y57531
X82169Y61341
X96774Y67056
X92329Y67056
X84709Y63246
X84074Y65024
X88392Y67056
X99314Y64016
X89154Y58166
X97917Y60706
X96774Y65786
X91694Y56896
X90424Y62484
X92329Y64516
X92329Y65913
X88519Y65913
X92964Y62103
X87884Y62103
X98679Y70866
X127762Y56896
X121412Y54356
X118872Y54356
X116332Y54356
X113792Y54356
X123952Y54356
X104902Y56896
X127762Y64516
X127762Y72136
X123952Y75946
X108712Y75946
X104902Y72136
X106553Y64516
X122047Y64516
X121666Y62230
X117983Y62611
X114554Y63500
X110744Y62357
X114173Y58928
X118491Y58928
X109474Y61341
X123952Y61976
X108712Y67056
X120142Y58166
X112522Y58166
X111252Y56896
X121412Y56896
X116332Y56261
X116332Y57531
X108077Y61341
X122682Y67056
X118237Y67056
X110617Y63246
X109982Y65024
X114300Y67056
X125222Y64016
X115062Y58166
X123825Y60706
X122682Y65786
X117602Y56896
X116332Y62484
X118237Y64516
X118237Y65913
X114427Y65913
X118872Y62103
X113792Y62103
X124587Y70866
X153670Y56896
X147320Y54356
X144780Y54356
X142240Y54356
X139700Y54356
X149860Y54356
X130810Y56896
X153670Y64516
X153670Y72136
X149860Y75946
X134620Y75946
X130810Y72136
X132461Y64516
X147955Y64516
X147574Y62230
X143891Y62611
X140462Y63500
X136652Y62357
X140081Y58928
X144399Y58928
X135382Y61341
X149860Y61976
X134620Y67056
X146050Y58166
X138430Y58166
X137160Y56896
X147320Y56896
X142240Y56261
X142240Y57531
X133985Y61341
X148590Y67056
X144145Y67056
X136525Y63246
X135890Y65024
X140208Y67056
X151130Y64016
X140970Y58166
X149733Y60706
X148590Y65786
X143510Y56896
X142240Y62484
X144145Y64516
X144145Y65913
X140335Y65913
X144780Y62103
X139700Y62103
X150495Y70866
X24130Y82804
X17780Y80264
X15240Y80264
X12700Y80264
X10160Y80264
X20320Y80264
X1270Y82804
X24130Y90424
X24130Y98044
X20320Y101854
X5080Y101854
X1270Y98044
X2921Y90424
X18415Y90424
X18034Y88138
X14351Y88519
X10922Y89408
X7112Y88265
X10541Y84836
X14859Y84836
X5842Y87249
X20320Y87884
X5080Y92964
X16510Y84074
X8890Y84074
X7620Y82804
X17780Y82804
X12700Y82169
X12700Y83439
X4445Y87249
X19050Y92964
X14605Y92964
X6985Y89154
X6350Y90932
X10668Y92964
X21590Y89924
X11430Y84074
X20193Y86614
X19050Y91694
X13970Y82804
X12700Y88392
X14605Y90424
X14605Y91821
X10795Y91821
X15240Y88011
X10160Y88011
X20955Y96774
X50038Y82804
X43688Y80264
X41148Y80264
X38608Y80264
X36068Y80264
X46228Y80264
X27178Y82804
X50038Y90424
X50038Y98044
X46228Y101854
X30988Y101854
X27178Y98044
X28829Y90424
X44323Y90424
X43942Y88138
X40259Y88519
X36830Y89408
X33020Y88265
X36449Y84836
X40767Y84836
X31750Y87249
X46228Y87884
X30988Y92964
X42418Y84074
X34798Y84074
X33528Y82804
X43688Y82804
X38608Y82169
X38608Y83439
X30353Y87249
X44958Y92964
X40513Y92964
X32893Y89154
X32258Y90932
X36576Y92964
X47498Y89924
X37338Y84074
X46101Y86614
X44958Y91694
X39878Y82804
X38608Y88392
X40513Y90424
X40513Y91821
X36703Y91821
X41148Y88011
X36068Y88011
X46863Y96774
X75946Y82804
X69596Y80264
X67056Y80264
X64516Y80264
X61976Y80264
X72136Y80264
X53086Y82804
X75946Y90424
X75946Y98044
X72136Y101854
X56896Y101854
X53086Y98044
X54737Y90424
X70231Y90424
X69850Y88138
X66167Y88519
X62738Y89408
X58928Y88265
X62357Y84836
X66675Y84836
X57658Y87249
X72136Y87884
X56896Y92964
X68326Y84074
X60706Y84074
X59436Y82804
X69596Y82804
X64516Y82169
X64516Y83439
X56261Y87249
X70866Y92964
X66421Y92964
X58801Y89154
X58166Y90932
X62484Y92964
X73406Y89924
X63246Y84074
X72009Y86614
X70866Y91694
X65786Y82804
X64516Y88392
X66421Y90424
X66421Y91821
X62611Y91821
X67056Y88011
X61976Y88011
X72771Y96774
X101854Y82804
X95504Y80264
X92964Y80264
X90424Y80264
X87884Y80264
X98044Y80264
X78994Y82804
X101854Y90424
X101854Y98044
X98044Y101854
X82804Y101854
X78994Y98044
X80645Y90424
X96139Y90424
X95758Y88138
X92075Y88519
X88646Y89408
X84836Y88265
X88265Y84836
X92583Y84836
X83566Y87249
X98044Y87884
X82804Y92964
X94234Y84074
X86614Y84074
X85344Y82804
X95504Y82804
X90424Y82169
X90424Y83439
X82169Y87249
X96774Y92964
X92329Y92964
X84709Y89154
X84074Y90932
X88392Y92964
X99314Y89924
X89154Y84074
X97917Y86614
X24130Y5080
X91694Y82804
X90424Y88392
X92329Y90424
X92329Y91821
X88519Y91821
X92964Y88011
X87884Y88011
X98679Y96774
X127762Y82804
X121412Y80264
X118872Y80264
X116332Y80264
X113792Y80264
X123952Y80264
X104902Y82804
X127762Y90424
X127762Y98044
X123952Y101854
X108712Y101854
X104902Y98044
X106553Y90424
X122047Y90424
X121666Y88138
X117983Y88519
X114554Y89408
X110744Y88265
X114173Y84836
X118491Y84836
X109474Y87249
X123952Y87884
X108712Y92964
X120142Y84074
X112522Y84074
X111252Y82804
X121412Y82804
X116332Y82169
X116332Y83439
X108077Y87249
X122682Y92964
X118237Y92964
X110617Y89154
X109982Y90932
X114300Y92964
X125222Y89924
X115062Y84074
X123825Y86614
X122682Y91694
X117602Y82804
X116332Y88392
X118237Y90424
X118237Y91821
X114427Y91821
X118872Y88011
X113792Y88011
X124587Y96774
X153670Y82804
X147320Y80264
X144780Y80264
X142240Y80264
X139700Y80264
X149860Y80264
X130810Y82804
X153670Y90424
X153670Y98044
X149860Y101854
X134620Y101854
X130810Y98044
X132461Y90424
X147955Y90424
X147574Y88138
X143891Y88519
X140462Y89408
X136652Y88265
X140081Y84836
X144399Y84836
X135382Y87249
X149860Y87884
X134620Y92964
X146050Y84074
X138430Y84074
X137160Y82804
X147320Y82804
X142240Y82169
X142240Y83439
X133985Y87249
X148590Y92964
X144145Y92964
X136525Y89154
X135890Y90932
X140208Y92964
X151130Y89924
X140970Y84074
X149733Y86614
X148590Y91694
X143510Y82804
X142240Y88392
X144145Y90424
X144145Y91821
X140335Y91821
X144780Y88011
X139700Y88011
X150495Y96774
X17780Y2540
X15240Y2540
X12700Y2540
X10160Y2540
X20320Y2540
X1270Y5080
X24130Y12700
X24130Y20320
X20320Y24130
X5080Y24130
X1270Y20320
X2921Y12700
X18415Y12700
X18034Y10414
X14351Y10795
X10922Y11684
X7112Y10541
X10541Y7112
X14859Y7112
X5842Y9525
X20320Y10160
X5080Y15240
X16510Y6350
X8890Y6350
X7620Y5080
X17780Y5080
X12700Y4445
X12700Y5715
X4445Y9525
X19050Y15240
X14605Y15240
X6985Y11430
X6350Y13208
X10668Y15240
X21590Y12200
X11430Y6350
X20193Y8890
X19050Y13970
X13970Y5080
X12700Y10668
X14605Y12700
X14605Y14097
X10795Y14097
X15240Y10287
X10160Y10287
X20955Y19050
X50038Y5080
X43688Y2540
X41148Y2540
X38608Y2540
X36068Y2540
X46228Y2540
X27178Y5080
X50038Y12700
X50038Y20320
X46228Y24130
X30988Y24130
X27178Y20320
X28829Y12700
X44323Y12700
X43942Y10414
X40259Y10795
X36830Y11684
X33020Y10541
X36449Y7112
X40767Y7112
X31750Y9525
X46228Y10160
X69596Y56896
X30988Y15240
X42418Y6350
X34798Y6350
X33528Y5080
X43688Y5080
X38608Y4445
X38608Y5715
X30353Y9525
X44958Y15240
X40513Y15240
X32893Y11430
X32258Y13208
X36576Y15240
X47498Y12200
X37338Y6350
X46101Y8890
X44958Y13970
X39878Y5080
X38608Y10668
X40513Y12700
X40513Y14097
X36703Y14097
X41148Y10287
X36068Y10287
X46863Y19050
X75946Y5080
X69596Y2540
X67056Y2540
X64516Y2540
X61976Y2540
X72136Y2540
X53086Y5080
X75946Y12700
X75946Y20320
X72136Y24130
X56896Y24130
X53086Y20320
X54737Y12700
X70231Y12700
X69850Y10414
X66167Y10795
X62738Y11684
X58928Y10541
X62357Y7112
X66675Y7112
X57658Y9525
X72136Y10160
X56896Y15240
X68326Y6350
X60706Y6350
X59436Y5080
X69596Y5080
X64516Y4445
X64516Y5715
X56261Y9525
X70866Y15240
X66421Y15240
X58801Y11430
X58166Y13208
X62484Y15240
X73406Y12200
X63246Y6350
X72009Y8890
X70866Y13970
X65786Y5080
X64516Y10668
X66421Y12700
X66421Y14097
X62611Y14097
X67056Y10287
X61976Y10287
X72771Y19050
X101854Y5080
X95504Y2540
X92964Y2540
X90424Y2540
X87884Y2540
X98044Y2540
X78994Y5080
X101854Y12700
X101854Y20320
X98044Y24130
X82804Y24130
X78994Y20320
X80645Y12700
X96139Y12700
X95758Y10414
X92075Y10795
X88646Y11684
X84836Y10541
X88265Y7112
X92583Y7112
X83566Y9525
X98044Y10160
X82804Y15240
X94234Y6350
X86614Y6350
X85344Y5080
X95504Y5080
X90424Y4445
X90424Y5715
X82169Y9525
X92329Y15240
X84709Y11430
X84074Y13208
X88392Y15240
X99314Y12200
X89154Y6350
X97917Y8890
X96774Y13970
X91694Y5080
X90424Y10668
X92329Y12700
X92329Y14097
X88519Y14097
X92964Y10287
X87884Y10287
X98679Y19050
X127762Y5080
X121412Y2540
X118872Y2540
X116332Y2540
X113792Y2540
X123952Y2540
X104902Y5080
X127762Y12700
X127762Y20320
X123952Y24130
X108712Y24130
X104902Y20320
X106553Y12700
X122047Y12700
X121666Y10414
X117983Y10795
X114554Y11684
X110744Y10541
X114173Y7112
X118491Y7112
X109474Y9525
X123952Y10160
X108712Y15240
X120142Y6350
X112522Y6350
X111252Y5080
X121412Y5080
X116332Y4445
X116332Y5715
X108077Y9525
X122682Y15240
X118237Y15240
X110617Y11430
X109982Y13208
X114300Y15240
X125222Y12200
X115062Y6350
X123825Y8890
X122682Y13970
X117602Y5080
X116332Y10668
X118237Y12700
X118237Y14097
X114427Y14097
X118872Y10287
X113792Y10287
X124587Y19050
X153670Y5080
X147320Y2540
X144780Y2540
X142240Y2540
X139700Y2540
X96774Y91694
M30