M48
;GenerationSoftware,Autodesk,EAGLE,9.6.2*%
;CreationDate,2022-10-20T20:18:56Z*%
FMAT,2
ICI,OFF
METRIC,TZ,000.000
T3C0.305
T2C0.700
T1C3.302
%
G90
M71
T1
X52578Y55626
X60706Y75184
X3810Y16510
X11938Y16510
X20066Y16510
X28194Y16510
X36322Y16510
X44450Y16510
X52578Y16510
X60706Y16510
X3810Y36068
X11938Y36068
X20066Y36068
X28194Y36068
X36322Y36068
X44450Y36068
X52578Y36068
X60706Y36068
X3810Y55626
X11938Y55626
X20066Y55626
X28194Y55626
X36322Y55626
X44450Y55626
X60706Y114300
X60706Y55626
X3810Y75184
X11938Y75184
X20066Y75184
X28194Y75184
X36322Y75184
X44450Y75184
X52578Y75184
X3810Y94742
X11938Y94742
X20066Y94742
X28194Y94742
X36322Y94742
X44450Y94742
X52578Y94742
X60706Y94742
X3810Y114300
X11938Y114300
X20066Y114300
X28194Y114300
X36322Y114300
X44450Y114300
X52578Y114300
X60706Y153416
X3810Y133858
X11938Y133858
X20066Y133858
X28194Y133858
X36322Y133858
X44450Y133858
X52578Y133858
X60706Y133858
X3810Y153416
X11938Y153416
X20066Y153416
X28194Y153416
X36322Y153416
X44450Y153416
X52578Y153416
T2
X63246Y150876
X1270Y13970
X6350Y13970
X9398Y13970
X14478Y13970
X17526Y13970
X22606Y13970
X25654Y13970
X30734Y13970
X33782Y13970
X38862Y13970
X41910Y13970
X46990Y13970
X50038Y13970
X55118Y13970
X58166Y13970
X63246Y13970
X1270Y33528
X6350Y33528
X9398Y33528
X14478Y33528
X17526Y33528
X22606Y33528
X25654Y33528
X30734Y33528
X33782Y33528
X38862Y33528
X41910Y33528
X46990Y33528
X50038Y33528
X55118Y33528
X58166Y33528
X63246Y33528
X1270Y53086
X6350Y53086
X9398Y53086
X14478Y53086
X17526Y53086
X22606Y53086
X25654Y53086
X30734Y53086
X33782Y53086
X38862Y53086
X41910Y53086
X46990Y53086
X50038Y53086
X55118Y53086
X58166Y53086
X63246Y53086
X1270Y72644
X6350Y72644
X9398Y72644
X14478Y72644
X17526Y72644
X22606Y72644
X25654Y72644
X30734Y72644
X33782Y72644
X38862Y72644
X41910Y72644
X46990Y72644
X50038Y72644
X55118Y72644
X58166Y72644
X63246Y72644
X1270Y92202
X6350Y92202
X9398Y92202
X14478Y92202
X17526Y92202
X22606Y92202
X25654Y92202
X30734Y92202
X33782Y92202
X38862Y92202
X41910Y92202
X46990Y92202
X50038Y92202
X55118Y92202
X58166Y92202
X63246Y92202
X1270Y111760
X6350Y111760
X9398Y111760
X14478Y111760
X17526Y111760
X22606Y111760
X25654Y111760
X30734Y111760
X33782Y111760
X38862Y111760
X41910Y111760
X46990Y111760
X50038Y111760
X55118Y111760
X58166Y111760
X63246Y111760
X1270Y131318
X6350Y131318
X9398Y131318
X14478Y131318
X17526Y131318
X22606Y131318
X25654Y131318
X30734Y131318
X33782Y131318
X38862Y131318
X41910Y131318
X46990Y131318
X50038Y131318
X55118Y131318
X58166Y131318
X63246Y131318
X1270Y150876
X6350Y150876
X9398Y150876
X14478Y150876
X17526Y150876
X22606Y150876
X25654Y150876
X30734Y150876
X33782Y150876
X38862Y150876
X41910Y150876
X46990Y150876
X50038Y150876
X55118Y150876
X58166Y150876
T3
X27559Y23495
X25654Y24638
X28829Y23495
X30734Y24638
X29477Y25908
X30099Y23368
X29735Y29481
X31440Y29083
X31440Y25273
X24948Y29083
X24948Y25273
X29337Y31750
X34417Y23368
X34544Y20828
X34595Y28956
X34569Y31826
X35585Y31699
X35687Y23495
X33782Y24638
X36957Y23495
X38862Y24638
X37605Y25908
X38227Y23368
X37863Y29481
X39568Y29083
X39568Y25273
X33076Y29083
X33076Y25273
X37465Y31750
X42545Y23368
X42672Y20828
X42723Y28956
X42697Y31826
X43713Y31699
X43815Y23495
X41910Y24638
X45085Y23495
X46990Y24638
X45733Y25908
X46355Y23368
X45991Y29481
X47696Y29083
X47696Y25273
X41204Y29083
X41204Y25273
X45593Y31750
X50673Y23368
X50800Y20828
X50851Y28956
X50825Y31826
X51841Y31699
X51943Y23495
X50038Y24638
X53213Y23495
X55118Y24638
X53861Y25908
X54483Y23368
X54119Y29481
X55824Y29083
X55824Y25273
X49332Y29083
X49332Y25273
X53721Y31750
X58801Y23368
X58928Y20828
X58979Y28956
X58953Y31826
X59969Y31699
X60071Y23495
X58166Y24638
X61341Y23495
X63246Y24638
X61989Y25908
X62611Y23368
X62247Y29481
X63952Y29083
X63952Y25273
X57460Y29083
X57460Y25273
X61849Y31750
X1905Y42926
X2032Y40386
X2083Y48514
X2057Y51384
X3073Y51257
X3175Y43053
X1270Y44196
X4445Y43053
X6350Y44196
X5093Y45466
X5715Y42926
X5351Y49039
X7056Y48641
X7056Y44831
X564Y48641
X564Y44831
X4953Y51308
X10033Y42926
X10160Y40386
X10211Y48514
X10185Y51384
X11201Y51257
X11303Y43053
X9398Y44196
X12573Y43053
X14478Y44196
X13221Y45466
X13843Y42926
X13479Y49039
X15184Y48641
X15184Y44831
X8692Y48641
X8692Y44831
X13081Y51308
X18161Y42926
X18288Y40386
X18339Y48514
X18313Y51384
X19329Y51257
X19431Y43053
X17526Y44196
X20701Y43053
X22606Y44196
X21349Y45466
X21971Y42926
X21607Y49039
X23312Y48641
X23312Y44831
X16820Y48641
X16820Y44831
X21209Y51308
X26289Y42926
X26416Y40386
X26467Y48514
X26441Y51384
X27457Y51257
X27559Y43053
X25654Y44196
X28829Y43053
X30734Y44196
X29477Y45466
X30099Y42926
X29735Y49039
X31440Y48641
X31440Y44831
X24948Y48641
X24948Y44831
X29337Y51308
X34417Y42926
X34544Y40386
X34595Y48514
X34569Y51384
X35585Y51257
X35687Y43053
X33782Y44196
X36957Y43053
X38862Y44196
X37605Y45466
X38227Y42926
X37863Y49039
X39568Y48641
X39568Y44831
X33076Y48641
X33076Y44831
X37465Y51308
X42545Y42926
X42672Y40386
X42723Y48514
X42697Y51384
X43713Y51257
X43815Y43053
X41910Y44196
X45085Y43053
X46990Y44196
X45733Y45466
X46355Y42926
X45991Y49039
X47696Y48641
X47696Y44831
X41204Y48641
X41204Y44831
X45593Y51308
X50673Y42926
X50800Y40386
X50851Y48514
X50825Y51384
X51841Y51257
X51943Y43053
X50038Y44196
X53213Y43053
X55118Y44196
X53861Y45466
X54483Y42926
X54119Y49039
X55824Y48641
X55824Y44831
X49332Y48641
X49332Y44831
X53721Y51308
X58801Y42926
X58928Y40386
X58979Y48514
X58953Y51384
X59969Y51257
X60071Y43053
X58166Y44196
X61341Y43053
X63246Y44196
X61989Y45466
X62611Y42926
X62247Y49039
X63952Y48641
X63952Y44831
X57460Y48641
X57460Y44831
X61849Y51308
X1905Y62484
X2032Y59944
X2083Y68072
X2057Y70942
X3073Y70815
X3175Y62611
X1270Y63754
X4445Y62611
X6350Y63754
X5093Y65024
X5715Y62484
X5351Y68597
X7056Y68199
X7056Y64389
X564Y68199
X564Y64389
X4953Y70866
X10033Y62484
X10160Y59944
X10211Y68072
X10185Y70942
X11201Y70815
X11303Y62611
X9398Y63754
X12573Y62611
X14478Y63754
X13221Y65024
X13843Y62484
X13479Y68597
X15184Y68199
X15184Y64389
X8692Y68199
X8692Y64389
X13081Y70866
X18161Y62484
X18288Y59944
X18339Y68072
X18313Y70942
X19329Y70815
X19431Y62611
X17526Y63754
X20701Y62611
X22606Y63754
X21349Y65024
X21971Y62484
X21607Y68597
X23312Y68199
X23312Y64389
X16820Y68199
X16820Y64389
X21209Y70866
X26289Y62484
X26416Y59944
X26467Y68072
X26441Y70942
X27457Y70815
X27559Y62611
X25654Y63754
X28829Y62611
X30734Y63754
X29477Y65024
X30099Y62484
X29735Y68597
X31440Y68199
X31440Y64389
X24948Y68199
X24948Y64389
X29337Y70866
X34417Y62484
X34544Y59944
X34595Y68072
X34569Y70942
X35585Y70815
X35687Y62611
X33782Y63754
X36957Y62611
X38862Y63754
X37605Y65024
X38227Y62484
X37863Y68597
X39568Y68199
X39568Y64389
X33076Y68199
X33076Y64389
X37465Y70866
X42545Y62484
X42672Y59944
X42723Y68072
X42697Y70942
X43713Y70815
X43815Y62611
X41910Y63754
X45085Y62611
X46990Y63754
X45733Y65024
X46355Y62484
X45991Y68597
X47696Y68199
X47696Y64389
X41204Y68199
X41204Y64389
X45593Y70866
X50673Y62484
X50800Y59944
X50851Y68072
X50825Y70942
X51841Y70815
X51943Y62611
X50038Y63754
X53213Y62611
X55118Y63754
X53861Y65024
X54483Y62484
X54119Y68597
X55824Y68199
X55824Y64389
X49332Y68199
X49332Y64389
X53721Y70866
X58801Y62484
X58928Y59944
X58979Y68072
X58953Y70942
X59969Y70815
X60071Y62611
X58166Y63754
X61341Y62611
X63246Y63754
X61989Y65024
X62611Y62484
X62247Y68597
X63952Y68199
X63952Y64389
X57460Y68199
X57460Y64389
X61849Y70866
X1905Y82042
X2032Y79502
X2083Y87630
X2057Y90500
X3073Y90373
X3175Y82169
X1270Y83312
X4445Y82169
X6350Y83312
X5093Y84582
X5715Y82042
X5351Y88155
X7056Y87757
X7056Y83947
X564Y87757
X564Y83947
X4953Y90424
X10033Y82042
X10160Y79502
X10211Y87630
X10185Y90500
X11201Y90373
X11303Y82169
X9398Y83312
X12573Y82169
X14478Y83312
X13221Y84582
X13843Y82042
X13479Y88155
X15184Y87757
X15184Y83947
X8692Y87757
X8692Y83947
X13081Y90424
X18161Y82042
X18288Y79502
X18339Y87630
X18313Y90500
X19329Y90373
X19431Y82169
X17526Y83312
X20701Y82169
X22606Y83312
X21349Y84582
X21971Y82042
X21607Y88155
X23312Y87757
X23312Y83947
X16820Y87757
X16820Y83947
X21209Y90424
X26289Y82042
X26416Y79502
X26467Y87630
X26441Y90500
X27457Y90373
X27559Y82169
X25654Y83312
X28829Y82169
X30734Y83312
X29477Y84582
X30099Y82042
X29735Y88155
X31440Y87757
X31440Y83947
X24948Y87757
X24948Y83947
X29337Y90424
X34417Y82042
X34544Y79502
X34595Y87630
X34569Y90500
X35585Y90373
X35687Y82169
X33782Y83312
X36957Y82169
X38862Y83312
X37605Y84582
X38227Y82042
X37863Y88155
X39568Y87757
X39568Y83947
X33076Y87757
X33076Y83947
X37465Y90424
X42545Y82042
X42672Y79502
X42723Y87630
X42697Y90500
X43713Y90373
X43815Y82169
X41910Y83312
X45085Y82169
X46990Y83312
X45733Y84582
X46355Y82042
X12573Y23495
X47696Y87757
X47696Y83947
X41204Y87757
X41204Y83947
X45593Y90424
X50673Y82042
X50800Y79502
X50851Y87630
X50825Y90500
X51841Y90373
X51943Y82169
X50038Y83312
X53213Y82169
X55118Y83312
X53861Y84582
X54483Y82042
X54119Y88155
X55824Y87757
X55824Y83947
X49332Y87757
X49332Y83947
X53721Y90424
X58801Y82042
X58928Y79502
X58979Y87630
X58953Y90500
X59969Y90373
X60071Y82169
X58166Y83312
X61341Y82169
X63246Y83312
X61989Y84582
X62611Y82042
X62247Y88155
X63952Y87757
X63952Y83947
X57460Y87757
X57460Y83947
X61849Y90424
X1905Y101600
X2032Y99060
X2083Y107188
X2057Y110058
X3073Y109931
X3175Y101727
X1270Y102870
X4445Y101727
X6350Y102870
X5093Y104140
X5715Y101600
X5351Y107713
X7056Y107315
X7056Y103505
X564Y107315
X564Y103505
X4953Y109982
X10033Y101600
X10160Y99060
X10211Y107188
X10185Y110058
X11201Y109931
X11303Y101727
X9398Y102870
X12573Y101727
X14478Y102870
X13221Y104140
X13843Y101600
X13479Y107713
X15184Y107315
X15184Y103505
X8692Y107315
X8692Y103505
X13081Y109982
X18161Y101600
X18288Y99060
X18339Y107188
X18313Y110058
X19329Y109931
X19431Y101727
X17526Y102870
X20701Y101727
X22606Y102870
X21349Y104140
X21971Y101600
X21607Y107713
X23312Y107315
X23312Y103505
X16820Y107315
X16820Y103505
X21209Y109982
X26289Y101600
X26416Y99060
X26467Y107188
X26441Y110058
X27457Y109931
X27559Y101727
X25654Y102870
X28829Y101727
X30734Y102870
X29477Y104140
X30099Y101600
X29735Y107713
X31440Y107315
X31440Y103505
X24948Y107315
X24948Y103505
X29337Y109982
X34417Y101600
X34544Y99060
X34595Y107188
X34569Y110058
X35585Y109931
X35687Y101727
X33782Y102870
X36957Y101727
X38862Y102870
X37605Y104140
X38227Y101600
X37863Y107713
X39568Y107315
X39568Y103505
X33076Y107315
X33076Y103505
X37465Y109982
X42545Y101600
X42672Y99060
X42723Y107188
X42697Y110058
X43713Y109931
X43815Y101727
X41910Y102870
X45085Y101727
X46990Y102870
X45733Y104140
X46355Y101600
X45991Y107713
X47696Y107315
X47696Y103505
X41204Y107315
X41204Y103505
X45593Y109982
X50673Y101600
X50800Y99060
X50851Y107188
X50825Y110058
X51841Y109931
X51943Y101727
X50038Y102870
X53213Y101727
X55118Y102870
X53861Y104140
X54483Y101600
X54119Y107713
X55824Y107315
X55824Y103505
X49332Y107315
X49332Y103505
X53721Y109982
X58801Y101600
X58928Y99060
X58979Y107188
X58953Y110058
X59969Y109931
X60071Y101727
X58166Y102870
X61341Y101727
X63246Y102870
X61989Y104140
X62611Y101600
X62247Y107713
X63952Y107315
X63952Y103505
X57460Y107315
X57460Y103505
X61849Y109982
X1905Y121158
X2032Y118618
X2083Y126746
X2057Y129616
X3073Y129489
X3175Y121285
X1270Y122428
X4445Y121285
X6350Y122428
X5093Y123698
X5715Y121158
X5351Y127271
X7056Y126873
X7056Y123063
X564Y126873
X564Y123063
X4953Y129540
X10033Y121158
X10160Y118618
X10211Y126746
X10185Y129616
X11201Y129489
X11303Y121285
X9398Y122428
X12573Y121285
X14478Y122428
X13221Y123698
X13843Y121158
X13479Y127271
X15184Y126873
X15184Y123063
X8692Y126873
X8692Y123063
X13081Y129540
X18161Y121158
X18288Y118618
X18339Y126746
X18313Y129616
X19329Y129489
X19431Y121285
X17526Y122428
X20701Y121285
X22606Y122428
X21349Y123698
X21971Y121158
X21607Y127271
X23312Y126873
X23312Y123063
X16820Y126873
X16820Y123063
X21209Y129540
X26289Y121158
X26416Y118618
X26467Y126746
X26441Y129616
X27457Y129489
X27559Y121285
X25654Y122428
X28829Y121285
X30734Y122428
X29477Y123698
X30099Y121158
X29735Y127271
X31440Y126873
X31440Y123063
X24948Y126873
X24948Y123063
X29337Y129540
X34417Y121158
X34544Y118618
X34595Y126746
X34569Y129616
X35585Y129489
X35687Y121285
X33782Y122428
X36957Y121285
X38862Y122428
X37605Y123698
X38227Y121158
X37863Y127271
X39568Y126873
X39568Y123063
X33076Y126873
X33076Y123063
X37465Y129540
X42545Y121158
X42672Y118618
X42723Y126746
X42697Y129616
X43713Y129489
X43815Y121285
X41910Y122428
X45085Y121285
X46990Y122428
X45733Y123698
X46355Y121158
X45991Y127271
X47696Y126873
X47696Y123063
X41204Y126873
X41204Y123063
X45593Y129540
X50673Y121158
X50800Y118618
X50851Y126746
X50825Y129616
X51841Y129489
X51943Y121285
X50038Y122428
X53213Y121285
X55118Y122428
X53861Y123698
X54483Y121158
X54119Y127271
X55824Y126873
X55824Y123063
X49332Y126873
X49332Y123063
X53721Y129540
X58801Y121158
X58928Y118618
X58979Y126746
X58953Y129616
X59969Y129489
X60071Y121285
X58166Y122428
X61341Y121285
X63246Y122428
X61989Y123698
X62611Y121158
X62247Y127271
X63952Y126873
X63952Y123063
X57460Y126873
X57460Y123063
X61849Y129540
X1905Y140716
X2032Y138176
X2083Y146304
X2057Y149174
X3073Y149047
X3175Y140843
X1270Y141986
X1905Y3810
X6350Y141986
X5093Y143256
X5715Y140716
X5351Y146829
X7056Y146431
X7056Y142621
X564Y146431
X564Y142621
X4953Y149098
X10033Y140716
X10160Y138176
X10211Y146304
X10185Y149174
X11201Y149047
X11303Y140843
X9398Y141986
X12573Y140843
X14478Y141986
X13221Y143256
X13843Y140716
X13479Y146829
X15184Y146431
X15184Y142621
X8692Y146431
X8692Y142621
X13081Y149098
X18161Y140716
X18288Y138176
X18339Y146304
X18313Y149174
X19329Y149047
X19431Y140843
X17526Y141986
X20701Y140843
X22606Y141986
X21349Y143256
X21971Y140716
X21607Y146829
X23312Y146431
X23312Y142621
X16820Y146431
X16820Y142621
X21209Y149098
X26289Y140716
X26416Y138176
X26467Y146304
X26441Y149174
X27457Y149047
X27559Y140843
X25654Y141986
X28829Y140843
X30734Y141986
X29477Y143256
X30099Y140716
X29735Y146829
X31440Y146431
X31440Y142621
X24948Y146431
X24948Y142621
X29337Y149098
X34417Y140716
X34544Y138176
X34595Y146304
X34569Y149174
X35585Y149047
X35687Y140843
X33782Y141986
X36957Y140843
X38862Y141986
X37605Y143256
X38227Y140716
X37863Y146829
X39568Y146431
X39568Y142621
X33076Y146431
X33076Y142621
X37465Y149098
X42545Y140716
X42672Y138176
X42723Y146304
X42697Y149174
X43713Y149047
X43815Y140843
X41910Y141986
X45085Y140843
X46990Y141986
X45733Y143256
X46355Y140716
X45991Y146829
X47696Y146431
X47696Y142621
X41204Y146431
X41204Y142621
X45593Y149098
X50673Y140716
X50800Y138176
X50851Y146304
X50825Y149174
X51841Y149047
X51943Y140843
X50038Y141986
X53213Y140843
X55118Y141986
X53861Y143256
X54483Y140716
X54119Y146829
X55824Y146431
X55824Y142621
X49332Y146431
X49332Y142621
X53721Y149098
X58801Y140716
X58928Y138176
X58979Y146304
X58953Y149174
X59969Y149047
X60071Y140843
X58166Y141986
X61341Y140843
X63246Y141986
X61989Y143256
X62611Y140716
X62247Y146829
X63952Y146431
X63952Y142621
X57460Y146431
X57460Y142621
X61849Y149098
X2032Y1270
X2083Y9398
X2057Y12268
X3073Y12141
X3175Y3937
X1270Y5080
X4445Y3937
X6350Y5080
X5093Y6350
X5715Y3810
X5351Y9923
X7056Y9525
X7056Y5715
X564Y9525
X564Y5715
X4953Y12192
X10033Y3810
X10160Y1270
X10211Y9398
X10185Y12268
X11201Y12141
X11303Y3937
X9398Y5080
X12573Y3937
X14478Y5080
X13221Y6350
X13843Y3810
X13479Y9923
X15184Y9525
X15184Y5715
X8692Y9525
X45991Y88155
X8692Y5715
X13081Y12192
X18161Y3810
X18288Y1270
X18339Y9398
X18313Y12268
X19329Y12141
X19431Y3937
X17526Y5080
X20701Y3937
X22606Y5080
X21349Y6350
X21971Y3810
X21607Y9923
X23312Y9525
X23312Y5715
X16820Y9525
X16820Y5715
X21209Y12192
X26289Y3810
X26416Y1270
X26467Y9398
X26441Y12268
X27457Y12141
X27559Y3937
X25654Y5080
X28829Y3937
X30734Y5080
X29477Y6350
X30099Y3810
X29735Y9923
X31440Y9525
X31440Y5715
X24948Y9525
X24948Y5715
X29337Y12192
X34417Y3810
X34544Y1270
X34595Y9398
X34569Y12268
X35585Y12141
X35687Y3937
X33782Y5080
X36957Y3937
X38862Y5080
X37605Y6350
X38227Y3810
X37863Y9923
X39568Y9525
X39568Y5715
X33076Y9525
X33076Y5715
X37465Y12192
X42545Y3810
X42672Y1270
X42723Y9398
X42697Y12268
X43713Y12141
X43815Y3937
X41910Y5080
X45085Y3937
X46990Y5080
X45733Y6350
X46355Y3810
X45991Y9923
X47696Y9525
X47696Y5715
X41204Y9525
X41204Y5715
X45593Y12192
X50673Y3810
X50800Y1270
X50851Y9398
X50825Y12268
X51841Y12141
X51943Y3937
X50038Y5080
X53213Y3937
X55118Y5080
X53861Y6350
X54483Y3810
X54119Y9923
X55824Y9525
X55824Y5715
X49332Y9525
X49332Y5715
X53721Y12192
X58801Y3810
X58928Y1270
X58979Y9398
X58953Y12268
X59969Y12141
X60071Y3937
X58166Y5080
X61341Y3937
X63246Y5080
X61989Y6350
X62611Y3810
X62247Y9923
X63952Y9525
X63952Y5715
X57460Y9525
X57460Y5715
X61849Y12192
X1905Y23368
X2032Y20828
X2083Y28956
X2057Y31826
X3073Y31699
X3175Y23495
X1270Y24638
X4445Y23495
X6350Y24638
X5093Y25908
X5715Y23368
X5351Y29481
X7056Y29083
X7056Y25273
X564Y29083
X564Y25273
X4953Y31750
X10033Y23368
X10160Y20828
X10211Y28956
X10185Y31826
X11201Y31699
X11303Y23495
X9398Y24638
X14478Y24638
X13221Y25908
X13843Y23368
X13479Y29481
X15184Y29083
X15184Y25273
X8692Y29083
X8692Y25273
X13081Y31750
X18161Y23368
X18288Y20828
X18339Y28956
X18313Y31826
X19329Y31699
X19431Y23495
X17526Y24638
X20701Y23495
X22606Y24638
X21349Y25908
X21971Y23368
X21607Y29481
X23312Y29083
X23312Y25273
X16820Y29083
X16820Y25273
X21209Y31750
X26289Y23368
X26416Y20828
X26467Y28956
X26441Y31826
X27457Y31699
X4445Y140843
M30